<svg width="181" height="119" xmlns="http://www.w3.org/2000/svg" xmlns:xlink="http://www.w3.org/1999/xlink"><defs><path id="path-1" d="M0 .015h40.984V46.08H0z"/></defs><g id="I.--Modules" stroke="none" stroke-width="1" fill="none" fill-rule="evenodd"><g id="Headers-and-Footers-/-Page-Footer---Homepage" transform="translate(-96 -63)"><g id="Group-5" transform="translate(96 63)"><g id="Group-42-Copy"><g id="Group-3" transform="translate(0 .06)"><mask id="mask-2" fill="#fff"><use xlink:href="#path-1"/></mask><path d="M25.934 24.818c.741.004.911-.146.922-.814.013-.76-.164-.963-.845-.97-.718-.008-.941.22-.938.96.003.621.21.82.86.824M3.838 29.99c-.679-.009-.88.185-.895.864-.018.75.17.966.851.97.69.005.892-.188.896-.86.006-.768-.167-.965-.852-.974m25.512-6.955c-.67.002-.867.207-.86.897.007.72.19.894.935.885.696-.009.865-.185.857-.89-.007-.722-.188-.895-.932-.892M23.44 34.4c-.003-.718-.182-.91-.85-.915-.734-.005-.9.163-.903.913-.003.736.179.918.91.914.677-.004.845-.186.843-.912m-14.53 7.875c.694.014.915-.207.92-.92.006-.665-.212-.892-.872-.909-.674-.017-.892.189-.906.855-.015.752.169.96.857.974m5.083-27.898c.706.014.934-.203.94-.897.006-.69-.209-.932-.837-.94-.697-.01-.924.209-.937.908-.014.695.185.917.834.93m-2.457 6.114c.01-.724-.192-.937-.89-.942-.706-.005-.892.17-.903.85-.011.72.204.955.885.965.654.01.9-.226.908-.873m-5.117 20.86c.003-.665-.219-.896-.874-.91-.692-.015-.912.21-.91.927 0 .704.189.9.86.903.708.003.921-.21.924-.92m17.854-30.534c-.709.003-.89.195-.892.943-.001.664.22.882.891.88.675-.002.913-.253.903-.954-.009-.669-.22-.871-.902-.869m-16.163 20.1c.002-.719-.204-.933-.895-.93-.677.002-.875.198-.885.875-.01.725.198.956.868.962.712.006.91-.19.912-.907m28.974-7.824c0-.91-.004-1.82.002-2.73.004-.56-.228-.821-.806-.824-.567-.003-.974.109-.973.79.001 1.82 0 3.64.007 5.46.003.608.342.824.907.815.569-.008.878-.227.868-.847-.014-.887-.003-1.776-.005-2.664M18.336 12.539c0-1.432.006-2.864-.002-4.296-.004-.754-.18-.924-.905-.92-.696.002-.881.197-.88 1.032.002 2.842.017 5.684.031 8.526.004.805.164.99.832 1.001.717.013.917-.19.92-.982.008-1.454.003-2.907.004-4.361m-3.408 14.855h-.022c0-1.149.008-2.298-.003-3.446-.008-.795-.141-.92-.886-.917-.712.003-.853.154-.855.953-.004 1.713-.001 3.425-.003 5.138 0 .864 0 .864-.818.867-.594.001-1.189.009-1.783.002-.596-.007-.838.297-.823.89.016.694.197.932.844.94 1.168.014 2.336-.01 3.503.006.594.009.854-.256.849-.857-.011-1.192-.003-2.384-.003-3.576M9.75 38.769v-.005c2.019 0 4.038-.01 6.056.006.6.005.855-.258.841-.86-.015-.693-.022-1.389.01-2.082.007-.167.15-.428.285-.473.861-.283 1.288.019 1.324.923.022.552.283.764.803.77.519.007.96-.06.976-.721.016-.673.004-1.345.012-2.018.007-.572-.258-.826-.82-.821-1.19.012-2.38.012-3.57-.005-.568-.007-.82.268-.822.824-.002.673-.03 1.347.005 2.018.027.515-.152.673-.654.67-2.91-.022-5.822-.01-8.734-.017-.738-.001-.725-.035-.76-1.121-.022-.662.402-.538.765-.54 2.317-.004 4.633.005 6.95-.008.662-.004.803-.218.809-.954.005-.594-.229-.87-.835-.868-2.868.012-5.737 0-8.606.005-.7.002-.84.157-.844.905-.008 1.15-.008 2.3 0 3.45.005.808.122.92.943.92 1.956.004 3.91.002 5.866.002M7.206 14.377c1.149 0 2.297.006 3.445-.002.705-.004.872-.174.881-.878.009-.694.016-1.39-.001-2.084-.01-.394.147-.543.527-.535.68.014 1.361-.02 2.04.005.57.02.832-.238.833-.803 0-1.237 0-2.475-.002-3.712-.002-.636-.369-.786-.925-.778-.546.007-.851.2-.846.79.006.608-.035 1.219.012 1.823.05.64-.143.882-.81.87-.618-.01-.873-.145-.84-.835.055-1.17.006-2.344.016-3.516.005-.583-.224-.9-.825-.896-1.212.008-2.424.006-3.636.002-.51-.001-.743.281-.745.77-.006 1.845-.004 3.69 0 5.535.002.506.26.754.76.749.68-.007 1.362.029 2.04-.013.685-.043.608.404.611.846.003.452.049.857-.626.833a66.702 66.702 0 0 0-3.763-.006c-.496.01-.657-.14-.645-.668.037-1.78.027-3.56.02-5.34-.003-.769-.178-.932-.897-.935-.723-.002-.876.142-.881.936-.013 2.323-.014 4.646-.013 6.969 0 .686.188.867.89.87 1.126.007 2.253.002 3.38.003m26.455 8.701h-.005c0-1.498-.006-2.997.002-4.495.003-.535-.217-.8-.758-.812-.77-.017-.986.17-.988.98-.006 2.323-.017 4.647.007 6.97.006.575-.127.836-.745.78-.612-.054-1.232-.005-1.849-.011-.587-.006-.853.278-.84.88.015.715-.006 1.432.003 2.149.004.324-.11.49-.445.47a4.114 4.114 0 0 0-.638.002c-.419.04-.564-.147-.55-.566.022-.694-.007-1.39.007-2.085.011-.57-.246-.852-.8-.853-1.765-.002-3.53-.013-5.295.006-.643.007-.822.269-.815.97.007.583.242.878.85.867 1.213-.022 2.427.03 3.637-.02.741-.03.613.444.634.889.023.483-.008.82-.653.806-1.829-.04-3.658-.026-5.487-.007-.43.004-.614-.113-.606-.582.021-1.324.023-2.65 0-3.973-.01-.496.187-.64.642-.632 1.212.02 2.425-.007 3.636.013.598.01.85-.241.839-.854-.014-.762-.106-.935-.801-.941-1.786-.016-3.573.005-5.359.008-.555 0-.74.33-.74.839.004 2.323-.005 4.647.015 6.97.007.844.168.978.992.98 2.233.004 4.466.023 6.699-.012.63-.01.873.154.837.831-.04.742.187.915.913.905.699-.01.889-.177.851-.968-.028-.61.181-.804.76-.764.613.042 1.232 0 1.849.008.56.007.822-.272.82-.834 0-.695.021-1.39-.002-2.084-.016-.46.164-.611.601-.592.637.028 1.276.012 1.914.003.726-.01.862-.143.866-.876.007-1.455.002-2.91.002-4.365m-28.93 3.409v-.795c0-2.714.002-5.428 0-8.142 0-.26-.013-.52-.024-.78-.028-.656-.448-.742-.973-.732-.523.01-.796.23-.796.779.002 3.582.002 7.165 0 10.747 0 .508.234.76.74.76 2.36-.005 4.72-.006 7.08 0 .534 0 .778-.255.775-.796-.005-1.216-.005-2.432.006-3.647.006-.611-.283-.86-.866-.845-.659.018-1.319-.013-1.977.008-.393.012-.59-.1-.585-.544.016-1.367.01-2.735.003-4.103-.002-.342.104-.523.474-.52 1.361.013 2.722.014 4.083.005.36-.003.494.153.488.506-.01.63-.004 1.26 0 1.889.007.959.132 1.086 1.075 1.087 4.38.002 8.761.002 13.142.003.68 0 1.361.015 2.04-.005.677-.02.863-.224.865-.922a693.39 693.39 0 0 0-.002-5.21c-.004-.768-.144-.904-.908-.908-1.02-.007-2.04 0-3.062 0-1.167.001-1.183 0-1.231 1.166-.018.418-.162.576-.572.562-.68-.023-1.363-.039-2.04.005-.567.037-.736-.174-.726-.742.03-1.758.016-3.518.01-5.276-.001-.816-.262-1.036-1.05-.974-.622.049-.752.438-.75.983.006 2.91-.017 5.819.014 8.728.007.643-.193.814-.798.791-1.21-.044-2.423-.011-3.635-.015-.183 0-.365-.028-.599-.047 0-.923.005-1.79-.001-2.656-.004-.516-.229-.806-.776-.805-2.36.008-4.72.003-7.08.003-.498 0-.747.259-.747.764 0 2.432.003 4.863.003 7.295 0 .49.243.712.711.71.68-.001 1.363.031 2.041-.007.504-.028.713.153.659.665-.02.194.047.416-.025.58-.076.173-.267.413-.412.416-1.486.03-2.973.019-4.573.019M0 23.825c.126-4.929.175-9.162.365-13.39C.472 8.06.7 5.676 1.5 3.403 2.493.576 4.61-.533 7.45.27c2.927.825 5.63 2.193 8.302 3.618 7.468 3.981 14.672 8.403 21.393 13.609.943.73 1.862 1.53 2.644 2.431 1.534 1.77 1.628 4.412.067 6.14-1.241 1.373-2.71 2.562-4.193 3.671-6.854 5.125-14.132 9.55-21.729 13.416-2.024 1.03-4.143 1.931-6.306 2.592-3.338 1.02-5.505-.318-6.355-3.767-.391-1.59-.694-3.231-.78-4.863C.25 32.458.14 27.794 0 23.825" id="Fill-1" fill="#9B8441" mask="url('#mask-2')"/></g><path d="M8.957 40.507c.66.017.878.243.873.909-.006.713-.227.934-.922.92-.688-.013-.872-.222-.857-.974.014-.667.232-.872.906-.855Zm-3.414-.004c.655.013.877.245.874.91-.003.71-.216.922-.924.92-.671-.003-.86-.2-.86-.903-.002-.717.218-.942.91-.927Zm10.124-6.959c1.19.017 2.38.016 3.57.005.562-.006.827.25.82.82-.009.673.004 1.346-.012 2.018-.016.662-.457.729-.976.722-.52-.006-.781-.218-.803-.77-.036-.905-.463-1.206-1.324-.923-.135.045-.278.306-.286.473a30.584 30.584 0 0 0-.009 2.082c.014.602-.242.864-.84.86-2.02-.016-4.038-.006-6.057-.006v.004c-1.955 0-3.91.003-5.866 0-.822-.002-.938-.113-.943-.921-.008-1.15-.008-2.3 0-3.45.005-.748.144-.904.844-.905 2.869-.005 5.737.007 8.606-.005.606-.003.84.274.835.868-.006.736-.147.95-.81.953-2.316.014-4.632.004-6.949.01-.363 0-.787-.123-.765.538.035 1.087.021 1.12.76 1.122 2.912.006 5.823-.005 8.734.016.502.004.681-.154.654-.67-.035-.67-.007-1.344-.005-2.017.003-.556.254-.832.822-.824Zm6.923.002c.667.004.846.197.849.915.002.726-.166.908-.842.912-.732.004-.914-.178-.911-.915.003-.75.17-.917.904-.912ZM32.9 17.832c.54.012.761.276.758.812-.008 1.498-.002 2.996-.002 4.495h.005c0 1.455.005 2.91-.002 4.365-.004.732-.14.866-.866.876-.638.009-1.277.024-1.914-.004-.437-.019-.617.133-.601.592.023.695.002 1.39.003 2.085 0 .562-.262.84-.821.834-.617-.008-1.236.034-1.85-.009-.578-.04-.787.154-.759.764.038.791-.152.959-.851.969-.726.01-.953-.163-.913-.905.036-.678-.207-.841-.837-.831-2.233.035-4.466.015-6.7.011-.823-.001-.984-.135-.99-.979-.02-2.323-.012-4.647-.016-6.97 0-.508.185-.839.74-.84l3.573-.013c.595-.001 1.19 0 1.786.005.695.007.787.18.8.942.012.612-.24.864-.838.854-1.211-.02-2.424.007-3.636-.013-.455-.008-.651.135-.642.631.023 1.324.021 2.65 0 3.974-.008.468.176.586.606.582a171.1 171.1 0 0 1 5.487.006c.645.015.676-.322.653-.805-.021-.446.107-.92-.634-.89-1.21.05-2.424-.001-3.636.02-.609.011-.844-.283-.85-.866-.008-.702.171-.963.814-.97 1.765-.02 3.53-.008 5.295-.006.554 0 .811.283.8.853-.014.695.015 1.39-.007 2.085-.014.419.131.605.55.565.211-.02.426-.015.638-.002.335.02.45-.146.445-.47-.009-.716.012-1.433-.004-2.15-.012-.6.254-.884.841-.878.617.006 1.237-.044 1.85.011.617.056.75-.205.744-.78-.024-2.324-.013-4.647-.007-6.97.002-.81.218-.998.988-.98Zm-18.883 5.26c.745-.002.878.122.886.917.011 1.148.003 2.297.003 3.446h.022c0 1.192-.008 2.384.003 3.576.005.6-.255.865-.849.857-1.167-.017-2.335.007-3.503-.006-.647-.008-.828-.247-.845-.941-.014-.593.228-.897.824-.89.594.007 1.189 0 1.783-.002.774-.002.816-.002.818-.737v-.13c.001-1.712-.001-3.425.003-5.137.002-.8.143-.95.855-.953Zm-10.18 6.96c.685.009.858.206.852.973-.004.673-.205.866-.896.861-.681-.005-.87-.22-.851-.97.016-.68.216-.873.895-.864Zm3.376-.004c.691-.002.897.212.895.93-.003.717-.2.914-.912.907-.67-.006-.878-.236-.868-.96.01-.679.208-.874.885-.877Zm14.538-19.95c.004 1.758.02 3.517-.011 5.275-.01.569.16.78.726.743.677-.044 1.36-.028 2.04-.005.41.014.554-.144.572-.562.048-1.165.064-1.165 1.231-1.166 1.021-.001 2.042-.007 3.062 0 .764.004.904.14.908.907.007 1.737.008 3.474.002 5.21-.002.699-.188.903-.864.923-.68.02-1.36.004-2.041.004-4.38 0-8.761 0-13.141-.003-.944 0-1.069-.128-1.076-1.087-.004-.63-.01-1.259 0-1.888.006-.353-.129-.509-.488-.506-1.361.01-2.722.007-4.083-.005-.37-.003-.476.177-.474.52.007 1.367.013 2.735-.003 4.103-.005.444.192.556.585.543.658-.02 1.318.01 1.977-.007.583-.016.872.233.866.844-.01 1.216-.01 2.432-.006 3.648.003.541-.241.796-.774.795a1928.8 1928.8 0 0 0-7.081 0c-.506 0-.74-.251-.74-.76.002-3.582.002-7.164 0-10.747 0-.548.273-.769.796-.778.525-.01.945.075.973.73.01.26.024.521.024.781l.001 4.071v4.867c1.6 0 3.087.011 4.573-.02.145-.002.336-.243.412-.416.072-.164.004-.385.025-.579.054-.512-.155-.693-.659-.665-.678.038-1.36.006-2.04.007-.469.001-.712-.22-.712-.71 0-2.432-.003-4.864-.003-7.295 0-.505.249-.764.746-.764 2.36 0 4.72.004 7.081-.003.547-.002.772.289.776.804.006.867.001 1.734.001 2.656.234.02.416.047.599.047 1.212.004 2.425-.028 3.635.016.605.022.805-.149.798-.791-.031-2.91-.008-5.819-.014-8.728-.002-.545.128-.934.75-.983.788-.063 1.049.158 1.05.973ZM36.278 19.6c.578.003.81.264.806.824-.006.91-.002 1.82-.001 2.73 0 .888-.01 1.776.004 2.664.01.62-.3.839-.867.847-.566.008-.905-.208-.908-.816-.007-1.82-.006-3.64-.007-5.459 0-.682.406-.793.973-.79Zm-10.267 3.493c.681.007.858.21.845.97-.011.669-.181.819-.922.814-.65-.003-.858-.202-.86-.823-.004-.74.219-.969.937-.96Zm3.338.002c.744-.003.925.17.932.892.008.706-.161.882-.857.89-.745.01-.928-.164-.935-.885-.007-.689.19-.894.86-.897Zm-18.704-3.485c.697.004.898.218.889.941-.009.648-.254.884-.908.874-.682-.01-.896-.245-.885-.965.01-.68.197-.855.904-.85Zm16.4-3.351c-.12.032-.128.524-.182.806a.624.624 0 0 0-.002.195c.072.557-.192.704-.702.69-1.146-.029-2.293-.01-3.44-.009-1.004.001-.982.002-.978 1.051.002.483.166.644.635.629.912-.03 1.826-.01 2.74-.011.955 0 1.911-.008 2.867.004.337.004.514-.097.507-.477-.015-.824.003-1.648-.015-2.472-.003-.15-.103-.42-.178-.427-.417-.041-.857-.084-1.251.02ZM17.43 7.383c.724-.003.901.166.905.92.008 1.432.002 2.865.001 4.297 0 1.453.005 2.907-.002 4.36-.004.793-.203.995-.921.983-.668-.012-.828-.196-.832-1.001-.014-2.842-.03-5.684-.032-8.527 0-.834.185-1.029.881-1.032Zm-6.718-3.496c.601-.004.83.313.825.896-.01 1.172.039 2.346-.016 3.516-.033.69.222.825.84.835.667.011.86-.23.81-.87-.047-.605-.006-1.215-.012-1.823-.005-.59.3-.784.846-.79.556-.008.923.142.925.778.003 1.237.002 2.474.002 3.712 0 .565-.262.823-.833.802-.679-.025-1.36.01-2.04-.005-.38-.008-.537.142-.527.536.017.694.01 1.39.001 2.084-.009.704-.176.873-.881.878-1.148.008-2.296.002-3.445.001-1.127 0-2.254.004-3.38-.002-.702-.004-.89-.184-.89-.87-.001-2.324 0-4.647.013-6.97.004-.794.158-.938.881-.935.72.002.894.166.897.934.007 1.78.017 3.561-.02 5.34-.012.528.149.679.645.668a66.631 66.631 0 0 1 3.763.007c.633.022.632-.332.627-.75v-.083c-.004-.442.073-.89-.612-.847-.678.042-1.36.007-2.04.013-.5.005-.758-.243-.76-.748a923.56 923.56 0 0 1 0-5.536c.002-.488.234-.77.745-.769 1.212.004 2.424.006 3.636-.002Zm3.383 8.713c.628.009.843.25.837.941-.006.694-.234.91-.94.897-.649-.013-.848-.235-.834-.93.013-.698.24-.918.937-.908Zm10.177-1.72c.683-.003.893.2.902.867.01.702-.228.953-.903.955-.67.002-.892-.217-.891-.88.001-.748.183-.94.892-.943ZM8.11 6.251c.015.693.039 1.39-.012 2.08-.047.65.21.825.807.79.828-.048.83-.015.833-.887v-.846h-.005c0-.39-.012-.78.004-1.17.013-.353-.112-.531-.477-.506a4.236 4.236 0 0 1-.636 0c-.395-.032-.523.157-.514.539Z" id="Combined-Shape" fill="#CBC592"/><path d="M9.739 7.39v.845c-.003.872-.005.839-.833.887-.597.035-.854-.14-.807-.79.05-.69.027-1.387.012-2.08-.009-.382.12-.571.514-.538.21.017.425.013.636-.001.365-.025.49.153.477.506-.016.39-.004.78-.004 1.17h.005Z" id="Fill-40" fill="#9B8441"/><path d="M25.115 19.612c-.913 0-1.827-.02-2.74.01-.468.015-.632-.146-.634-.629-.004-1.05-.026-1.05.978-1.05 1.147-.002 2.294-.02 3.44.009.51.013.774-.134.702-.691a.624.624 0 0 1 .002-.195c.054-.282.061-.774.183-.806.394-.105.834-.062 1.25-.02.076.007.176.276.18.426.017.824 0 1.648.014 2.472.007.38-.17.481-.507.477-.956-.012-1.912-.004-2.868-.003" id="Fill-38" fill="#9B853E"/></g><path d="m22.33 117.048.6-1.777h2.49l.6 1.777h1.33l-2.5-6.93H23.5l-2.5 6.93h1.33Zm2.77-2.802h-1.86l.63-1.854c.14-.39.3-1.074.3-1.074h.02s.15.683.28 1.074l.63 1.854Zm5.68 2.919c1.35 0 2.34-1.025 2.34-2.606 0-1.543-.88-2.607-2.26-2.607-1.08 0-1.53.723-1.53.723h-.02s.02-.176.02-.42v-2.138h-1.27v6.93h1.2v-.282c0-.196-.02-.342-.02-.342h.02s.46.742 1.52.742Zm-.22-1.045c-.85 0-1.27-.761-1.27-1.532 0-1.103.62-1.572 1.28-1.572.75 0 1.27.615 1.27 1.562 0 .986-.58 1.542-1.28 1.542Zm5.31 1.045c.869 0 1.519-.517 1.769-1.035h.02s-.02.156-.02.352v.566h1.22v-4.979h-1.27v2.285c0 .888-.51 1.679-1.43 1.679-.63 0-.79-.41-.79-1.016v-2.948H34.1v3.202c0 1.357.68 1.894 1.77 1.894Zm9.438-.117c2.19 0 3.62-1.289 3.62-3.475 0-2.187-1.43-3.456-3.62-3.456h-2.42v6.93h2.42Zm-.07-1.084h-1.06v-4.763h1.06c1.42 0 2.36.83 2.36 2.372 0 1.561-.92 2.391-2.36 2.391Zm6.11 1.084v-2.284c0-.235.02-.45.08-.645.19-.605.71-1.034 1.38-1.034.65 0 .81.41.81 1.015v2.948h1.26v-3.202c0-1.318-.64-1.894-1.77-1.894-.89 0-1.51.508-1.76.986h-.02s.02-.176.02-.42v-2.4h-1.27v6.93h1.27Zm6.16.117c1.16 0 1.56-.879 1.55-.879h.02s-.02.157-.02.352v.41h1.17v-3.114c0-1.26-.78-1.982-2.12-1.982-1.21 0-2 .615-2 .615l.48.889s.67-.479 1.4-.479c.56 0 .98.225.98.879v.068h-.17c-.83 0-3.02.107-3.02 1.689 0 .995.82 1.552 1.73 1.552Zm.32-.967c-.52 0-.77-.312-.77-.644 0-.693 1.05-.78 1.7-.78h.22v.116c0 .606-.48 1.308-1.15 1.308Zm6.44.967c1.35 0 2.34-1.025 2.34-2.606 0-1.543-.88-2.607-2.26-2.607-1.08 0-1.53.723-1.53.723h-.02s.02-.176.02-.42v-2.138h-1.27v6.93h1.2v-.282c0-.196-.02-.342-.02-.342h.02s.46.742 1.52.742Zm-.22-1.045c-.85 0-1.27-.761-1.27-1.532 0-1.103.62-1.572 1.28-1.572.75 0 1.27.615 1.27 1.562 0 .986-.58 1.542-1.28 1.542Zm4.869-4.9v-1.103h-1.26v1.103h1.26Zm.01 5.828v-4.979h-1.27v4.979h1.27Zm7.21.117c1.81 0 2.79-1.123 2.79-1.123l-.68-.908s-.83.879-2.06.879c-1.48 0-2.39-1.162-2.39-2.48 0-1.288.88-2.381 2.38-2.381 1.13 0 1.94.732 1.94.732l.62-.937-.004-.003c-.057-.06-.944-.944-2.616-.944-2.09 0-3.65 1.542-3.65 3.553 0 2.04 1.5 3.612 3.67 3.612Zm6.21 0c1.549 0 2.799-1.074 2.799-2.606 0-1.523-1.25-2.607-2.81-2.607-1.55 0-2.8 1.084-2.8 2.607 0 1.532 1.25 2.606 2.81 2.606Zm0-1.054c-.83 0-1.52-.625-1.52-1.552 0-.918.69-1.552 1.52-1.552.82 0 1.509.634 1.509 1.552 0 .927-.69 1.552-1.51 1.552Zm5.089.937v-2.187c0-.224.01-.449.06-.634.16-.635.59-1.142 1.25-1.142.6 0 .69.458.69.995v2.968h1.27v-2.187c0-.234.01-.449.06-.644.15-.625.58-1.132 1.23-1.132.59 0 .7.43.7.995v2.968h1.27v-3.202c0-1.308-.61-1.894-1.67-1.894-.8 0-1.46.488-1.74 1.025h-.02c-.21-.673-.71-1.025-1.49-1.025-.8 0-1.41.547-1.66 1.035h-.02s.02-.156.02-.342v-.576h-1.22v4.979h1.27Zm9.13 0v-2.187c0-.224.01-.449.06-.634.16-.635.59-1.142 1.25-1.142.6 0 .69.458.69.995v2.968h1.269v-2.187c0-.234.01-.449.06-.644.15-.625.58-1.132 1.23-1.132.59 0 .7.43.7.995v2.968h1.27v-3.202c0-1.308-.61-1.894-1.67-1.894-.8 0-1.46.488-1.74 1.025h-.02c-.21-.673-.71-1.025-1.49-1.025-.8 0-1.41.547-1.66 1.035h-.02s.02-.156.02-.342v-.576h-1.22v4.979h1.27Zm10.239.117c1.27 0 2.05-.713 2.05-.713l-.49-.888s-.65.547-1.47.547c-.76 0-1.45-.45-1.53-1.318h3.52s.03-.332.03-.478c0-1.318-.79-2.363-2.26-2.363-1.52 0-2.59 1.074-2.59 2.607 0 1.415 1.05 2.606 2.74 2.606Zm.83-3.221h-2.23c.12-.645.57-1.035 1.22-1.035.56 0 .99.361 1.01 1.035Zm3.6 3.104v-1.972c0-.293.03-.566.11-.81.24-.742.85-1.045 1.39-1.045.17 0 .3.02.3.02v-1.22s-.11-.02-.23-.02c-.78 0-1.39.566-1.62 1.279h-.02s.02-.166.02-.352v-.859h-1.22v4.979h1.27Zm5.059.117c1.37 0 2.1-.81 2.1-.81l-.49-.879-.004.004c-.055.053-.675.63-1.496.63-.97 0-1.59-.722-1.59-1.561 0-.85.61-1.542 1.55-1.542.8 0 1.33.536 1.33.536l.56-.849s-.63-.742-1.96-.742c-1.69 0-2.77 1.191-2.77 2.607 0 1.444 1.08 2.606 2.77 2.606Zm4.31-5.945v-1.103h-1.26v1.103h1.26Zm.01 5.828v-4.979h-1.27v4.979h1.27Zm2.7.117c1.16 0 1.56-.879 1.55-.879h.02s-.02.157-.02.352v.41h1.17v-3.114c0-1.26-.78-1.982-2.12-1.982-1.21 0-2 .615-2 .615l.48.889s.67-.479 1.4-.479c.56 0 .98.225.98.879v.068h-.17c-.83 0-3.02.107-3.02 1.689 0 .995.82 1.552 1.73 1.552Zm.32-.967c-.52 0-.77-.312-.77-.644 0-.693 1.05-.78 1.7-.78h.22v.116c0 .606-.48 1.308-1.15 1.308Zm5.22.899c.21 0 .4-.03.4-.03v-1.083s-.09.01-.19.01c-.33 0-.52-.137-.52-.684v-5.193h-1.26v5.379c0 1.425.87 1.6 1.57 1.6Zm5.259-.05v-2.39h1.45c1.33 0 2.26-.938 2.26-2.285 0-1.347-.93-2.255-2.26-2.255h-2.74v6.93h1.29Zm1.21-3.484h-1.21V111.2h1.23c.73 0 1.17.458 1.17 1.171 0 .722-.44 1.19-1.19 1.19Zm4.71 3.485v-1.972c0-.293.03-.566.11-.81.24-.742.85-1.045 1.39-1.045.17 0 .3.02.3.02v-1.22s-.11-.02-.23-.02c-.78 0-1.39.566-1.62 1.279h-.02s.02-.166.02-.352v-.859h-1.22v4.979h1.27Zm5.09.117c1.55 0 2.799-1.074 2.799-2.606 0-1.523-1.25-2.607-2.81-2.607-1.55 0-2.8 1.084-2.8 2.607 0 1.532 1.25 2.606 2.81 2.606Zm0-1.054c-.83 0-1.52-.625-1.52-1.552 0-.918.69-1.552 1.52-1.552.82 0 1.51.634 1.51 1.552 0 .927-.69 1.552-1.51 1.552Zm5.089 2.889v-2.089c0-.254-.02-.43-.02-.43h.02s.45.684 1.46.684c1.34 0 2.33-1.025 2.33-2.606 0-1.543-.88-2.607-2.26-2.607-1.2 0-1.64.82-1.64.82h-.02s.02-.156.02-.341v-.362h-1.16V119h1.27Zm1.23-2.88c-.84 0-1.27-.761-1.27-1.532 0-1.103.62-1.572 1.28-1.572.75 0 1.27.615 1.27 1.562 0 .986-.58 1.542-1.28 1.542Zm5.99 1.045c1.27 0 2.05-.713 2.05-.713l-.49-.888s-.65.547-1.47.547c-.76 0-1.45-.45-1.53-1.318h3.52s.03-.332.03-.478c0-1.318-.79-2.363-2.26-2.363-1.52 0-2.59 1.074-2.59 2.607 0 1.415 1.05 2.606 2.74 2.606Zm.83-3.221h-2.23c.12-.645.57-1.035 1.22-1.035.56 0 .99.361 1.01 1.035Zm3.6 3.104v-1.972c0-.293.03-.566.11-.81.24-.742.85-1.045 1.389-1.045.17 0 .3.02.3.02v-1.22s-.11-.02-.23-.02c-.78 0-1.39.566-1.62 1.279h-.02s.02-.166.02-.352v-.859h-1.22v4.979h1.27Zm4.999.049c.24 0 .39-.03.39-.03v-1.083s-.09.02-.23.02c-.35 0-1.01-.118-1.01-.938v-1.933h1.16v-.985h-1.16v-1.435h-1.24v1.435h-.69v.985h.66v2.09c0 1.669 1.41 1.874 2.12 1.874Zm2.69-5.877v-1.103h-1.26v1.103h1.26Zm.01 5.828v-4.979h-1.27v4.979h1.27Zm3.78.117c1.27 0 2.05-.713 2.05-.713l-.49-.888s-.65.547-1.47.547c-.76 0-1.45-.45-1.53-1.318h3.52s.03-.332.03-.478c0-1.318-.79-2.363-2.26-2.363-1.52 0-2.59 1.074-2.59 2.607 0 1.415 1.05 2.606 2.74 2.606Zm.83-3.221h-2.23c.12-.645.57-1.035 1.22-1.035.56 0 .99.361 1.01 1.035Zm3.88 3.22c1.209 0 1.949-.663 1.949-1.493 0-1.6-2.48-1.513-2.48-2.215 0-.313.32-.45.65-.45.78 0 1.25.43 1.25.43l.47-.918s-.56-.566-1.71-.566c-1.1 0-1.95.537-1.95 1.464 0 1.601 2.48 1.504 2.48 2.246 0 .292-.31.449-.67.449-.83 0-1.39-.547-1.39-.547l-.58.869s.71.732 1.98.732Z" id="AbuDhabiCommercialProperties" fill="#FFF" fill-rule="nonzero"/><path d="M176.832 96.911a.291.291 0 0 0 .187-.064.198.198 0 0 0 .08-.16v-.653a.219.219 0 0 0-.075-.166.258.258 0 0 0-.182-.07h-.706a.252.252 0 0 0-.166.07.213.213 0 0 0-.08.166v.653c0 .064.025.117.075.16.05.043.103.064.16.064h.707Zm-.985 1.649a.284.284 0 0 0 .182-.07c.057-.046.085-.098.085-.155v-.781a.208.208 0 0 0-.08-.172.291.291 0 0 0-.187-.064h-.739a.27.27 0 0 0-.182.064.214.214 0 0 0-.075.172v.78c0 .058.025.11.075.156.05.046.11.07.182.07h.739Zm1.99 0a.24.24 0 0 0 .177-.07.215.215 0 0 0 .07-.155v-.781a.222.222 0 0 0-.07-.172.25.25 0 0 0-.176-.064h-.75a.276.276 0 0 0-.176.064.208.208 0 0 0-.08.172v.78c0 .058.026.11.08.156.053.046.112.07.176.07h.75Zm-5.308 5.683c.242 0 .494-.025.754-.075.26-.05.484-.146.67-.289.192.143.402.24.63.29.23.05.475.074.74.074h.138c.25 0 .491-.027.723-.08.232-.054.43-.148.594-.284.207.15.457.245.75.284.292.04.563.059.813.059h.139c.25 0 .482-.01.696-.027a2.89 2.89 0 0 0 .546-.091c.085-.036.142-.08.171-.134a.693.693 0 0 0 .064-.176c.022-.2.034-.414.038-.643.003-.228.005-.442.005-.642v-1.161c0-.182-.002-.366-.005-.551a296.7 296.7 0 0 1-.011-.589 51.007 51.007 0 0 0-.016-.664.207.207 0 0 0-.054-.144c-.035-.04-.092-.059-.17-.059h-.91a.184.184 0 0 0-.15.064.213.213 0 0 0-.054.14 54.223 54.223 0 0 1 .021 1.594v1.434c0 .172-.028.272-.085.3-.057.029-.172.043-.343.043h-.246c-.143 0-.29-.01-.439-.032-.15-.022-.246-.075-.289-.16V99.95a.188.188 0 0 0-.064-.144.215.215 0 0 0-.15-.06h-.9a.215.215 0 0 0-.149.06.188.188 0 0 0-.064.144v2.612a.3.3 0 0 1-.054.187.348.348 0 0 1-.139.107.629.629 0 0 1-.187.048c-.068.007-.134.01-.198.01h-.16a3.42 3.42 0 0 1-.177-.004 1.203 1.203 0 0 1-.198-.027.987.987 0 0 1-.182-.06.225.225 0 0 1-.118-.1v-2.388a.229.229 0 0 0-.06-.16.188.188 0 0 0-.144-.064h-.91a.205.205 0 0 0-.15.064.218.218 0 0 0-.064.16v2.173c0 .164-.066.266-.198.305-.132.04-.265.06-.401.06h-.342a.773.773 0 0 0-.236.037c-.078.025-.118.055-.118.09v1.114c0 .042.04.075.118.096a.892.892 0 0 0 .236.032h.289Zm-.215 0v-1.37h-2.376a.773.773 0 0 0-.235.038c-.079.025-.118.055-.118.09v1.114c0 .042.04.075.118.096a.892.892 0 0 0 .235.032h2.376Zm-5.277 2.548c.45 0 .817-.063 1.103-.188.285-.125.51-.34.674-.647.079-.15.134-.329.166-.536.032-.206.048-.431.048-.674v-.503h.985v-1.37h-.953v-3.029a.196.196 0 0 0-.058-.144.196.196 0 0 0-.145-.06h-.931a.21.21 0 0 0-.155.06.196.196 0 0 0-.06.144v4.806c0 .221-.019.394-.058.519a.546.546 0 0 1-.188.284.702.702 0 0 1-.337.123c-.139.018-.308.026-.508.026h-.225c-.121 0-.182.054-.182.161v.792c0 .114.05.182.15.203.093.015.214.024.364.027.15.004.253.006.31.006Zm-3.184-2.548c.225 0 .448-.003.669-.01.221-.008.424-.013.61-.017.186-.003.339-.012.46-.026.15-.008.236-.075.257-.204l.027-.31a12.622 12.622 0 0 0 .043-.803c.003-.128.005-.232.005-.31v-.268c0-.514-.06-.969-.182-1.365a2.342 2.342 0 0 0-.578-.99c-.264-.264-.606-.463-1.027-.599-.422-.136-.935-.203-1.542-.203-.15 0-.316.003-.498.01l-.733.032a.6.6 0 0 1 .038-.155c.025-.075.055-.155.09-.24.036-.086.076-.175.118-.268.043-.093.086-.179.129-.257l1.006-1.916a.266.266 0 0 0 .032-.118.135.135 0 0 0-.032-.09c-.021-.026-.06-.038-.118-.038h-.963a.25.25 0 0 0-.177.064.726.726 0 0 0-.123.15l-.803 1.498c-.114.207-.214.4-.3.578a5.99 5.99 0 0 0-.219.514 2.805 2.805 0 0 0-.176 1.006v.064c0 .036.001.074.005.113a12.551 12.551 0 0 0 .016.187c.007.114.09.171.246.171h2.28c.336 0 .633.029.894.086.26.057.482.15.664.278.182.129.32.298.417.509.096.21.145.472.145.786a13.721 13.721 0 0 1-.022.75 3.385 3.385 0 0 1-.289.016c-.135.003-.28.005-.433.005h-4.748a.543.543 0 0 0-.246.054c-.071.035-.107.082-.107.139v.984c0 .058.036.104.107.14a.543.543 0 0 0 .246.053h4.812Zm-4.737 0v-1.37h-2.376a.773.773 0 0 0-.236.038c-.078.025-.117.055-.117.09v1.114c0 .042.039.075.117.096a.892.892 0 0 0 .236.032h2.376Zm-6.069-6.261a.284.284 0 0 0 .182-.07.208.208 0 0 0 .086-.166v-.835a.223.223 0 0 0-.08-.176.277.277 0 0 0-.188-.07h-.739a.258.258 0 0 0-.182.07.23.23 0 0 0-.074.176v.835c0 .064.025.12.074.166.05.046.111.07.182.07h.739Zm1.991 0a.24.24 0 0 0 .246-.236v-.835a.24.24 0 0 0-.246-.246h-.75a.264.264 0 0 0-.176.07.223.223 0 0 0-.08.176v.835c0 .064.027.12.08.166.054.046.112.07.177.07h.749Zm1.777 6.261v-1.37h-.29c-.235 0-.406-.036-.513-.107-.107-.071-.16-.225-.16-.46v-2.933c0-.057-.011-.1-.033-.128-.021-.029-.071-.054-.15-.075-.164-.05-.39-.09-.68-.118a8.657 8.657 0 0 0-.85-.043c-.942 0-1.657.234-2.146.701-.49.468-.734 1.122-.734 1.964v.214c0 .386.058.718.172.996.114.278.27.506.465.685.197.178.427.308.69.39.265.083.547.124.846.124h.14c.25 0 .494-.038.733-.113.239-.075.43-.184.572-.326.122.214.3.367.536.46.235.093.538.14.91.14h.492Zm-3.083-1.488h-.16c-.329 0-.571-.085-.728-.257-.157-.17-.236-.46-.236-.867v-.15c0-.413.121-.722.364-.925.243-.204.582-.305 1.017-.305.064 0 .155.002.273.005.118.004.198.009.24.016v2.002a.392.392 0 0 1-.203.364c-.135.078-.324.117-.567.117Zm-6.394-6.7c.114 0 .171-.043.171-.128v-.321c0-.072-.057-.108-.171-.108h-.75a.404.404 0 0 1-.16-.187.723.723 0 0 1-.064-.316c0-.157.043-.267.128-.331.086-.065.221-.097.407-.097h.375c.092 0 .139-.035.139-.107v-.289c0-.057-.04-.093-.118-.107a1.122 1.122 0 0 0-.273-.053 3.281 3.281 0 0 0-.23-.011c-.714 0-1.07.3-1.07.9 0 .106.014.213.042.32a.965.965 0 0 0 .129.29h-.204c-.114 0-.17.035-.17.106v.31c0 .086.056.129.17.129h1.649Zm-.278 8.188a.193.193 0 0 0 .155-.07.234.234 0 0 0 .059-.155V97.05a.215.215 0 0 0-.06-.15.2.2 0 0 0-.154-.064h-.964a.2.2 0 0 0-.155.065.215.215 0 0 0-.059.15v6.967c0 .057.02.11.059.156.04.046.09.07.155.07h.964Zm-4.839 0c.143 0 .3-.002.471-.005a10.902 10.902 0 0 0 .937-.06c.132-.013.237-.031.316-.053a.373.373 0 0 0 .176-.128.524.524 0 0 0 .07-.182 7.94 7.94 0 0 0 .037-.755c.004-.31.006-.694.006-1.15v-.996a56.585 56.585 0 0 0-.021-1.102.256.256 0 0 0-.065-.145c-.036-.039-.093-.058-.171-.058h-.9a.21.21 0 0 0-.155.058.196.196 0 0 0-.059.145c.015.514.022.992.022 1.434v1.274c0 .171-.029.273-.086.305-.057.032-.171.048-.342.048h-.675a.773.773 0 0 0-.235.038c-.079.025-.118.055-.118.09v1.114c0 .042.04.075.118.096a.892.892 0 0 0 .235.032h.44Zm.942 2.259a.277.277 0 0 0 .188-.07c.053-.046.08-.098.08-.155v-.857a.223.223 0 0 0-.08-.176.277.277 0 0 0-.188-.07h-.824a.245.245 0 0 0-.171.07.23.23 0 0 0-.075.176v.857c0 .057.025.109.075.155.05.046.107.07.171.07h.824Zm-1.306-2.259v-1.37h-2.376a.773.773 0 0 0-.235.038c-.079.025-.118.055-.118.09v1.114c0 .042.039.075.118.096a.892.892 0 0 0 .235.032h2.376Zm-6.015 2.548c.364 0 .706-.033 1.027-.097a2.35 2.35 0 0 0 .846-.337c.242-.16.44-.382.594-.664.153-.281.248-.644.284-1.086v-.364h.963v-1.37h-.942v-3.457c0-.057-.013-.098-.038-.123a.456.456 0 0 0-.144-.08 1.824 1.824 0 0 0-.3-.075 5.351 5.351 0 0 0-.396-.054c-.142-.014-.29-.027-.444-.037a6.246 6.246 0 0 0-.434-.016c-.92 0-1.628.23-2.124.69-.496.46-.744 1.111-.744 1.953v.214c0 .778.22 1.365.658 1.761.439.396 1.047.594 1.825.594h.782v.321c0 .207-.036.375-.107.503a.754.754 0 0 1-.327.305 1.663 1.663 0 0 1-.535.156c-.21.028-.455.042-.733.042h-.974c-.129 0-.193.061-.193.182v.782c0 .057.01.101.032.133.021.033.068.056.14.07a.957.957 0 0 0 .235.027c.114.003.239.009.374.016.136.007.266.01.39.01h.285Zm1.434-3.875h-.803c-.4 0-.688-.098-.867-.294-.178-.197-.267-.498-.267-.905v-.139c0-.414.112-.735.337-.963.224-.229.54-.343.947-.343.228 0 .446.01.653.032v2.612Zm-6.99 1.327c.25 0 .507-.003.77-.01.265-.008.511-.013.74-.017a4.42 4.42 0 0 0 .492-.026c.114-.015.196-.052.246-.113a.446.446 0 0 0 .096-.198c.05-.214.088-.469.113-.765.025-.296.037-.562.037-.797v-.44c0-.527-.071-.975-.214-1.343a2.198 2.198 0 0 0-.605-.888 2.368 2.368 0 0 0-.947-.487c-.371-.1-.785-.15-1.242-.15a8.84 8.84 0 0 0-.47.016 5.06 5.06 0 0 0-.616.075c-.218.04-.437.098-.658.177a2.585 2.585 0 0 0-.61.31v-3.264a.218.218 0 0 0-.065-.16.205.205 0 0 0-.15-.065h-.974a.188.188 0 0 0-.144.064.229.229 0 0 0-.06.16v6.551h-1.209a.773.773 0 0 0-.235.038c-.079.025-.118.055-.118.09v1.114c0 .042.04.075.118.096a.892.892 0 0 0 .235.032h5.47Zm-.203-6.315a.24.24 0 0 0 .246-.235v-.835a.24.24 0 0 0-.236-.246h-.845a.258.258 0 0 0-.182.07.23.23 0 0 0-.075.176v.835c0 .064.023.12.07.166.046.046.108.07.187.07h.835Zm1.113 4.977h-2.597c-.235 0-.444-.002-.625-.005a21.458 21.458 0 0 1-.557-.016v-2.109c.136-.1.293-.18.471-.24.179-.061.363-.108.552-.14.189-.032.369-.053.54-.064.172-.01.318-.016.44-.016.349 0 .65.029.904.086.253.057.462.153.626.289.164.135.285.312.364.53.078.217.118.49.118.818v.16c0 .293-.017.484-.049.573-.032.09-.094.134-.187.134Zm-6.305 1.338v-1.37h-2.376a.773.773 0 0 0-.236.038c-.078.025-.117.055-.117.09v1.114c0 .042.039.075.117.096a.892.892 0 0 0 .236.032h2.376Zm-5.427 0c.114 0 .238-.005.37-.016.132-.01.264-.03.396-.059.132-.028.258-.066.38-.112.121-.047.232-.105.331-.177.186.15.418.248.696.295.279.046.553.07.824.07h.129v-1.37h-.257a3.42 3.42 0 0 1-.177-.006 1.454 1.454 0 0 1-.208-.027.94.94 0 0 1-.193-.059.247.247 0 0 1-.118-.09v-2.848a.196.196 0 0 0-.059-.144.196.196 0 0 0-.144-.06h-.931a.21.21 0 0 0-.156.06.196.196 0 0 0-.058.144v2.665c0 .086-.022.152-.065.198a.432.432 0 0 1-.155.107.7.7 0 0 1-.198.048c-.071.008-.14.011-.203.011h-.493a.773.773 0 0 0-.235.038c-.079.025-.118.055-.118.09v1.114c0 .042.04.075.118.096a.892.892 0 0 0 .235.032h.29Zm1.852 2.259a.277.277 0 0 0 .187-.07c.054-.046.08-.098.08-.155v-.857a.223.223 0 0 0-.08-.176.277.277 0 0 0-.187-.07h-.824a.245.245 0 0 0-.171.07.23.23 0 0 0-.075.176v.857c0 .057.025.109.075.155.05.046.107.07.17.07h.825Zm-8.585-.44c.393 0 .773-.014 1.14-.042a11.58 11.58 0 0 0 1.001-.118c.157-.028.236-.107.236-.235a36.583 36.583 0 0 0 .043-1.68v-1.767c0-.47.103-.797.31-.98.207-.181.514-.272.92-.272.1 0 .186.003.257.01.072.008.161.018.268.033v1.883c0 .279.032.505.096.68a.918.918 0 0 0 .284.412c.125.1.28.168.466.204.185.035.403.053.653.053h.845v-1.37h-.492c-.186 0-.314-.023-.386-.07-.07-.046-.107-.148-.107-.305v-2.43c0-.07-.016-.12-.048-.149a.313.313 0 0 0-.134-.064 8.235 8.235 0 0 0-.695-.097 8.284 8.284 0 0 0-.846-.042c-.885 0-1.565.192-2.04.578-.474.385-.71.984-.71 1.798v1.338c0 .121-.003.242-.006.364l-.01.39-.017.477c-.15.021-.305.037-.466.048-.16.01-.337.016-.53.016-.478 0-.86-.066-1.145-.198a1.505 1.505 0 0 1-.653-.546 2.043 2.043 0 0 1-.294-.824 7.162 7.162 0 0 1-.07-1.033c0-.1.006-.23.016-.39.011-.161.024-.32.038-.477.014-.136-.047-.203-.182-.203h-.824c-.122 0-.193.07-.214.214a7.353 7.353 0 0 0-.102.76c-.01.128-.02.25-.027.363-.007.115-.01.21-.01.29 0 .556.064 1.045.192 1.466.129.42.33.772.605 1.054.275.282.63.496 1.065.642.435.147.96.22 1.573.22Zm-1.07 1.938a.263.263 0 0 0 .166-.064c.053-.043.08-.093.08-.15v-.76a.199.199 0 0 0-.075-.166.27.27 0 0 0-.171-.059h-.717a.27.27 0 0 0-.171.06.199.199 0 0 0-.075.165v.76c0 .057.025.107.075.15.05.043.107.064.17.064h.718Zm1.991 0c.057 0 .11-.021.16-.064a.193.193 0 0 0 .075-.15v-.76a.199.199 0 0 0-.074-.166.255.255 0 0 0-.161-.059h-.728c-.057 0-.11.02-.16.06a.199.199 0 0 0-.075.165v.76c0 .057.025.107.075.15.05.043.103.064.16.064h.728Zm-8.492-3.757a.193.193 0 0 0 .155-.07.234.234 0 0 0 .059-.155v-7.706a.215.215 0 0 0-.06-.15.2.2 0 0 0-.154-.064h-.964a.2.2 0 0 0-.155.064.215.215 0 0 0-.059.15v7.706c0 .057.02.11.06.156.038.046.09.07.154.07h.964Zm-4.892 0c.143 0 .301-.002.476-.005a11.389 11.389 0 0 0 .964-.06 2.13 2.13 0 0 0 .326-.053.373.373 0 0 0 .177-.128.524.524 0 0 0 .07-.182c.02-.193.035-.405.042-.637.007-.232.01-.444.01-.637v-6.218a.229.229 0 0 0-.058-.16.188.188 0 0 0-.145-.065h-.974a.205.205 0 0 0-.15.064.218.218 0 0 0-.064.16v6.198c0 .171-.027.273-.08.305-.054.032-.166.048-.337.048h-.728a.773.773 0 0 0-.236.038c-.078.025-.117.055-.117.09v1.114c0 .042.039.075.117.096a.892.892 0 0 0 .236.032h.47Zm-.396 0v-1.37h-2.376a.773.773 0 0 0-.236.038c-.078.025-.118.055-.118.09v1.114c0 .042.04.075.118.096a.892.892 0 0 0 .236.032h2.376Zm-4.57-5.79a.284.284 0 0 0 .181-.07.208.208 0 0 0 .086-.166v-.835a.223.223 0 0 0-.08-.176.277.277 0 0 0-.188-.07h-.738a.258.258 0 0 0-.182.07.23.23 0 0 0-.075.176v.835c0 .064.025.12.075.166.05.046.11.07.182.07h.738Zm1.99 0a.24.24 0 0 0 .246-.236v-.835a.24.24 0 0 0-.246-.246h-.75a.264.264 0 0 0-.176.07.223.223 0 0 0-.08.176v.835c0 .064.027.12.08.166.054.046.113.07.177.07h.75Zm-2.847 5.79c.114 0 .237-.005.37-.016.131-.01.263-.03.395-.059.132-.028.259-.066.38-.112.122-.047.232-.105.332-.177.186.15.417.248.696.295.278.046.553.07.824.07h.128v-1.37h-.256a3.42 3.42 0 0 1-.177-.006 1.454 1.454 0 0 1-.209-.027.94.94 0 0 1-.192-.059.247.247 0 0 1-.118-.09v-2.848a.196.196 0 0 0-.06-.144.196.196 0 0 0-.144-.06h-.93a.21.21 0 0 0-.156.06.196.196 0 0 0-.059.144v2.665c0 .086-.021.152-.064.198a.432.432 0 0 1-.155.107.7.7 0 0 1-.198.048c-.072.008-.14.011-.204.011h-.492a.773.773 0 0 0-.236.038c-.078.025-.117.055-.117.09v1.114c0 .042.039.075.117.096a.892.892 0 0 0 .236.032h.289Zm-.214 0v-1.37h-.107a.268.268 0 0 1-.14-.032.35.35 0 0 1-.106-.118.71.71 0 0 1-.075-.15 8.459 8.459 0 0 0-.097-.23l-.107-.246a4.515 4.515 0 0 1-.085-.209l-.14-.3a5.895 5.895 0 0 0-.695-1.214 3.486 3.486 0 0 0-.814-.781 2.93 2.93 0 0 0-.942-.418 4.588 4.588 0 0 0-1.092-.123c-.185 0-.362.007-.53.021-.167.015-.34.04-.519.075-.142.029-.214.097-.214.204v.792c0 .128.075.185.225.171a11.375 11.375 0 0 1 .578-.021c.678 0 1.213.13 1.606.39.392.26.692.62.899 1.076l.214.45.289.663h-4.55a.773.773 0 0 0-.235.038c-.078.025-.118.055-.118.09v1.114c0 .028.038.057.113.085a.67.67 0 0 0 .24.043h6.402Zm-3.19 2.259a.277.277 0 0 0 .187-.07c.054-.046.08-.098.08-.155v-.857a.223.223 0 0 0-.08-.176.277.277 0 0 0-.187-.07h-.824a.245.245 0 0 0-.172.07.23.23 0 0 0-.074.176v.857c0 .057.025.109.074.155.05.046.108.07.172.07h.824Zm-3.136-2.259v-1.37h-2.377a.773.773 0 0 0-.235.038c-.079.025-.118.055-.118.09v1.114c0 .042.04.075.118.096a.892.892 0 0 0 .235.032h2.377Zm-2.302 0v-1.37h-.353c-.2 0-.35-.03-.45-.09-.1-.062-.15-.213-.15-.456v-6.015a.227.227 0 0 0-.053-.15c-.036-.043-.09-.064-.16-.064h-.953a.218.218 0 0 0-.16.064.205.205 0 0 0-.065.15v6.422c0 .314.038.569.112.765.075.196.182.35.322.46.139.111.306.186.503.225.196.04.415.06.658.06h.75Zm-5.951 2.548c.45 0 .817-.063 1.102-.188.286-.125.51-.34.675-.647.107-.207.174-.436.203-.685.029-.25.043-.51.043-.782v-4.645a.196.196 0 0 0-.059-.144.196.196 0 0 0-.145-.06h-.93a.21.21 0 0 0-.156.06.196.196 0 0 0-.059.144v4.806c0 .221-.02.394-.059.519a.546.546 0 0 1-.187.284.702.702 0 0 1-.337.123c-.14.018-.309.026-.509.026h-.224c-.122 0-.182.054-.182.161v.792c0 .114.05.182.15.203.092.015.213.024.363.027.15.004.254.006.31.006Zm-6.797-.728c.385 0 .763-.015 1.134-.043a11.55 11.55 0 0 0 1.006-.118c.157-.028.236-.107.236-.235a36.582 36.582 0 0 0 .043-1.68v-1.767c0-.47.103-.797.31-.98.207-.181.514-.272.92-.272.1 0 .188.003.263.01.075.008.177.018.305.033v3.007c0 .065.02.118.059.16.04.044.087.065.144.065h.942a.2.2 0 0 0 .156-.064.229.229 0 0 0 .059-.16v-3.95c0-.072-.017-.121-.049-.15a.313.313 0 0 0-.133-.064c-.2-.043-.441-.077-.723-.102a9.059 9.059 0 0 0-.797-.037c-.921 0-1.62.19-2.098.572-.479.382-.718.983-.718 1.804v1.338c0 .121-.001.242-.005.364l-.01.39-.017.477c-.15.021-.305.037-.465.048-.16.01-.338.016-.53.016-.478 0-.86-.066-1.146-.198a1.505 1.505 0 0 1-.653-.546 2.043 2.043 0 0 1-.294-.824 7.162 7.162 0 0 1-.07-1.033c0-.1.008-.23.022-.39l.043-.477c0-.136-.06-.203-.182-.203h-.824c-.079 0-.132.016-.161.048a.348.348 0 0 0-.064.166 15.3 15.3 0 0 0-.064.369 5.072 5.072 0 0 0-.049.39c-.01.129-.02.25-.026.364-.007.115-.011.21-.011.29 0 .556.064 1.045.193 1.466.128.42.331.772.61 1.054a2.67 2.67 0 0 0 1.07.642c.435.147.96.22 1.574.22ZM71.774 108a.256.256 0 0 0 .17-.064.193.193 0 0 0 .076-.15v-.76a.205.205 0 0 0-.07-.166.264.264 0 0 0-.176-.059h-.707c-.071 0-.13.02-.177.06a.205.205 0 0 0-.07.165v.76c0 .057.024.107.07.15a.25.25 0 0 0 .177.064h.707Zm2.001 0c.057 0 .11-.021.16-.064a.193.193 0 0 0 .076-.15v-.76a.199.199 0 0 0-.075-.166.255.255 0 0 0-.16-.059h-.729a.27.27 0 0 0-.17.06.199.199 0 0 0-.076.165v.76c0 .057.025.107.075.15.05.043.107.064.171.064h.728Zm-10.29-3.757c.142 0 .301-.002.476-.005a11.389 11.389 0 0 0 .963-.06 2.13 2.13 0 0 0 .327-.053.373.373 0 0 0 .176-.128.524.524 0 0 0 .07-.182c.021-.193.036-.405.043-.637.007-.232.01-.444.01-.637v-6.218a.229.229 0 0 0-.058-.16.188.188 0 0 0-.145-.065h-.974a.205.205 0 0 0-.15.064.218.218 0 0 0-.064.16v6.198c0 .171-.027.273-.08.305-.054.032-.166.048-.337.048h-.728a.773.773 0 0 0-.236.038c-.078.025-.118.055-.118.09v1.114c0 .042.04.075.118.096a.892.892 0 0 0 .236.032h.47Zm-3.511 0c.114 0 .237-.005.369-.016.132-.01.264-.03.396-.059.132-.028.259-.066.38-.112.121-.047.232-.105.332-.177a1.4 1.4 0 0 0 .685.295c.278.046.553.07.824.07h.129v-1.37h-.268c-.1 0-.225-.012-.375-.033s-.253-.071-.31-.15v-6.368a.242.242 0 0 0-.054-.16.184.184 0 0 0-.15-.065h-.974a.205.205 0 0 0-.15.064.218.218 0 0 0-.064.16v6.187c0 .086-.02.152-.058.198a.384.384 0 0 1-.15.107.7.7 0 0 1-.198.048c-.072.008-.14.011-.204.011H59.6a.773.773 0 0 0-.235.038c-.079.025-.118.055-.118.09v1.114c0 .042.039.075.118.096a.892.892 0 0 0 .235.032h.375Zm-.3 0v-1.37h-2.376a.773.773 0 0 0-.236.038c-.078.025-.118.055-.118.09v1.114c0 .042.04.075.118.096a.892.892 0 0 0 .236.032h2.376Zm-2.301 0v-1.37h-1.328a.907.907 0 0 0 .23-.267c.068-.115.125-.241.172-.38a2.85 2.85 0 0 0 .144-.873v-.235c0-.393-.066-.726-.198-1.001a1.722 1.722 0 0 0-.546-.664 2.286 2.286 0 0 0-.819-.364 4.375 4.375 0 0 0-2.301.091c-.207.065-.403.14-.589.225a2.414 2.414 0 0 0-.47.278 1.468 1.468 0 0 0-.15.15.284.284 0 0 0-.065.15l-.021.546a.482.482 0 0 0 0 .145c.007.06.021.108.043.144l.802 2.055H50.79a.773.773 0 0 0-.236.038c-.078.025-.118.055-.118.09v1.114c0 .042.04.075.118.096a.892.892 0 0 0 .236.032h6.583Zm-3.105-1.338h-.535l-.952-2.408c.206-.136.422-.221.647-.257.225-.036.42-.053.583-.053.393 0 .696.09.91.272.214.182.321.47.321.862v.096c0 .179-.02.352-.058.52-.04.167-.1.317-.182.45a1.254 1.254 0 0 1-.305.336.965.965 0 0 1-.429.182Zm-3.404 1.338v-1.37h-2.376a.773.773 0 0 0-.235.038c-.079.025-.118.055-.118.09v1.114c0 .042.04.075.118.096a.892.892 0 0 0 .235.032h2.376Zm-6.069-6.315a.284.284 0 0 0 .182-.07.208.208 0 0 0 .086-.165v-.835a.223.223 0 0 0-.08-.177.277.277 0 0 0-.188-.07h-.738a.258.258 0 0 0-.182.07.23.23 0 0 0-.075.177v.835c0 .064.025.12.075.166.05.046.11.07.182.07h.738Zm1.991 0a.24.24 0 0 0 .246-.235v-.835a.24.24 0 0 0-.246-.246h-.75a.264.264 0 0 0-.176.07.223.223 0 0 0-.08.176v.835c0 .064.027.12.08.166.054.046.113.07.177.07h.75Zm1.777 6.315v-1.37h-.931v-3.521a.24.24 0 0 0-.032-.134c-.022-.032-.072-.059-.15-.08a5.09 5.09 0 0 0-.343-.065 10.74 10.74 0 0 0-.433-.058 6.612 6.612 0 0 0-.477-.038 10.86 10.86 0 0 0-.47-.01c-.414 0-.79.051-1.13.155-.339.103-.63.255-.872.454-.243.2-.43.45-.562.75-.132.3-.198.645-.198 1.038v.203c0 .307.037.57.112.787.075.218.18.39.316.52h-1.188a.773.773 0 0 0-.236.037c-.078.025-.117.055-.117.09v1.114c0 .042.039.075.117.096a.892.892 0 0 0 .236.032h6.358Zm-2.28-1.327h-.813c-.407 0-.702-.11-.883-.332-.182-.221-.273-.542-.273-.963v-.193c0-.828.424-1.241 1.273-1.241.25 0 .482.01.696.032v2.697Zm-4.003 1.327v-1.37h-2.377a.773.773 0 0 0-.235.038c-.079.025-.118.055-.118.09v1.114c0 .042.04.075.118.096a.892.892 0 0 0 .235.032h2.377Zm-2.302 0v-1.37h-.353c-.2 0-.35-.03-.45-.09-.1-.062-.15-.213-.15-.456v-6.015a.227.227 0 0 0-.053-.15c-.035-.043-.089-.064-.16-.064h-.953a.218.218 0 0 0-.16.064.205.205 0 0 0-.065.15v6.422c0 .314.038.569.113.765.075.196.182.35.32.46.14.111.308.186.504.225.196.04.415.06.658.06h.75Zm-5.833 2.548c.406 0 .749-.06 1.027-.177.279-.118.493-.33.642-.637.115-.214.184-.448.21-.701.024-.253.037-.516.037-.787v-4.645A.196.196 0 0 0 36 99.7a.196.196 0 0 0-.144-.06h-.93a.215.215 0 0 0-.15.06.188.188 0 0 0-.065.144v4.806c0 .221-.02.394-.059.519a.6.6 0 0 1-.171.284.558.558 0 0 1-.284.123 2.593 2.593 0 0 1-.396.026h-.214c-.136 0-.203.058-.203.172v.781c0 .114.06.182.182.203.078.015.182.024.31.027.128.004.218.006.268.006Zm-1.692-2.548a.193.193 0 0 0 .156-.07.234.234 0 0 0 .058-.155v-7.706a.215.215 0 0 0-.058-.15.2.2 0 0 0-.156-.064h-.963a.2.2 0 0 0-.155.064.215.215 0 0 0-.06.15v7.706c0 .057.02.11.06.156.04.046.09.07.155.07h.963Zm-7.739-5.245a.284.284 0 0 0 .182-.07.208.208 0 0 0 .086-.165v-.835a.223.223 0 0 0-.08-.176.277.277 0 0 0-.188-.07h-.738a.258.258 0 0 0-.182.07.23.23 0 0 0-.075.176v.835c0 .064.025.12.075.166.05.046.11.07.182.07h.738Zm1.991 0a.24.24 0 0 0 .246-.235v-.835a.24.24 0 0 0-.246-.246h-.749a.264.264 0 0 0-.177.07.223.223 0 0 0-.08.176v.835c0 .064.027.12.08.166.054.046.113.07.177.07h.75Zm.312 5.245c.177 0 .371-.002.582-.005a22.702 22.702 0 0 0 1.343-.06c.186-.013.318-.031.397-.053.085-.035.142-.078.17-.128.03-.05.05-.11.065-.182.021-.193.036-.444.043-.755.007-.31.01-.694.01-1.15v-.52c0-.153-.001-.306-.005-.46l-.01-.487a29.223 29.223 0 0 1-.006-.599.196.196 0 0 0-.059-.144c-.039-.04-.098-.06-.176-.06h-.889a.196.196 0 0 0-.144.06.196.196 0 0 0-.06.144c.008.514.01.987.006 1.418-.003.432-.005.851-.005 1.258 0 .171-.029.273-.086.305-.057.032-.171.048-.342.048h-3.19c-.493 0-.894-.043-1.204-.128-.31-.086-.552-.21-.723-.375a1.28 1.28 0 0 1-.353-.615 3.385 3.385 0 0 1-.097-.851c0-.2.011-.45.033-.75.014-.142-.047-.214-.182-.214h-.803c-.079 0-.132.016-.16.049a.348.348 0 0 0-.065.165c-.071.421-.107.8-.107 1.135 0 .464.054.878.16 1.242.108.363.295.672.563.925.267.254.631.448 1.091.584.46.135 1.048.203 1.761.203h2.442Z" id="شـركـةأبـوظـبيالـتجـاريللـعـقـارات" fill="#FFF" fill-rule="nonzero"/><path d="m28.818 84.252 3.613-9.285h20.332l3.613 9.285h5.818L45.78 42.686h-6.307L23 84.252h5.818Zm22.475-13.835H33.962l8.635-22.434 8.696 22.434Zm30.191 13.835c12.738 0 20.945-8.911 20.945-20.752 0-11.778-8.207-20.814-20.945-20.814H67.522v41.566h13.962Zm0-4.611h-8.88V47.297h8.88c10.105 0 15.678 7.23 15.678 16.203 0 8.912-5.757 16.14-15.678 16.14ZM129.742 85c7.226 0 12.125-3.49 15.555-8.288l-4.287-2.369c-2.327 3.49-6.614 6.045-11.268 6.045-8.941 0-15.739-7.042-15.739-16.888 0-9.971 6.798-16.888 15.739-16.888 4.654 0 8.94 2.492 11.268 6.045l4.226-2.43C141.99 45.49 136.968 42 129.742 42c-11.758 0-21.006 8.725-21.006 21.5S117.984 85 129.742 85Zm27.13-.748V67.738H168.2c8.145 0 12.799-5.734 12.799-12.526 0-6.793-4.593-12.526-12.8-12.526h-16.412v41.566h5.083Zm10.716-21.126h-10.717V47.297h10.717c4.838 0 8.145 3.24 8.145 7.915 0 4.674-3.307 7.914-8.145 7.914Z" id="ADCP-Copy" fill="#FFF" fill-rule="nonzero"/></g></g></g></svg>