<svg xmlns="http://www.w3.org/2000/svg" width="606" height="385" viewBox="0 0 606 385" fill="none">
<g clip-path="url(#clip0_603_809)">
<path d="M141.22 286H81.6C78.6 285.51 77.91 282.49 77.76 281.13V265.63C78.06 261.84 80.71 261.19 80.71 261.19C78.8782 260.814 76.9835 260.876 75.18 261.37C74.88 261.47 74.54 261.61 74.18 261.74C73.7119 261.959 73.2664 262.224 72.85 262.53C71.733 263.327 70.9328 264.492 70.59 265.82V266.73L70.8 272.73C70.85 273.32 70.85 273.89 70.86 274.46V278.39C70.86 278.92 70.86 279.46 70.8 279.99C70.8 286.62 67.47 285.99 67.47 285.99H58.16C54.61 285.99 52.35 282.48 52.35 282.48C51.6045 281.285 51.2546 279.885 51.35 278.48C51.3299 276.771 51.6353 275.074 52.25 273.48C52.8186 272.081 53.6657 270.812 54.74 269.75C55.4529 269.061 56.2612 268.479 57.14 268.02C57.2813 267.975 57.4159 267.911 57.54 267.83L58.12 267.61C58.4031 267.485 58.6936 267.379 58.99 267.29H59.04L59.57 267.11C60.33 266.91 62.19 266.74 62.89 266.58C63.19 266.53 63.49 266.5 63.8 266.46V266.41C65.3383 266.237 66.7744 265.554 67.88 264.47C68.3006 264.03 68.6392 263.519 68.88 262.96C69.0097 262.718 69.1136 262.464 69.19 262.2C69.1981 262.167 69.1981 262.133 69.19 262.1C69.3555 261.446 69.4427 260.775 69.45 260.1C69.45 260.1 68.77 262.84 64.86 262.96H62.25C60.5225 263.038 58.8039 263.252 57.11 263.6C54.8928 264.055 52.7778 264.912 50.87 266.13C48.9677 267.325 47.3745 268.953 46.22 270.88C44.9623 273.091 44.3427 275.608 44.43 278.15C44.43 282.59 45.8 285.87 48.43 287.92C50.7659 289.561 53.4745 290.592 56.31 290.92C61.0365 291.242 65.7774 291.295 70.51 291.08H70.82V291.53C70.82 300.12 63.32 300.87 63.32 300.87C55.44 301.54 50.71 293.39 50.71 293.39C47.16 288.64 42.89 291.94 42.89 291.94C43.3131 291.713 43.7785 291.577 44.257 291.539C44.7354 291.501 45.2166 291.562 45.6702 291.719C46.1238 291.876 46.5401 292.125 46.8928 292.45C47.2456 292.776 47.5272 293.17 47.72 293.61C48.65 295.31 51.8 299.86 51.8 299.86C59.9 310.26 70.52 305.37 70.52 305.37C78.01 302.21 77.73 293.8 77.73 293.8V291.19H84.18L149.12 291.29" fill="#454545"/>
<path d="M37.82 301.35H37.93V301.3C37.93 301.35 37.87 301.35 37.87 301.35M32.06 292.48C32.06 293.251 31.9727 294.019 31.8 294.77C31.5708 295.633 31.2171 296.459 30.75 297.22C28.94 300.04 25.59 301.22 22.64 301.68C20.7375 301.999 18.803 302.083 16.88 301.93L10.88 301.81C9.7222 301.643 8.62137 301.201 7.67 300.52C2.1 295.52 4.17 286.38 4.17 286.38C4.84 280.48 0 279.9 0 279.9C2.11 280.81 2.55 282.59 2.1 284.48C1.65 286.37 0.83 291.77 0.83 291.77C-0.48 304.89 9.51 307.67 9.51 307.67C9.51 307.67 10.51 308.36 16.36 308.36H21.5C21.5 308.36 21.93 308.36 22.64 308.28C25.11 308.05 31.08 307.07 34.9 303.37C35.7385 302.568 36.447 301.64 37 300.62C37.9046 298.886 38.3715 296.956 38.36 295V291L38.42 238.52C38.67 234.72 41.14 234.08 41.14 234.08C39.4542 233.692 37.6962 233.751 36.04 234.25C35.7308 234.346 35.4298 234.466 35.14 234.61C34.6987 234.82 34.2882 235.089 33.92 235.41C32.8648 236.222 32.1285 237.38 31.84 238.68V239.38C31.833 239.443 31.833 239.507 31.84 239.57L32.03 245.57C32.03 246.13 32.03 246.71 32.03 247.26L32.06 292.48Z" fill="#454545"/>
<path d="M522.56 287.82C522.25 285.24 522.25 280.32 522.25 274.41V243.57C522.25 243.57 522.25 234.35 512.84 234.35L509.76 234.3C510.54 234.275 511.319 234.37 512.07 234.58C513.45 235.03 514.07 235.76 514.25 237.84C514.43 239.92 514.32 254.31 514.32 263.61V281.4C514.32 281.4 514.89 290.58 524.32 290.58L525.69 290.73C524.907 290.717 524.155 290.418 523.576 289.89C522.998 289.361 522.633 288.639 522.55 287.86" fill="#454545"/>
<path d="M601.86 284.6V284.74V284.56M601.86 263.89C602 262.02 602.6 261.36 603.86 260.97C604.545 260.786 605.251 260.699 605.96 260.71L603.18 260.78C594.6 260.78 594.66 269.1 594.66 269.1V281.58C594.84 285.4 595.46 285.94 595.66 285.98H565C562 285.49 561.3 282.45 561.16 281.11V265.63C561.45 261.84 564.1 261.17 564.1 261.17C562.267 260.806 560.374 260.871 558.57 261.36C558.26 261.47 557.93 261.61 557.57 261.74C557.099 261.949 556.656 262.214 556.25 262.53C555.134 263.317 554.336 264.476 554 265.8V266.54C554.008 266.603 554.008 266.667 554 266.73L554.23 272.73C554.23 273.31 554.23 273.88 554.23 274.44V278.39C554.23 278.92 554.23 279.46 554.23 279.99C554.23 286.59 550.85 285.99 550.85 285.99H541.55C538.01 285.99 535.76 282.48 535.76 282.48C535.009 281.287 534.659 279.886 534.76 278.48C534.727 276.749 535.039 275.029 535.68 273.42C536.26 272.044 537.099 270.791 538.15 269.73C538.869 269.04 539.684 268.457 540.57 268L540.97 267.81C541.449 267.639 541.926 267.463 542.4 267.28C542.409 267.276 542.42 267.273 542.43 267.273C542.44 267.273 542.451 267.276 542.46 267.28L543 267C543.75 266.8 545.6 266.63 546.3 266.47C546.608 266.414 546.918 266.374 547.23 266.35L547.16 266.28C548.706 266.122 550.153 265.441 551.26 264.35C551.666 263.899 552.003 263.39 552.26 262.84L552.59 262.06V262C552.77 261.348 552.864 260.676 552.87 260C552.87 260 552.15 262.72 548.24 262.86H547.17L545.74 262.92H545.66C543.932 262.991 542.213 263.205 540.52 263.56C538.31 263.996 536.203 264.848 534.31 266.07C532.403 267.275 530.804 268.908 529.64 270.84C528.394 273.055 527.778 275.57 527.86 278.11C527.86 282.55 529.21 285.82 531.93 287.86C534.258 289.494 536.955 290.525 539.78 290.86C544.51 291.18 549.255 291.223 553.99 290.99H554.3V291.46C554.3 300.04 546.8 300.79 546.8 300.79C538.92 301.45 534.19 293.33 534.19 293.33C530.65 288.56 526.37 291.86 526.37 291.86C526.795 291.637 527.261 291.503 527.74 291.467C528.219 291.431 528.7 291.494 529.154 291.651C529.608 291.808 530.024 292.057 530.378 292.382C530.732 292.707 531.015 293.101 531.21 293.54C532.21 295.22 535.3 299.78 535.3 299.78C543.4 310.19 554.01 305.28 554.01 305.28C561.5 302.13 561.21 293.73 561.21 293.73V291.12C561.386 291.135 561.564 291.135 561.74 291.12H563.98L567.64 291.05L603.75 291.18C602.02 291.18 601.87 285.72 601.89 283.04V275.68C601.89 267.26 601.89 265.68 601.96 263.91" fill="#454545"/>
<path d="M596.65 295.98L600.92 300.25L596.65 304.51L592.41 300.25L596.65 295.98Z" fill="#454545"/>
<path d="M509.22 263.89C509.35 262.02 509.93 261.36 511.22 260.97C511.901 260.787 512.605 260.699 513.31 260.71L510.49 260.78C501.97 260.78 501.98 269.1 501.98 269.1V280.2C502.09 285.3 502.81 285.93 503.09 285.98H454.7C451.7 285.49 451.04 282.45 450.89 281.11V265.63C451.17 261.84 453.84 261.17 453.84 261.17C452.007 260.806 450.114 260.871 448.31 261.36L447.31 261.74C446.847 261.951 446.411 262.216 446.01 262.53C444.875 263.302 444.066 264.467 443.74 265.8V266.54C443.736 266.603 443.736 266.667 443.74 266.73L443.97 272.73C443.97 273.31 443.97 273.88 443.97 274.44V278.39C443.97 278.92 443.97 279.46 443.97 279.99C443.97 286.59 439.16 285.99 439.16 285.99C430.27 286.36 428.26 285.25 428.26 285.25C426.985 284.581 425.924 283.565 425.2 282.32C424.436 281.171 424.061 279.808 424.13 278.43C424.106 276.699 424.422 274.98 425.06 273.37C425.618 271.984 426.456 270.728 427.52 269.68C428.239 268.985 429.058 268.402 429.95 267.95L430.36 267.76C430.826 267.581 431.293 267.405 431.76 267.23C431.76 267.23 431.76 267.23 431.83 267.23L432.36 267.05C433.14 266.85 433.91 266.68 434.61 266.52C434.911 266.464 435.215 266.424 435.52 266.4V266.33C437.057 266.169 438.493 265.488 439.59 264.4C439.978 263.945 440.298 263.437 440.54 262.89C440.672 262.641 440.779 262.38 440.86 262.11V262.05C441.033 261.397 441.12 260.725 441.12 260.05C441.12 260.05 440.4 262.77 436.55 262.91H435.47L434.03 262.97H433.93C432.215 263.04 430.509 263.254 428.83 263.61C426.604 264.046 424.481 264.898 422.57 266.12C420.672 267.328 419.08 268.961 417.92 270.89C416.656 273.099 416.036 275.617 416.13 278.16C416.13 282.6 417.5 285.87 420.19 287.91C422.528 289.546 425.236 290.577 428.07 290.91C428.07 290.91 432.44 291.18 438.21 291.17H438.28C438.53 291.17 439.19 291.17 440.14 291.17C442.815 291.061 445.399 290.167 447.57 288.6C448.339 289.787 449.535 290.632 450.91 290.96C451.649 291.122 452.404 291.192 453.16 291.17C453.243 291.177 453.327 291.177 453.41 291.17H455.64L499.21 291.1L510.97 291.23C509.24 291.23 509.09 285.77 509.11 283.09C509.104 283.017 509.104 282.943 509.11 282.87V275.73C509.11 267.31 509.11 265.73 509.19 263.96" fill="#454545"/>
<path d="M500.2 295.98L504.45 300.25L500.2 304.51L495.94 300.25L500.2 295.98Z" fill="#454545"/>
<path d="M437.82 252.7L442.06 248.43L446.31 252.7L442.06 256.95L437.82 252.7Z" fill="#454545"/>
<path d="M432.72 248.43L436.97 252.7L432.72 256.95L428.48 252.7L432.72 248.43Z" fill="#454545"/>
<path d="M236.4 252.7L240.66 248.43L244.89 252.7L240.66 256.95L236.4 252.7Z" fill="#454545"/>
<path d="M247.27 301.34C247.282 301.334 247.296 301.331 247.31 301.331C247.324 301.331 247.338 301.334 247.35 301.34C247.29 301.34 247.29 301.34 247.29 301.34M247.86 265.56C248.12 261.79 250.58 261.12 250.58 261.12C248.899 260.745 247.149 260.81 245.5 261.31C245.185 261.407 244.877 261.528 244.58 261.67C244.152 261.905 243.741 262.169 243.35 262.46C242.304 263.279 241.573 264.434 241.28 265.73V266.48C241.271 266.55 241.271 266.62 241.28 266.69L241.49 272.69C241.49 273.25 241.49 273.83 241.49 274.4V277.5H241.41V281C241.1 286.54 238.34 286 238.34 286L229.8 285.95C226.5 285.95 224.41 282.46 224.41 282.46C223.728 281.242 223.412 279.853 223.5 278.46C223.477 276.739 223.765 275.028 224.35 273.41C224.858 272.044 225.618 270.786 226.59 269.7C227.271 269.044 228.026 268.471 228.84 267.99C228.99 267.93 229.08 267.85 229.21 267.79C229.385 267.725 229.555 267.648 229.72 267.56C230 267.46 230.26 267.34 230.53 267.24L231.03 267.1C231.75 266.9 233.44 266.68 234.03 266.56C234.32 266.51 234.61 266.48 234.91 266.41C236.355 266.219 237.681 265.508 238.64 264.41C239.009 263.961 239.309 263.458 239.53 262.92C239.65 262.65 239.72 262.42 239.83 262.14V262.03C239.992 261.376 240.072 260.704 240.07 260.03C240.07 260.03 239.44 262.8 235.83 262.94C235.54 262.94 235.21 262.94 234.94 262.94H234.84C234.58 262.94 233.69 263 233.54 263H233.44C231.861 263.066 230.291 263.277 228.75 263.63C226.685 264.099 224.727 264.954 222.98 266.15C221.193 267.384 219.726 269.026 218.7 270.94C217.524 273.174 216.951 275.677 217.04 278.2C217.04 282.61 218.29 285.92 220.77 287.93C222.872 289.566 225.377 290.602 228.02 290.93C232.372 291.257 236.741 291.311 241.1 291.09H241.42V292.59C241.421 293.361 241.33 294.13 241.15 294.88C240.943 295.736 240.606 296.556 240.15 297.31C238.35 300.13 234.98 301.31 232.04 301.79C230.139 302.121 228.203 302.205 226.28 302.04L206.28 301.93C205.117 301.748 204.011 301.3 203.05 300.62C197.49 295.62 199.57 286.49 199.57 286.49C200.23 280.58 195.37 279.99 195.37 279.99C196.25 280.323 196.964 280.989 197.355 281.845C197.747 282.701 197.784 283.677 197.46 284.56C197 286.44 196.22 291.88 196.22 291.88C194.91 304.99 204.9 307.77 204.9 307.77C204.9 307.77 205.9 308.46 211.76 308.46H231L232.13 308.38C234.59 308.14 240.56 307.14 244.38 303.46C245.524 302.383 246.423 301.073 247.019 299.619C247.614 298.165 247.89 296.6 247.83 295.03V291L247.86 265.56Z" fill="#454545"/>
<path d="M231.32 248.43L235.57 252.7L231.32 256.95L227.07 252.7L231.32 248.43Z" fill="#454545"/>
<path d="M399.76 287.8C399.46 285.24 399.43 280.33 399.43 274.4V243.53C399.43 243.53 399.43 234.31 390.04 234.31H386.94C387.715 234.283 388.49 234.37 389.24 234.57C390.63 235.03 391.24 235.76 391.43 237.83C391.62 239.9 391.49 254.32 391.53 263.63V281.4C391.53 281.4 392.1 290.58 401.53 290.58L402.92 290.73C401.04 290.46 400 289.51 399.79 287.83M385.26 289.12C384.986 288.293 384.805 287.437 384.72 286.57C384.66 285.43 384.61 284.03 384.59 282.44V281.93C384.59 281.93 384.59 281.98 384.59 281.99V281.59C384.59 279.47 384.59 277.06 384.59 274.43V243.53C384.59 243.53 384.59 234.31 375.17 234.31H372.11C372.888 234.285 373.667 234.372 374.42 234.57C375.76 235.03 376.42 235.76 376.58 237.83C376.74 239.9 376.65 254.32 376.67 263.63V281.41C376.713 281.956 376.814 282.495 376.97 283.02C377.19 284.5 377.5 285.02 377.74 285.21C377.74 285.21 377.74 285.28 377.74 285.29H355.24V285.17C351.56 285.17 350.75 281.73 350.55 280.25V274.73C350.55 266.31 350.55 265.73 350.61 263.97C350.67 262.21 351.36 261.43 352.61 261.04C353.286 260.847 353.987 260.76 354.69 260.78H351.93C343.35 260.78 343.38 269.12 343.38 269.12V281C343.6 284.63 344.19 285.13 344.43 285.2H341.34C338.21 285.2 337.17 282.68 336.84 281.03V274.76C336.84 266.34 336.84 265.76 336.93 264C337.02 262.24 337.65 261.46 338.87 261.07C339.556 260.877 340.268 260.79 340.98 260.81H338.18C329.65 260.81 329.66 269.15 329.66 269.15V281C329.86 284.63 330.47 285.13 330.66 285.2H327.58C324.28 285.2 323.32 282.32 323.05 280.7V274.76C323.05 266.34 323.05 265.76 323.14 264C323.23 262.24 323.84 261.46 325.14 261.07C325.826 260.875 326.537 260.787 327.25 260.81H324.44C315.88 260.81 315.92 269.15 315.92 269.15V281C316.13 284.64 316.72 285.14 316.92 285.21H274.47C270.86 285.21 270.01 281.98 269.8 280.44V265.44C270.1 261.65 272.75 261.01 272.75 261.01C270.925 260.628 269.036 260.69 267.24 261.19C266.895 261.279 266.56 261.403 266.24 261.56C265.775 261.776 265.333 262.037 264.92 262.34C263.798 263.119 263.001 264.283 262.68 265.61L262.63 265.66V266.55L262.86 272.55C262.86 273.12 262.86 273.68 262.91 274.26V281.38C262.91 281.96 262.91 282.48 262.86 283.03V294.47C262.908 296.239 262.513 297.993 261.71 299.57C261.54 299.83 261.38 300.09 261.22 300.32C260.795 300.943 260.246 301.471 259.606 301.871C258.967 302.271 258.252 302.534 257.506 302.644C256.76 302.754 256 302.708 255.272 302.509C254.545 302.311 253.867 301.964 253.28 301.49C250.07 298.32 247.66 300.87 247.28 301.31C247.28 301.31 247.28 301.31 247.33 301.31C249.52 300.68 250.88 302.26 251.56 303.43C251.77 303.789 251.944 304.167 252.08 304.56C255.51 309.56 259.45 309.28 261.72 308.56V308.61C262.25 308.43 262.55 308.3 262.55 308.3C270.08 305.15 269.77 296.74 269.77 296.74V290.3H313.87L315.31 290.24L324.01 290.35C324.469 290.388 324.931 290.388 325.39 290.35H327.65L329.02 290.29L337.78 290.4C338.246 290.436 338.714 290.436 339.18 290.4H341.42L342.82 290.34L352.31 290.45C352.209 290.444 352.11 290.417 352.02 290.37L385.37 290.6C385.75 290.6 386.15 290.66 386.52 290.66L387.92 290.81C387.372 290.774 386.84 290.609 386.368 290.33C385.895 290.05 385.495 289.663 385.2 289.2" fill="#454545"/>
<path d="M334.76 241.33L339.02 245.61L334.76 249.83L330.51 245.61L334.76 241.33Z" fill="#454545"/>
<path d="M335.19 252.7L339.44 248.43L343.68 252.7L339.44 256.95L335.19 252.7Z" fill="#454545"/>
<path d="M330.08 248.43L334.32 252.7L330.08 256.95L325.85 252.7L330.08 248.43Z" fill="#454545"/>
<path d="M98.15 286H146.5C149.5 285.5 150.15 282.47 150.31 281.12V265.62C150.03 261.83 147.31 261.18 147.31 261.18C149.142 260.81 151.036 260.872 152.84 261.36C153.187 261.455 153.523 261.589 153.84 261.76C154.318 261.951 154.766 262.211 155.17 262.53C156.291 263.318 157.093 264.482 157.43 265.81L157.49 265.87V266.54L157.43 266.72L157.23 272.72C157.23 273.3 157.23 273.87 157.23 274.44V278.38C157.23 278.91 157.23 279.47 157.23 279.98C157.23 286.58 162.04 285.98 162.04 285.98C170.94 286.35 172.92 285.23 172.92 285.23C174.181 284.572 175.224 283.561 175.92 282.32C176.715 281.181 177.102 279.807 177.02 278.42C177.042 276.707 176.723 275.008 176.08 273.42C175.53 272.029 174.699 270.766 173.64 269.71C172.908 269.024 172.087 268.439 171.2 267.97L170.81 267.78C170.625 267.699 170.435 267.632 170.24 267.58C169.964 267.442 169.676 267.328 169.38 267.24L168.81 267.07C168.05 266.86 167.28 266.68 166.58 266.54C166.27 266.475 165.956 266.432 165.64 266.41L165.69 266.34C164.178 266.171 162.768 265.494 161.69 264.42C161.285 263.964 160.948 263.452 160.69 262.9C160.61 262.65 160.46 262.42 160.39 262.12V262.06C160.216 261.387 160.132 260.695 160.14 260C160.14 260 160.83 262.75 164.73 262.88H165.83L167.22 262.93L167.31 262.98C169.035 263.033 170.752 263.24 172.44 263.6C174.663 264.055 176.785 264.912 178.7 266.13C180.59 267.338 182.174 268.967 183.33 270.89C184.586 273.102 185.209 275.617 185.13 278.16C185.13 282.59 183.75 285.87 181.08 287.92C178.738 289.556 176.027 290.587 173.19 290.92C173.19 290.92 168.84 291.19 163.04 291.18H162.96C162.73 291.18 162.06 291.18 161.12 291.18C158.441 291.074 155.853 290.18 153.68 288.61C152.907 289.786 151.723 290.631 150.36 290.98C149.617 291.133 148.859 291.2 148.1 291.18C148.013 291.173 147.927 291.173 147.84 291.18H145.61L102 291L90.23 291.12" fill="#454545"/>
<path d="M304.18 0C293.802 0.00262657 283.848 4.12175 276.503 11.4537C269.158 18.7857 265.021 28.7318 265 39.11C264.95 44.9485 266.222 50.7226 268.72 56C269.355 57.0303 270.235 57.8874 271.282 58.4946C272.329 59.1018 273.51 59.4404 274.72 59.48C278.547 59.5492 282.251 58.1302 285.052 55.5219C287.853 52.9137 289.533 49.3199 289.736 45.4979C289.94 41.6759 288.652 37.9241 286.143 35.0331C283.635 32.1421 280.102 30.3377 276.29 30C280.249 30.3412 283.985 31.9748 286.924 34.6491C289.862 37.3234 291.84 40.8899 292.552 44.7989C293.264 48.708 292.67 52.7426 290.863 56.2811C289.055 59.8195 286.134 62.6653 282.55 64.38C288.149 64.4224 293.535 62.239 297.524 58.3102C301.513 54.3813 303.778 49.0287 303.82 43.43C303.862 37.8313 301.679 32.445 297.75 28.4561C293.821 24.4672 288.469 22.2024 282.87 22.16C288.709 22.2379 294.351 24.2861 298.88 27.9724C303.409 31.6588 306.56 36.767 307.822 42.4688C309.084 48.1705 308.383 54.1314 305.832 59.3846C303.281 64.6379 299.031 68.8754 293.77 71.41C301.634 71.4015 309.184 68.3225 314.812 62.8291C320.439 57.3357 323.699 49.862 323.898 42.0003C324.096 34.1385 321.216 26.5101 315.873 20.7401C310.529 14.9702 303.144 11.5147 295.29 11.11C302.672 11.4379 309.787 13.9686 315.717 18.3761C321.648 22.7836 326.124 28.8659 328.567 35.8395C331.01 42.8132 331.309 50.3586 329.426 57.5038C327.543 64.649 323.563 71.0667 318 75.93C326.577 72.6911 333.748 66.5505 338.269 58.5747C342.79 50.5988 344.375 41.2914 342.748 32.2688C341.122 23.2462 336.386 15.0783 329.364 9.18356C322.343 3.28881 313.478 0.0395312 304.31 0L304.18 0Z" fill="#0086FF"/>
<path d="M290.29 118.15C283.602 120.681 277.733 124.992 273.317 130.616C268.901 136.241 266.106 142.965 265.233 150.063C264.361 157.16 265.445 164.361 268.368 170.887C271.29 177.414 275.941 183.017 281.817 187.093C287.693 191.168 294.571 193.561 301.707 194.011C308.844 194.462 315.968 192.954 322.31 189.65C328.652 186.346 333.971 181.372 337.691 175.265C341.412 169.158 343.393 162.151 343.42 155C343.455 149.168 342.169 143.404 339.66 138.14C339.019 137.105 338.13 136.246 337.074 135.641C336.017 135.035 334.827 134.701 333.61 134.67C329.827 134.674 326.19 136.129 323.448 138.736C320.707 141.342 319.07 144.901 318.875 148.679C318.68 152.457 319.942 156.165 322.401 159.04C324.86 161.915 328.328 163.737 332.09 164.13C328.124 163.796 324.379 162.165 321.433 159.489C318.487 156.813 316.505 153.242 315.792 149.326C315.08 145.411 315.677 141.37 317.491 137.828C319.306 134.285 322.236 131.44 325.83 129.73C320.231 129.652 314.831 131.801 310.817 135.704C306.802 139.608 304.503 144.946 304.425 150.545C304.347 156.144 306.496 161.544 310.399 165.558C314.303 169.573 319.641 171.872 325.24 171.95C319.428 171.808 313.832 169.714 309.354 166.007C304.875 162.3 301.773 157.194 300.547 151.51C299.322 145.827 300.043 139.897 302.595 134.673C305.148 129.449 309.383 125.236 314.62 122.71C306.757 122.721 299.208 125.802 293.583 131.296C287.957 136.79 284.699 144.264 284.502 152.125C284.305 159.986 287.185 167.613 292.529 173.382C297.872 179.151 305.257 182.605 313.11 183.01C305.723 182.697 298.599 180.178 292.657 175.777C286.715 171.377 282.228 165.297 279.774 158.322C277.32 151.347 277.013 143.797 278.89 136.646C280.768 129.494 284.746 123.069 290.31 118.2L290.29 118.15Z" fill="#0086FF"/>
<path d="M361.94 57.81C356.154 57.7954 350.44 59.084 345.22 61.58C344.193 62.2166 343.341 63.098 342.739 64.1452C342.137 65.1923 341.804 66.3726 341.77 67.58C341.797 71.3473 343.262 74.962 345.866 77.6845C348.47 80.407 352.016 82.0315 355.778 82.2257C359.541 82.4199 363.235 81.169 366.106 78.7291C368.976 76.2891 370.806 72.8445 371.22 69.1C370.893 73.0675 369.265 76.8162 366.591 79.765C363.916 82.7137 360.344 84.6979 356.427 85.41C352.51 86.122 348.468 85.5221 344.927 83.7033C341.385 81.8845 338.543 78.9484 336.84 75.35C336.954 80.8734 339.226 86.1327 343.17 90.0011C347.114 93.8696 352.416 96.0395 357.941 96.0461C363.465 96.0526 368.773 93.8952 372.726 90.0361C376.679 86.177 378.964 80.9231 379.09 75.4C379.066 81.2651 377.055 86.9488 373.385 91.5239C369.715 96.0989 364.602 99.2952 358.882 100.591C353.162 101.887 347.172 101.207 341.888 98.6601C336.605 96.1137 332.34 91.8519 329.79 86.57C329.799 94.4369 332.879 101.989 338.374 107.619C343.869 113.248 351.345 116.509 359.21 116.707C367.074 116.906 374.705 114.025 380.477 108.68C386.249 103.334 389.705 95.9465 390.11 88.09C389.789 95.4739 387.265 102.593 382.861 108.529C378.458 114.465 372.378 118.946 365.405 121.395C358.431 123.844 350.884 124.148 343.736 122.269C336.588 120.389 330.167 116.412 325.3 110.85C327.824 117.543 332.129 123.419 337.75 127.841C343.372 132.264 350.096 135.066 357.195 135.943C364.293 136.821 371.497 135.741 378.026 132.82C384.556 129.9 390.162 125.249 394.24 119.372C398.317 113.496 400.71 106.616 401.16 99.4771C401.61 92.3384 400.099 85.2126 396.792 78.8703C393.485 72.5281 388.506 67.2108 382.395 63.4935C376.284 59.7763 369.273 57.8005 362.12 57.78L361.94 57.81Z" fill="#0086FF"/>
<path d="M246.39 57.81C235.988 57.7914 226.005 61.9057 218.637 69.2478C211.268 76.5898 207.119 86.5582 207.1 96.96C207.081 107.362 211.196 117.345 218.538 124.713C225.88 132.082 235.848 136.231 246.25 136.25C252.093 136.304 257.872 135.029 263.15 132.52C264.181 131.874 265.036 130.982 265.638 129.925C266.24 128.867 266.571 127.677 266.6 126.46C266.578 122.689 265.115 119.068 262.511 116.34C259.907 113.612 256.358 111.983 252.592 111.786C248.825 111.59 245.126 112.84 242.252 115.282C239.377 117.723 237.545 121.171 237.13 124.92C237.13 125.43 237.05 125.92 237.05 126.46C237.05 125.94 237.05 125.46 237.13 124.92C237.48 120.959 239.121 117.224 241.801 114.287C244.482 111.35 248.053 109.376 251.965 108.667C255.877 107.958 259.914 108.553 263.454 110.363C266.995 112.172 269.843 115.094 271.56 118.68C271.602 113.076 269.417 107.685 265.484 103.692C263.537 101.715 261.22 100.141 258.664 99.0597C256.108 97.9784 253.365 97.411 250.59 97.39C244.986 97.3476 239.595 99.5331 235.602 103.466C231.609 107.398 229.342 112.756 229.3 118.36C229.383 112.52 231.436 106.879 235.125 102.351C238.815 97.8233 243.925 94.6736 249.627 93.4122C255.33 92.1508 261.292 92.8517 266.547 95.4013C271.801 97.9509 276.041 102.2 278.58 107.46C278.556 99.598 275.466 92.0555 269.966 86.4375C264.466 80.8196 256.99 77.5697 249.13 77.3795C241.271 77.1893 233.647 80.0737 227.881 85.4189C222.116 90.7642 218.664 98.1483 218.26 106C218.573 98.6113 221.093 91.4859 225.495 85.5432C229.896 79.6005 235.978 75.1132 242.955 72.6603C249.931 70.2074 257.483 69.9014 264.635 71.7819C271.787 73.6623 278.212 77.6429 283.08 83.21C280.271 75.7704 275.27 69.3588 268.739 64.8233C262.207 60.2878 254.452 57.8422 246.5 57.81H246.39Z" fill="#0086FF"/>
<path d="M76.4 360C77.55 363.12 78.04 364.33 78.65 365.76C79.29 364.33 79.76 363.12 80.59 360.76C82.59 355.31 83.92 351.58 84.46 349.82L85.9 345L86.08 344.43C86.6464 344.59 87.2315 344.674 87.82 344.68C88.4282 344.673 89.033 344.589 89.62 344.43C89.87 345.52 89.98 346 90.41 347.58C91.03 349.58 92.22 353.34 92.63 354.37L94.5 359.66C94.92 360.73 95.39 361.99 95.81 363.16C96.0958 364.067 96.4296 364.958 96.81 365.83C96.8537 365.646 96.9281 365.47 97.03 365.31L99.21 360.01L101.31 354.3L103.16 349.25C104.08 346.83 104.5 345.75 105.05 344.43L105.64 344.56C105.986 344.647 106.343 344.687 106.7 344.68C107.374 344.677 108.046 344.593 108.7 344.43L108.37 345.07C107.47 346.8 106.27 349.38 104.75 352.75C103.09 356.54 101.82 359.3 101.28 360.62L99.05 366.2C97.78 369.49 97.37 370.65 96.84 372.34C96.4215 372.156 95.9666 372.071 95.51 372.09C95.0344 372.076 94.5611 372.161 94.12 372.34C93.6624 370.308 93.0847 368.304 92.39 366.34L90.69 361.52L89 356.36C88.22 354.13 87.57 352.58 86.75 350.71C86.29 351.61 85.87 352.77 84.61 356.19L82.83 361L80.91 366.4C80 368.99 79.41 370.79 79.17 371.7L78.98 372.31C78.5115 372.195 78.0323 372.128 77.55 372.11C77.0645 372.127 76.582 372.195 76.11 372.31L75.93 371.7C74.53 367.13 74.19 365.94 72.31 360.93C69.97 354.5 69.31 352.93 68.23 350.31C66.79 346.8 66.3 345.61 65.88 344.4L66.54 344.53C67.39 344.59 68.04 344.65 68.47 344.65C68.9 344.65 69.47 344.59 70.47 344.53C70.65 344.53 70.95 344.53 71.31 344.4C71.56 345.33 71.73 346.05 72.22 347.6C72.52 348.6 72.52 348.69 73.55 351.7C74.32 353.97 74.55 354.81 74.62 355L76.4 360Z" fill="#454545"/>
<path d="M217.27 339.24C217.265 339.035 217.241 338.831 217.2 338.63C218.956 338.212 220.64 337.538 222.2 336.63L222.4 336.81C222.13 338.91 221.95 342.32 221.9 345.11L228.34 344.99C228.194 345.37 228.113 345.773 228.1 346.18C228.11 346.571 228.191 346.958 228.34 347.32H221.95L221.9 347.72C221.9 348.72 221.9 350.27 221.9 352.25L221.82 357.11V362.53C221.82 368.89 222.96 370.94 226.49 370.94C227.369 370.929 228.241 370.791 229.08 370.53V371.92C227.471 372.495 225.786 372.832 224.08 372.92C219.88 372.92 217.28 370.09 217.28 365.56C217.28 364.92 217.35 363.49 217.41 361.91C217.41 361.02 217.41 359.51 217.51 357.45L217.65 352.64V350C217.685 349.078 217.638 348.154 217.51 347.24H217C215.24 347.24 214.4 347.24 213.66 347.3C213.774 346.947 213.841 346.58 213.86 346.21C213.835 345.811 213.768 345.415 213.66 345.03H217.59V344.48C217.59 344.17 217.53 343.34 217.45 342.01L217.27 339.24Z" fill="#454545"/>
<path d="M259.05 356.59L258.69 357.42C257.98 359.11 257.37 360.5 256.96 361.57L255.58 365.39C254.9 367.22 254.42 368.39 254.3 368.91L253.39 371.8C253.316 371.958 253.256 372.122 253.21 372.29C252.53 372.12 251.831 372.036 251.13 372.04C250.403 372.037 249.677 372.12 248.97 372.29L249.37 371.49C250.76 368.61 252.93 363.99 255.09 359.18L261.45 344.88C263.38 340.67 264.4 338.38 264.75 337.65L267.17 332.15L267.54 331.4H268.67L268.92 331.95C269.68 333.82 270.6 335.86 271.67 338.51C272.34 340.13 272.82 341.4 273.47 342.9C274.32 344.81 274.37 345.02 274.74 345.83L277.4 352L280.29 358.86L283.21 365.59C284.119 367.89 285.15 370.14 286.3 372.33C285.121 372.165 283.931 372.081 282.74 372.08C281.917 372.073 281.095 372.157 280.29 372.33C280.214 372.15 280.147 371.967 280.09 371.78L279.19 369.32L278.1 366.43C277.98 366.09 277.4 364.57 276.43 362.28L274.63 357.83L274.14 356.57L273.14 354.11L266.71 339.22L260.15 354.11L259.05 356.59Z" fill="#454545"/>
<path d="M294.52 334.85C294.43 331.28 294.38 329.67 294.27 328.35C295.079 328.485 295.9 328.545 296.72 328.53C297.633 328.541 298.546 328.481 299.45 328.35C299.236 330.57 299.136 332.8 299.15 335.03L299.01 342.23C298.95 345.37 298.95 347.82 298.95 349.68C298.95 350.55 298.95 351.18 299.01 354.37V357.49L299.15 364.83C299.123 367.321 299.237 369.812 299.49 372.29C298.533 372.143 297.568 372.06 296.6 372.04C295.754 372.049 294.911 372.133 294.08 372.29L294.15 371.63C294.38 367.89 294.52 364.78 294.57 360.63C294.64 358.47 294.64 356.63 294.64 353.54V342.18L294.52 334.85Z" fill="#454545"/>
<path d="M583 334.85C582.93 331.28 582.87 329.67 582.76 328.35C583.576 328.485 584.403 328.545 585.23 328.53C586.133 328.541 587.036 328.481 587.93 328.35C587.76 330.22 587.69 331.95 587.62 335.03L587.52 342.23C587.46 345.37 587.46 347.82 587.46 349.68C587.46 350.55 587.46 351.18 587.52 354.37V357.49L587.62 364.83C587.612 367.321 587.736 369.812 587.99 372.29C587.033 372.144 586.068 372.061 585.1 372.04C584.251 372.049 583.404 372.133 582.57 372.29L582.65 371.63C582.87 367.89 583 364.78 583.07 360.63C583.07 358.47 583.07 356.63 583.07 353.54V342.18L583 334.85Z" fill="#454545"/>
<path d="M596.84 334.85C596.78 331.28 596.71 329.67 596.59 328.35C597.406 328.484 598.233 328.545 599.06 328.53C599.967 328.542 600.873 328.481 601.77 328.35C601.58 330.22 601.52 331.95 601.46 335.03L601.36 342.23C601.28 345.37 601.28 347.82 601.28 349.68C601.28 350.55 601.28 351.18 601.36 354.37V357.49L601.46 364.83C601.446 367.321 601.563 369.811 601.81 372.29C600.857 372.144 599.894 372.06 598.93 372.04C598.088 372.048 597.247 372.131 596.42 372.29L596.5 371.63C596.71 367.89 596.84 364.78 596.9 360.63C596.96 358.47 596.96 356.63 596.96 353.54V342.18L596.84 334.85Z" fill="#454545"/>
<path d="M344.41 339.05C343.867 337.489 342.847 336.138 341.493 335.189C340.14 334.239 338.523 333.74 336.87 333.76C335.923 333.734 334.98 333.9 334.098 334.246C333.216 334.593 332.413 335.113 331.737 335.777C331.06 336.44 330.524 337.233 330.16 338.108C329.797 338.983 329.613 339.922 329.62 340.87C329.616 342.049 329.91 343.21 330.475 344.245C331.04 345.28 331.857 346.155 332.85 346.79C334.91 348.013 337.092 349.018 339.36 349.79C345.65 352.24 348.17 355.19 348.17 360.12C348.17 367.58 342.06 373.17 334 373.17C330.385 373.25 326.854 372.081 324 369.86L324.13 369.42C324.68 367.832 325.039 366.183 325.2 364.51H325.82C326.651 366.255 327.946 367.739 329.563 368.797C331.18 369.855 333.058 370.448 334.99 370.51C336.104 370.562 337.217 370.385 338.26 369.99C339.303 369.595 340.255 368.991 341.055 368.214C341.855 367.437 342.488 366.504 342.913 365.473C343.339 364.442 343.549 363.335 343.53 362.22C343.53 358.22 341.53 356.1 335.31 353.7C330.98 352.02 329.06 350.91 327.6 349.25C325.913 347.389 324.989 344.961 325.01 342.45C325.01 335.83 330.18 331.37 337.77 331.37C340.945 331.271 344.058 332.255 346.6 334.16C345.846 335.705 345.298 337.342 344.97 339.03L344.41 339.05Z" fill="#454545"/>
<path d="M361 349V349.9C361.827 348.082 363.18 346.552 364.883 345.51C366.587 344.467 368.564 343.959 370.56 344.05C376.56 344.05 380.17 347.85 380.17 353.92C380.17 354.81 380.17 356.09 380.05 357.57C380 359.79 379.93 363.84 379.93 367.76C379.93 369.9 379.93 370.69 380.05 372.24C379.293 372.047 378.51 371.973 377.73 372.02C376.838 371.998 375.946 372.072 375.07 372.24C375.37 369.14 375.66 363.08 375.66 358.91C375.66 354.22 375.49 352.41 374.79 350.68C374.238 349.528 373.362 348.563 372.27 347.9C371.178 347.238 369.917 346.908 368.64 346.95C367.312 346.918 366.001 347.257 364.855 347.928C363.709 348.599 362.772 349.576 362.15 350.75C361.25 352.58 361 354.4 361 359.08C361 362.15 361.06 366.78 361.11 369.19C361.19 370.31 361.19 370.87 361.25 372.19C360.49 372.062 359.721 371.988 358.95 371.97C358.6 371.97 358.01 372.03 357.09 372.08C356.834 372.141 356.573 372.178 356.31 372.19C356.62 368.77 356.75 364.26 356.8 358.19L356.85 350.08V344.44C356.85 343.11 356.85 341.12 356.8 337.28C356.885 334.277 356.788 331.271 356.51 328.28C357.367 328.408 358.233 328.468 359.1 328.46C359.94 328.466 360.779 328.406 361.61 328.28C361.42 330.09 361.3 331.58 361.25 333.89L361.11 339.17L361.06 344.01L361 349Z" fill="#454545"/>
<path d="M426 347.4C425.94 348.55 425.89 349.27 425.89 350.57C427.89 346.5 430.89 344.04 433.89 344.04C434.51 344.007 435.128 344.127 435.69 344.39C435.413 345.531 435.248 346.697 435.2 347.87C435.216 348.255 435.256 348.639 435.32 349.02L434.89 349.27C434.092 348.617 433.091 348.263 432.06 348.27C431.103 348.294 430.166 348.551 429.331 349.02C428.496 349.489 427.788 350.155 427.27 350.96C426.27 352.57 425.99 354.04 425.99 357.63L426 363.2C426 363.64 426 365.07 426.06 367.3C426.14 369.76 426.14 370.83 426.26 372.3C425.602 372.164 424.932 372.09 424.26 372.08C423.336 372.097 422.415 372.171 421.5 372.3V371.71L421.74 365.22C421.81 363.72 421.81 361.54 421.81 358.91C421.81 356.28 421.81 354.11 421.74 352.79L421.68 348.51C421.56 345.68 421.56 345.34 421.5 344.42C422.288 344.601 423.092 344.701 423.9 344.72C424.712 344.705 425.519 344.604 426.31 344.42L426.25 345.1L426 347.4Z" fill="#454545"/>
<path d="M18.3 350.58C24.85 348.9 28.04 345.66 28.04 340.58C28.122 338.787 27.571 337.022 26.4832 335.595C25.3955 334.167 23.8404 333.167 22.09 332.77C19.1384 332.108 16.1118 331.843 13.09 331.98C11.54 331.98 10.2 331.98 8.99003 332.05C7.44003 332.1 6.43003 332.1 6.12003 332.1C5.14894 332.118 4.17759 332.085 3.21003 332C3.38003 334.84 3.38003 335.66 3.44003 341.07L3.58003 345.59V351.1C3.58003 362.89 3.52003 366.27 3.09003 371.62L3.03003 372.26C3.84326 372.095 4.67032 372.008 5.50003 372C5.74003 372 6.88003 372 8.00003 372.12C8.31003 372.12 9.00003 372.12 9.82003 372.19C11.15 372.19 12.17 372.19 12.64 372.19C17.22 372.19 20.64 371.55 23.47 370.19C25.2923 369.223 26.8222 367.786 27.9003 366.027C28.9784 364.268 29.5653 362.253 29.6 360.19C29.6 354.68 25.37 351.11 18.3 350.51M21.84 366.73C20.1 368.96 17.34 369.98 12.95 369.98C11.4849 369.989 10.0211 369.892 8.57003 369.69C8.41634 368.051 8.35625 366.405 8.39003 364.76L8.25003 359.18V356.58C8.31003 355.27 8.31003 354.22 8.31003 353.47V348.41C8.31003 347.87 8.31003 347.21 8.31003 346.07V342.02L8.45003 338.2C8.45003 335.96 8.51003 335.5 8.56003 334.41C9.98469 334.173 11.4259 334.049 12.87 334.04C19.62 334.04 22.93 336.51 22.93 341.49C22.93 346.47 19.5 349.16 12.93 349.78C12.4847 349.81 12.0507 349.933 11.656 350.141C11.2612 350.35 10.9146 350.638 10.6385 350.989C10.3623 351.34 10.1628 351.744 10.0528 352.177C9.94286 352.609 9.92487 353.06 10 353.5C10 353.5 10.49 351.95 13.19 352.01C15.2252 352.115 17.2401 352.468 19.19 353.06C20.7017 353.623 21.9952 354.652 22.8833 355.998C23.7714 357.345 24.208 358.939 24.13 360.55C24.1328 362.829 23.3446 365.038 21.9 366.8" fill="#454545"/>
<path d="M61.69 370.41C59.57 370.41 59.28 369.58 59.28 363.03C59.28 361.21 59.28 359.47 59.41 357.62C59.54 355.77 59.57 354.13 59.57 353.11C59.57 347.33 56.04 343.9 50.09 343.9C46.66 343.9 44.91 344.52 40.88 346.9C40.88 346.9 40.65 347.04 40.45 347.13C40.5689 347.672 40.6359 348.225 40.65 348.78C40.6401 349.349 40.5731 349.915 40.45 350.47H41.07C41.7867 349.175 42.8459 348.101 44.1316 347.368C45.4174 346.634 46.8802 346.268 48.36 346.31C52.49 346.31 55.08 349.01 55.08 353.4V358.21C55.02 359.61 54.95 363.68 54.95 365.84V366.36C54.2048 367.553 53.1754 368.543 51.9538 369.242C50.7322 369.94 49.3566 370.324 47.95 370.36C47.2516 370.387 46.555 370.272 45.9027 370.021C45.2504 369.77 44.6562 369.388 44.1563 368.9C43.6565 368.411 43.2616 367.826 42.9957 367.179C42.7299 366.533 42.5986 365.839 42.61 365.14C42.5395 364.252 42.6951 363.361 43.0623 362.549C43.4295 361.738 43.9964 361.033 44.71 360.5C45.63 359.9 46.49 359.57 49.3 358.9C49.9626 358.815 50.6018 358.6 51.181 358.267C51.7601 357.934 52.2678 357.49 52.6748 356.96C53.0819 356.431 53.3802 355.826 53.5527 355.181C53.7252 354.535 53.7685 353.862 53.68 353.2C53.507 354.163 53.0369 355.047 52.3356 355.728C51.6343 356.41 50.7371 356.855 49.77 357C49.05 357.11 48.25 357.27 47.26 357.39C40.65 358.39 37.82 360.83 37.82 365.69C37.82 370.15 40.96 372.89 45.94 372.89C47.6517 372.865 49.3387 372.478 50.89 371.754C52.4413 371.03 53.8216 369.986 54.94 368.69C54.9378 369.196 55.0433 369.698 55.2496 370.16C55.4559 370.623 55.7582 371.036 56.1366 371.373C56.5149 371.709 56.9605 371.962 57.4439 372.113C57.9272 372.264 58.4373 372.311 58.94 372.25C60.3247 372.24 61.6902 371.926 62.94 371.33V370.15C62.5526 370.28 62.1485 370.354 61.74 370.37" fill="#454545"/>
<path d="M139.09 370.41C136.97 370.41 136.69 369.58 136.69 363.03C136.69 361.21 136.75 359.47 136.81 357.62C136.87 355.77 136.97 354.13 136.97 353.11C136.97 347.33 133.44 343.9 127.47 343.9C124.05 343.9 122.31 344.52 118.28 346.9C118.132 346.968 117.989 347.045 117.85 347.13C117.957 347.674 118.02 348.226 118.04 348.78C118.024 349.348 117.961 349.913 117.85 350.47H118.47C119.177 349.176 120.229 348.102 121.509 347.368C122.788 346.634 124.246 346.268 125.72 346.31C129.89 346.31 132.47 349.01 132.47 353.4V358.21C132.41 359.61 132.35 363.68 132.35 365.84V366.36C131.601 367.55 130.571 368.537 129.35 369.235C128.129 369.932 126.755 370.319 125.35 370.36C124.652 370.386 123.956 370.269 123.304 370.018C122.653 369.766 122.059 369.385 121.56 368.896C121.06 368.408 120.665 367.823 120.399 367.177C120.132 366.532 120 365.838 120.01 365.14C119.945 364.254 120.102 363.365 120.467 362.555C120.832 361.745 121.393 361.038 122.1 360.5C123.01 359.9 123.9 359.57 126.72 358.9C127.384 358.82 128.025 358.608 128.605 358.277C129.186 357.945 129.694 357.5 130.099 356.969C130.505 356.438 130.8 355.83 130.966 355.183C131.133 354.535 131.168 353.861 131.07 353.2C130.894 354.164 130.42 355.048 129.715 355.727C129.01 356.407 128.109 356.849 127.14 356.99C126.42 357.1 125.61 357.26 124.64 357.38C118.02 358.38 115.18 360.82 115.18 365.68C115.18 370.14 118.32 372.88 123.3 372.88C125.011 372.853 126.697 372.464 128.248 371.741C129.799 371.017 131.18 369.974 132.3 368.68C132.296 369.187 132.401 369.689 132.606 370.152C132.812 370.616 133.114 371.03 133.493 371.367C133.872 371.704 134.318 371.956 134.802 372.107C135.286 372.257 135.797 372.303 136.3 372.24C137.684 372.228 139.05 371.914 140.3 371.32V370.14C139.912 370.266 139.508 370.34 139.1 370.36" fill="#454545"/>
<path d="M207.19 370.41C205.07 370.41 204.79 369.58 204.79 363.03C204.79 361.21 204.84 359.47 204.89 357.62C204.94 355.77 205.07 354.13 205.07 353.11C205.07 347.33 201.53 343.9 195.57 343.9C192.13 343.9 190.42 344.52 186.39 346.9C186.242 346.96 186.101 347.037 185.97 347.13C186.06 347.676 186.114 348.227 186.13 348.78C186.117 349.346 186.064 349.911 185.97 350.47H186.57C187.277 349.176 188.329 348.102 189.609 347.368C190.888 346.634 192.346 346.268 193.82 346.31C197.99 346.31 200.56 349.01 200.56 353.4V358.21C200.5 359.61 200.45 363.68 200.45 365.84V366.36C199.702 367.551 198.672 368.539 197.451 369.237C196.23 369.935 194.856 370.32 193.45 370.36C192.752 370.386 192.055 370.269 191.403 370.018C190.751 369.766 190.156 369.385 189.656 368.897C189.156 368.409 188.76 367.824 188.492 367.178C188.225 366.532 188.091 365.839 188.1 365.14C188.036 364.252 188.196 363.362 188.564 362.551C188.933 361.741 189.499 361.036 190.21 360.5C191.14 359.9 192.01 359.57 194.82 358.9C195.48 358.811 196.116 358.594 196.692 358.259C197.267 357.925 197.772 357.48 198.176 356.951C198.58 356.422 198.875 355.818 199.046 355.174C199.216 354.531 199.259 353.86 199.17 353.2C198.997 354.163 198.526 355.048 197.822 355.728C197.119 356.408 196.219 356.85 195.25 356.99C194.51 357.1 193.7 357.26 192.74 357.38C186.11 358.38 183.29 360.82 183.29 365.68C183.29 370.14 186.44 372.88 191.41 372.88C193.121 372.85 194.806 372.461 196.357 371.737C197.907 371.014 199.288 369.972 200.41 368.68C200.406 369.187 200.511 369.689 200.716 370.152C200.922 370.616 201.224 371.03 201.603 371.367C201.982 371.704 202.428 371.956 202.912 372.107C203.396 372.257 203.907 372.303 204.41 372.24C205.794 372.223 207.158 371.91 208.41 371.32V370.14C208.019 370.268 207.612 370.342 207.2 370.36" fill="#454545"/>
<path d="M412.28 370.41C410.16 370.41 409.88 369.58 409.88 363.03C409.88 361.21 409.93 359.47 409.99 357.62C410.05 355.77 410.16 354.13 410.16 353.11C410.16 347.33 406.64 343.9 400.67 343.9C397.25 343.9 395.51 344.52 391.48 346.9C391.328 346.96 391.184 347.037 391.05 347.13C391.142 347.676 391.199 348.227 391.22 348.78C391.203 349.347 391.146 349.911 391.05 350.47H391.66C392.373 349.178 393.427 348.106 394.707 347.373C395.987 346.639 397.445 346.271 398.92 346.31C403.07 346.31 405.65 349.01 405.65 353.4V358.21C405.65 359.61 405.53 363.68 405.53 365.84V366.36C404.782 367.551 403.752 368.539 402.531 369.237C401.31 369.935 399.936 370.32 398.53 370.36C397.833 370.384 397.139 370.267 396.489 370.015C395.839 369.762 395.247 369.38 394.749 368.892C394.252 368.404 393.859 367.819 393.594 367.174C393.329 366.529 393.199 365.837 393.21 365.14C393.142 364.253 393.298 363.364 393.663 362.553C394.028 361.743 394.591 361.037 395.3 360.5C396.21 359.9 397.09 359.57 399.89 358.9C400.554 358.82 401.195 358.608 401.775 358.277C402.356 357.945 402.864 357.5 403.269 356.969C403.675 356.438 403.97 355.83 404.136 355.183C404.303 354.535 404.338 353.861 404.24 353.2C404.065 354.162 403.592 355.045 402.889 355.725C402.186 356.405 401.288 356.847 400.32 356.99C399.61 357.1 398.78 357.26 397.82 357.38C391.19 358.38 388.38 360.82 388.38 365.68C388.38 370.14 391.5 372.88 396.48 372.88C398.192 372.857 399.88 372.471 401.431 371.747C402.983 371.023 404.363 369.977 405.48 368.68C405.479 369.186 405.586 369.686 405.793 370.148C406 370.61 406.302 371.023 406.68 371.359C407.058 371.695 407.503 371.948 407.986 372.1C408.468 372.252 408.978 372.299 409.48 372.24C410.865 372.232 412.231 371.918 413.48 371.32V370.14C413.093 370.272 412.689 370.346 412.28 370.36" fill="#454545"/>
<path d="M573.72 370.41C571.6 370.41 571.31 369.58 571.31 363.03C571.31 361.21 571.38 359.47 571.43 357.62C571.48 355.77 571.6 354.13 571.6 353.11C571.6 347.33 568.06 343.9 562.1 343.9C558.66 343.9 556.94 344.52 552.91 346.9C552.764 346.964 552.623 347.041 552.49 347.13C552.584 347.676 552.644 348.227 552.67 348.78C552.648 349.347 552.588 349.911 552.49 350.47H553.09C553.805 349.178 554.861 348.106 556.143 347.373C557.425 346.639 558.884 346.272 560.36 346.31C564.5 346.31 567.08 349.01 567.08 353.4V358.21C567.02 359.61 566.97 363.68 566.97 365.84V366.36C566.225 367.553 565.195 368.543 563.974 369.242C562.752 369.94 561.376 370.324 559.97 370.36C559.272 370.386 558.576 370.269 557.924 370.018C557.273 369.766 556.679 369.385 556.18 368.896C555.68 368.408 555.285 367.823 555.019 367.177C554.752 366.532 554.62 365.838 554.63 365.14C554.559 364.252 554.715 363.361 555.082 362.549C555.45 361.738 556.016 361.033 556.73 360.5C557.66 359.9 558.53 359.57 561.33 358.9C561.994 358.82 562.635 358.608 563.215 358.277C563.796 357.945 564.304 357.5 564.709 356.969C565.115 356.438 565.41 355.83 565.576 355.183C565.743 354.535 565.778 353.861 565.68 353.2C565.504 354.164 565.03 355.048 564.325 355.727C563.62 356.407 562.719 356.849 561.75 356.99C561.02 357.1 560.2 357.26 559.25 357.38C552.64 358.38 549.81 360.82 549.81 365.68C549.81 370.14 552.93 372.88 557.92 372.88C559.632 372.855 561.319 372.468 562.87 371.744C564.421 371.02 565.802 369.976 566.92 368.68C566.917 369.182 567.02 369.679 567.223 370.139C567.426 370.598 567.723 371.01 568.097 371.346C568.47 371.682 568.91 371.936 569.388 372.09C569.866 372.244 570.371 372.295 570.87 372.24C572.255 372.232 573.621 371.918 574.87 371.32V370.14C574.489 370.27 574.092 370.344 573.69 370.36" fill="#454545"/>
<path d="M470.73 371.54C470.79 368.97 470.79 366.54 470.84 364.11L470.91 359.43C470.91 343.26 457.13 343.8 457.13 343.8C449.62 343.8 444.63 349.68 444.63 358.52C444.63 367.03 449.56 372.84 456.95 372.84C461.17 372.84 463.81 371.36 466.45 367.54V368.32L466.4 373.19L466.27 378.65C466.21 380.93 466.14 382.49 465.97 384.54C466.814 384.417 467.667 384.357 468.52 384.36C469.416 384.363 470.311 384.423 471.2 384.54C470.796 381.373 470.612 378.182 470.65 374.99C470.65 374.21 470.65 373.14 470.73 371.54ZM458.35 370.67C452.81 370.67 449.86 366.44 449.86 358.59C449.86 350.74 453 346.25 458.39 346.25C463.78 346.25 466.81 350.71 466.81 358.04C466.81 366.34 463.93 370.67 458.35 370.67Z" fill="#454545"/>
<path d="M147.64 345.37C147.56 347.95 147.56 350.37 147.53 352.81L147.44 357.49C147.44 373.66 161.24 373.14 161.24 373.14C168.76 373.14 173.73 367.21 173.73 358.41C173.73 349.86 168.82 344.08 161.41 344.08C157.2 344.08 154.55 345.54 151.9 349.39V348.6L151.97 343.74L152.09 338.26C152.16 335.98 152.23 334.41 152.4 332.36C151.565 332.507 150.718 332.574 149.87 332.56C148.963 332.571 148.056 332.504 147.16 332.36C147.561 335.537 147.738 338.738 147.69 341.94C147.69 342.71 147.69 343.8 147.64 345.37ZM160.02 346.25C165.57 346.25 168.49 350.47 168.49 358.33C168.49 366.19 165.36 370.67 159.96 370.67C154.56 370.67 151.55 366.22 151.55 358.88C151.55 350.57 154.43 346.25 160.02 346.25Z" fill="#454545"/>
<path d="M499.93 349.61C499.87 347.61 499.75 345.79 499.55 344.06C500.441 344.231 501.344 344.332 502.25 344.36C502.603 344.355 502.954 344.318 503.3 344.25C503.68 344.25 504.13 344.12 504.66 344.06C504.53 345.65 504.46 347.26 504.46 348.85H504.59C506.68 345.27 509.67 343.45 513.5 343.45C514.517 343.45 515.528 343.601 516.5 343.9C517.419 344.19 518.293 344.603 519.1 345.13C519.872 345.638 520.549 346.278 521.1 347.02C521.645 347.719 522.034 348.527 522.24 349.39H522.37C523.225 347.576 524.586 346.048 526.29 344.99C528.016 343.945 530.003 343.411 532.02 343.45C533.254 343.44 534.482 343.622 535.66 343.99C536.739 344.325 537.732 344.892 538.57 345.65C539.427 346.493 540.084 347.518 540.49 348.65C540.97 350.035 541.197 351.495 541.16 352.96C541.16 353.63 541.16 354.37 541.16 355.18C541.16 355.99 541.08 356.91 541.05 357.97C541.02 359.03 540.97 360.23 540.93 361.55C540.89 362.87 540.88 364.44 540.88 366.19C540.88 367.29 540.88 368.33 540.88 369.32C540.88 370.31 540.95 371.39 541.05 372.56C540.603 372.492 540.152 372.458 539.7 372.46H537.11C536.661 372.459 536.213 372.493 535.77 372.56C535.91 371.567 536.05 369.567 536.19 366.56C536.34 363.51 536.41 359.3 536.41 353.86C536.394 352.893 536.256 351.932 536 351C535.822 350.181 535.482 349.406 535 348.72C534.481 348.072 533.821 347.552 533.07 347.2C532.128 346.779 531.101 346.581 530.07 346.62C528.919 346.578 527.774 346.811 526.73 347.3C525.687 347.788 524.775 348.519 524.07 349.43C523.769 349.843 523.518 350.289 523.32 350.76C523.093 351.405 522.955 352.078 522.91 352.76C522.82 353.64 522.73 354.93 522.69 356.52C522.65 358.11 522.62 360.37 522.62 363.19C522.62 364.92 522.62 366.5 522.72 367.91C522.82 369.32 522.84 370.86 522.92 372.55C522.01 372.48 521.11 372.45 520.3 372.45C519.49 372.45 518.57 372.45 517.68 372.55C517.87 370.35 518.01 368.12 518.08 365.85C518.15 363.58 518.19 361.34 518.19 359.13C518.19 357.25 518.19 355.79 518.19 354.74C518.19 353.69 518.19 352.84 518.06 352.21C517.98 351.69 517.867 351.175 517.72 350.67C517.56 350.227 517.369 349.796 517.15 349.38C516.653 348.535 515.933 347.844 515.07 347.38C514.196 346.857 513.198 346.577 512.18 346.57C509.53 346.57 507.59 347.42 506.36 349.14C505.13 350.86 504.5 353.29 504.5 356.4V361.49C504.5 363.27 504.5 365.16 504.58 367.16C504.66 369.16 504.77 370.92 504.98 372.51C504.06 372.44 503.16 372.41 502.28 372.41C501.4 372.41 500.51 372.41 499.59 372.51C499.79 370.92 499.91 369.12 499.97 367.16C500.03 365.2 500.07 363.27 500.07 361.49V355.26C500.07 353.45 500.07 351.57 499.97 349.6" fill="#454545"/>
</g>
<defs>
<clipPath id="clip0_603_809">
<rect width="606" height="384.54" fill="white"/>
</clipPath>
</defs>
</svg>