<?xml version="1.0" encoding="utf-8"?>
<!-- Generator: Adobe Illustrator 28.2.0, SVG Export Plug-In . SVG Version: 6.00 Build 0)  -->
<svg version="1.1" id="Layer_1" xmlns="http://www.w3.org/2000/svg" xmlns:xlink="http://www.w3.org/1999/xlink" x="0px" y="0px" viewBox="0 0 2443 1240" style="enable-background: new 0 0 2443 1240" xml:space="preserve">
<path d="M2443,0H3.4v1240H2443V0z M735.3,1033.3c-73.9,0-144-14-206.8-38.9c18.9,13.9,39,26.9,60.4,38.9h-97.6
	c-65.2-36.6-121-83.9-164.3-139.2C148.3,665.9,221.9,358.1,491.4,206.7h97.6c-21.1,11.8-41.1,24.8-60.1,38.8
	c62.7-24.9,132.7-38.8,206.5-38.8h146.4c-269.5,0-487.9,185.1-487.9,413.3s218.4,413.3,487.9,413.3H735.3z M1223.2,289.3
	c215.6,0,390.3,148,390.3,330.7s-174.8,330.7-390.3,330.7c-215.6,0-390.3-148-390.3-330.7S1007.6,289.3,1223.2,289.3z
	 M1857.5,1033.3c21.4-12,41.5-25,60.4-38.9c-62.8,24.9-132.8,38.9-206.8,38.9h-146.4c269.5,0,487.9-185.1,487.9-413.3
	s-218.4-413.3-487.9-413.3h146.4c73.8,0,143.8,13.9,206.5,38.8c-19-14-39.1-26.9-60.1-38.8h97.6c269.5,151.4,343,459.2,164.3,687.5
	c-43.2,55.2-99.1,102.5-164.3,139.2H1857.5z"></path>
</svg>
