<?xml version="1.0" encoding="utf-8"?>
<!-- Generator: Adobe Illustrator 28.2.0, SVG Export Plug-In . SVG Version: 6.00 Build 0)  -->
<svg version="1.1" id="Layer_1" xmlns="http://www.w3.org/2000/svg" xmlns:xlink="http://www.w3.org/1999/xlink" x="0px" y="0px" viewBox="0 0 2443 1240" style="enable-background: new 0 0 2443 1240" xml:space="preserve">
<style>.st0 {
  fill-rule: evenodd;
  clip-rule: evenodd;
}
</style>
<path class="st0" d="M0.2,0.2v1239.5h2442.5V0.2H0.2z M540.9,420.9v358h385.3L805.8,957.8H356.3v-716h457.5l112.3,179.1H540.9z
	 M825.9,504.3L693.4,687.4H569V504.3H825.9z M1508.1,420.9h-176.6v537h-192.6v-537h-136.5L882,241.8h626V420.9z M2009.7,957.9
	l-76.3-115.4h-216.8v115.4h-180.6l0-0.1V663.5h277l-96.3-139.2v103.4h-180.6V349.3c0,0,112.3-206.9,260.9-31.8
	c144.5,171,429.4,640.5,429.4,640.5H2009.7z"></path>
</svg>
