<?xml version="1.0" encoding="UTF-8"?>
<svg id="Layer_1" data-name="Layer 1" xmlns="http://www.w3.org/2000/svg" viewBox="0 0 2443 1307.26">
  <defs>
    <style>.cls-1 {
  stroke-width: 0;
}
</style>
  </defs>
  <path class="cls-1" d="M2443,0H0v1307.26h2443V0ZM488.6,1089.38c-65.27-38.61-121.2-88.5-164.5-146.71-179-240.66-105.35-565.16,164.5-724.8h97.72c-65.27,38.61-121.2,88.5-164.5,146.71-179,240.66-105.35,565.16,164.5,724.8h-97.72ZM986.97,1089.38c-269.85,0-488.6-195.09-488.6-435.75s218.75-435.75,488.6-435.75h146.58c-269.85,0-488.6,195.09-488.6,435.75s218.75,435.75,488.6,435.75h-146.58ZM1221.5,305.03c215.88,0,390.88,156.07,390.88,348.6s-175,348.6-390.88,348.6-390.88-156.07-390.88-348.6,175-348.6,390.88-348.6ZM1304.56,1089.38c269.85,0,488.6-195.09,488.6-435.75s-218.75-435.75-488.6-435.75h146.58c269.85,0,488.6,195.09,488.6,435.75s-218.75,435.75-488.6,435.75h-146.58ZM1856.68,1089.38c269.85-159.64,343.5-484.14,164.5-724.8-43.3-58.21-99.23-108.09-164.5-146.71h97.72c269.85,159.64,343.5,484.14,164.5,724.8-43.3,58.21-99.23,108.09-164.5,146.71h-97.72Z"></path>
</svg>