<?xml version="1.0" encoding="utf-8"?><!-- Generator: Adobe Illustrator 27.5.0, SVG Export Plug-In . SVG Version: 6.00 Build 0)  --><svg xmlns="http://www.w3.org/2000/svg" xmlns:xlink="http://www.w3.org/1999/xlink" version="1.1" x="0px" y="0px" viewBox="0 0 750 500" style="enable-background: new 0 0 750 500" xml:space="preserve">
<g id="BACKGROUND">
	<rect style="fill: #3a3a3a" width="750" height="500"/>
</g>
<g id="OBJECTS">
	<g>
		<g>
			<text transform="matrix(1 0 0 1 147.3751 440.5991)" style="fill: #e24747; font-family: BebasNeue-Bold; font-size: 40.2736px">wrong</text>
			<rect x="132.745" y="400.105" style="fill: none; stroke: #e24747; stroke-miterlimit: 10" width="116.389" height="52.542"/>
		</g>
		<g>
			<text transform="matrix(1 0 0 1 515.3587 440.5991)" style="fill: #74e2e2; font-family: BebasNeue-Bold; font-size: 40.2736px">right</text>
			<rect x="491.417" y="400.105" style="fill: none; stroke: #74e2e2; stroke-miterlimit: 10" width="116.389" height="52.542"/>
		</g>
		<g>
			<g>
				<g>
					<polygon style="fill: #424242" points="439.632,500 441.872,500 439.616,500 					"/>
					<polygon style="fill: #424242" points="540.396,500 542.592,500 540.292,500 					"/>
					<polygon style="fill: #424242" points="648.01,500 650.107,500 647.699,500 					"/>
					<polygon style="fill: #424242" points="260.793,500 260.81,500 258.555,500 					"/>
					<polygon style="fill: #424242" points="52.417,500 52.728,500 50.32,500 					"/>
					<polygon style="fill: #424242" points="160.031,500 160.135,500 157.835,500 					"/>
				</g>
				<g>
					<polygon style="fill: #edebe6" points="426.46,0 273.417,0 0,0 0,377.627 90.517,377.627 90.517,63.448 293.417,63.448 
						293.417,377.627 446.46,377.627 446.46,63.448 649.36,63.448 649.36,377.627 750,377.627 750,0 					"/>
				</g>
				<rect x="293.417" y="365.758" style="fill: #541f2b" width="153.043" height="11.87"/>
				<g style="opacity: .3">
					<polygon style="fill: #281f13" points="286.291,382.064 277.605,382.064 277.605,362.605 99.202,362.869 99.202,377.627 
						83.391,377.627 83.391,63.448 286.291,63.448 					"/>
				</g>
				<g>
					<rect y="360.764" style="fill: #b7b7b7" width="90.517" height="16.863"/>
					<rect x="293.417" y="360.764" style="fill: #b7b7b7" width="153.043" height="16.863"/>
					<rect x="649.36" y="360.764" style="fill: #b7b7b7" width="100.64" height="16.863"/>
				</g>
				<g style="opacity: .3">
					<polygon style="fill: #281f13" points="642.234,382.064 633.548,382.064 633.549,362.605 455.145,362.869 455.145,377.627 
						439.334,377.627 439.334,63.448 642.234,63.448 					"/>
				</g>
				<g>
					<g>
						<rect x="664.815" y="170.33" style="opacity: .3; fill: #421c24" width="29.86" height="24.58"/>
						<rect x="668.714" y="170.33" style="fill: #231b10" width="29.861" height="24.58"/>
						<g>
							<path style="fill: #382c18" d="M697.075,171.829v21.582h-26.863v-21.582H697.075 M698.574,170.33h-29.861v24.579h29.861
								V170.33L698.574,170.33z"/>
						</g>
					</g>
					
						<text transform="matrix(0.9988 0 0 1 674.0055 185.5474)" style="fill: #d5e068; font-family: VT323-Regular; font-size: 11.9988px">OPEN</text>
				</g>
				<g>
					<g>
						<path style="opacity: .3; fill: #421c24" d="M682.131,272.026h-8.938c-4.122,0-7.495-3.373-7.495-7.495v-49.205
							c0-4.122,3.373-7.495,7.495-7.495h8.938c4.122,0,7.495,3.373,7.495,7.495v49.205
							C689.625,268.654,686.253,272.026,682.131,272.026z"/>
						<g>
							<path style="fill: #8c8c8c" d="M687.182,272.026h-8.938c-4.122,0-7.495-3.373-7.495-7.495v-49.205
								c0-4.122,3.373-7.495,7.495-7.495h8.938c4.122,0,7.495,3.373,7.495,7.495v49.205
								C694.677,268.654,691.305,272.026,687.182,272.026z"/>
							<g>
								<path style="fill: #231b10" d="M687.182,209.331c3.306,0,5.996,2.69,5.996,5.996v49.205c0,3.306-2.69,5.996-5.996,5.996
									h-8.938c-3.306,0-5.996-2.69-5.996-5.996v-49.205c0-3.306,2.69-5.996,5.996-5.996H687.182 M687.182,207.832h-8.938
									c-4.122,0-7.495,3.373-7.495,7.495v49.205c0,4.122,3.373,7.495,7.495,7.495h8.938c4.122,0,7.495-3.373,7.495-7.495v-49.205
									C694.677,211.204,691.305,207.832,687.182,207.832L687.182,207.832z"/>
							</g>
							<g>
								<g>
									<ellipse style="opacity: .45; fill: #281f13" cx="681.215" cy="251.586" rx="6.384" ry="6.392"/>
									<path style="opacity: .45; fill: #281f13" d="M687.599,229.148c0-3.53-2.858-6.392-6.384-6.392
										c-3.526,0-6.384,2.862-6.384,6.392c0,3.53,2.858,6.392,6.384,6.392C684.741,235.54,687.599,232.678,687.599,229.148z"/>
									<path style="fill: #f2ede7" d="M689.097,227.605c0-3.53-2.858-6.392-6.384-6.392c-3.526,0-6.384,2.862-6.384,6.392
										c0,3.53,2.858,6.392,6.384,6.392C686.239,233.997,689.097,231.135,689.097,227.605z"/>
									<ellipse style="fill: #d7e296" cx="682.713" cy="250.086" rx="6.384" ry="6.392"/>
									<path style="fill: none; stroke: #b5bc6d; stroke-width: .7495px; stroke-miterlimit: 10" d="M687.993,250.086
										c0-2.919-2.364-5.286-5.28-5.286c-2.916,0-5.28,2.367-5.28,5.286c0,2.92,2.364,5.286,5.28,5.286
										C685.629,255.372,687.993,253.006,687.993,250.086z"/>
								</g>
							</g>
							<path style="fill: none; stroke: #c1b4a7; stroke-width: .7495px; stroke-miterlimit: 10" d="M687.993,227.605
								c0-2.92-2.364-5.286-5.28-5.286c-2.916,0-5.28,2.367-5.28,5.286c0,2.92,2.364,5.286,5.28,5.286
								C685.629,232.891,687.993,230.525,687.993,227.605z"/>
						</g>
					</g>
				</g>
				<g>
					<g>
						<polygon style="fill: #8c8c8c" points="649.36,382.064 633.548,382.064 633.549,362.605 462.271,362.869 462.271,382.064 
							446.46,382.064 446.46,63.448 649.36,63.448 						"/>
					</g>
					<g>
						<g>
							<rect x="462.271" y="85.761" style="fill: #595959" width="171.278" height="263.69"/>
						</g>
						<g>
							<rect x="462.271" y="102.068" style="fill: #b2b2b2" width="171.278" height="266.747"/>
						</g>
						<g>
							<polygon style="fill: #262626" points="633.549,368.815 462.271,368.815 490.851,345.341 604.968,345.341 							"/>
						</g>
						<g>
							<rect x="490.851" y="102.068" style="fill: #b7b7b7" width="114.117" height="243.273"/>
						</g>
					</g>
					<polygon style="fill: #a5a4a4" points="490.851,345.341 462.271,368.815 462.271,102.068 490.851,102.068 					"/>
					<polygon style="fill: #a5a4a4" points="604.968,345.341 633.549,368.815 633.549,102.068 604.968,102.068 					"/>
					<path style="opacity: .3; fill: #8c8c8c" d="M595.455,267.16h-95.506c-1.956,0-3.557-1.602-3.557-3.561l0,0
						c0-1.958,1.601-3.561,3.557-3.561h95.506c1.956,0,3.557,1.602,3.557,3.561l0,0C599.012,265.558,597.411,267.16,595.455,267.16z
						"/>
					<path style="fill: #727272" d="M595.455,263.599h-95.506c-1.956,0-3.557-1.602-3.557-3.561l0,0
						c0-1.959,1.601-3.561,3.557-3.561h95.506c1.956,0,3.557,1.602,3.557,3.561l0,0
						C599.012,261.997,597.411,263.599,595.455,263.599z"/>
					<rect x="492.188" y="102.068" style="fill: #c3e1e2" width="111.319" height="148.018"/>
					<polygon style="fill: #dcefef" points="519.242,250.086 496.954,250.086 556.878,102.068 579.165,102.068 					"/>
					<polygon style="fill: #dcefef" points="535.296,250.086 524.152,250.086 584.076,102.068 595.219,102.068 					"/>
					<rect x="491.386" y="336.842" style="fill: #7c7c7c" width="113.047" height="8.499"/>
					<g>
						<polygon style="fill: #717272" points="491.386,345.341 491.386,336.842 490.851,336.842 462.271,352.716 462.271,368.815 
													"/>
						<polygon style="fill: #b2b2b2" points="462.271,352.716 490.851,336.842 491.711,336.842 462.271,354.778 						"/>
					</g>
					<g>
						<polygon style="fill: #717272" points="604.433,337.04 604.923,336.842 633.503,352.716 633.503,368.815 604.433,345.341 
													"/>
						<polygon style="fill: #b2b2b2" points="633.547,352.716 604.967,336.842 604.107,336.842 633.547,354.778 						"/>
					</g>
					<g>
						<polygon style="fill: #c3e1e2" points="462.271,257.977 489.679,250.086 489.679,102.068 462.271,102.068 						"/>
						<polygon style="fill: #dcefef" points="476.991,102.068 464.315,257.413 470.624,255.572 483.409,102.068 						"/>
						<polygon style="fill: #dcefef" points="486.257,102.068 473.71,254.684 477.133,253.698 489.679,102.068 						"/>
					</g>
					<g>
						<polygon style="fill: #c3e1e2" points="633.549,257.977 606.14,250.086 606.14,102.068 633.549,102.068 						"/>
						<polygon style="fill: #dcefef" points="618.828,102.068 631.504,257.413 625.195,255.572 612.41,102.068 						"/>
						<polygon style="fill: #dcefef" points="609.562,102.068 622.109,254.684 618.686,253.698 606.14,102.068 						"/>
					</g>
					<g>
						<rect x="462.271" y="102.068" style="fill: #d1d1d1" width="11.439" height="266.747"/>
						<polygon style="fill: #595959" points="473.71,368.815 478.635,363.628 478.635,102.068 473.71,102.068 						"/>
					</g>
					<g>
						
							<rect x="622.064" y="102.068" transform="matrix(-1 -1.224647e-16 1.224647e-16 -1 1255.5671 470.8834)" style="fill: #d1d1d1" width="11.439" height="266.747"/>
					</g>
					<polygon style="fill: #b2b2b2" points="491.711,336.842 491.386,337.04 604.433,337.04 604.107,336.842 					"/>
				</g>
				<g>
					<g>
						<polygon style="fill: #8c8c8c" points="293.662,382.064 277.85,382.064 277.851,362.605 106.573,362.869 106.573,382.064 
							90.761,382.064 90.761,63.448 293.662,63.448 						"/>
					</g>
					<g>
						<g>
							<rect x="106.573" y="85.761" style="fill: #595959" width="171.278" height="263.69"/>
						</g>
						<g>
							<rect x="106.573" y="102.068" style="fill: #b2b2b2" width="171.278" height="266.747"/>
						</g>
						<g>
							<polygon style="fill: #262626" points="277.851,368.815 106.573,368.815 135.153,345.341 249.27,345.341 							"/>
						</g>
						<g>
							<rect x="135.153" y="102.068" style="fill: #b7b7b7" width="114.118" height="243.273"/>
						</g>
					</g>
					<polygon style="fill: #a5a4a4" points="135.153,345.341 106.573,368.815 106.573,102.068 135.153,102.068 					"/>
					<polygon style="fill: #a5a4a4" points="249.27,345.341 277.851,368.815 277.851,102.068 249.27,102.068 					"/>
					<path style="opacity: .3; fill: #8c8c8c" d="M239.757,267.16h-95.506c-1.956,0-3.557-1.602-3.557-3.561l0,0
						c0-1.958,1.6-3.561,3.557-3.561h95.506c1.956,0,3.557,1.602,3.557,3.561l0,0C243.314,265.558,241.713,267.16,239.757,267.16z"/>
					<path style="fill: #727272" d="M239.757,263.599h-95.506c-1.956,0-3.557-1.602-3.557-3.561l0,0c0-1.959,1.6-3.561,3.557-3.561
						h95.506c1.956,0,3.557,1.602,3.557,3.561l0,0C243.314,261.997,241.713,263.599,239.757,263.599z"/>
					<rect x="136.49" y="102.068" style="fill: #c3e1e2" width="111.318" height="148.018"/>
					<polygon style="fill: #dcefef" points="163.544,250.086 141.257,250.086 201.18,102.068 223.467,102.068 					"/>
					<polygon style="fill: #dcefef" points="179.598,250.086 168.454,250.086 228.378,102.068 239.521,102.068 					"/>
					<rect x="135.688" y="336.842" style="fill: #7c7c7c" width="113.047" height="8.499"/>
					<g>
						<polygon style="fill: #717272" points="135.688,345.341 135.688,336.842 135.153,336.842 106.573,352.716 106.573,368.815 
													"/>
						<polygon style="fill: #b2b2b2" points="106.573,352.716 135.153,336.842 136.013,336.842 106.573,354.778 						"/>
					</g>
					<g>
						<polygon style="fill: #717272" points="248.736,337.04 249.225,336.842 277.805,352.716 277.805,368.815 248.736,345.341 
													"/>
						<polygon style="fill: #b2b2b2" points="277.849,352.716 249.269,336.842 248.409,336.842 277.849,354.778 						"/>
					</g>
					<g>
						<polygon style="fill: #c3e1e2" points="106.573,257.977 133.981,250.086 133.981,102.068 106.573,102.068 						"/>
						<polygon style="fill: #dcefef" points="121.293,102.068 108.618,257.413 114.926,255.572 127.711,102.068 						"/>
						<polygon style="fill: #dcefef" points="130.559,102.068 118.012,254.684 121.435,253.698 133.981,102.068 						"/>
					</g>
					<g>
						<polygon style="fill: #c3e1e2" points="277.851,257.977 250.442,250.086 250.442,102.068 277.851,102.068 						"/>
						<polygon style="fill: #dcefef" points="263.13,102.068 275.806,257.413 269.497,255.572 256.712,102.068 						"/>
						<polygon style="fill: #dcefef" points="253.864,102.068 266.411,254.684 262.988,253.698 250.442,102.068 						"/>
					</g>
					<g>
						<rect x="106.573" y="102.068" style="fill: #d1d1d1" width="11.439" height="266.747"/>
					</g>
					<g>
						
							<rect x="266.366" y="102.068" transform="matrix(-1 -1.224647e-16 1.224647e-16 -1 544.1712 470.8834)" style="fill: #d1d1d1" width="11.439" height="266.747"/>
					</g>
					<polygon style="fill: #b2b2b2" points="136.013,336.842 135.688,337.04 248.736,337.04 248.409,336.842 					"/>
				</g>
			</g>
			<g>
				<g>
					<rect x="312.074" y="170.33" style="opacity: .3; fill: #421c24" width="29.861" height="24.58"/>
					<rect x="315.973" y="170.33" style="fill: #231b10" width="29.86" height="24.58"/>
					<g>
						<path style="fill: #382c18" d="M344.335,171.829v21.582h-26.863v-21.582H344.335 M345.834,170.33h-29.861v24.579h29.861
							V170.33L345.834,170.33z"/>
					</g>
				</g>
				
					<text transform="matrix(0.9988 0 0 1 321.2651 185.5474)" style="fill: #d5e068; font-family: VT323-Regular; font-size: 11.9988px">OPEN</text>
			</g>
			<g>
				<g>
					<path style="opacity: .3; fill: #421c24" d="M329.39,272.026h-8.938c-4.122,0-7.495-3.373-7.495-7.495v-49.205
						c0-4.122,3.373-7.495,7.495-7.495h8.938c4.122,0,7.495,3.373,7.495,7.495v49.205
						C336.885,268.654,333.512,272.026,329.39,272.026z"/>
					<g>
						<path style="fill: #8c8c8c" d="M334.442,272.026h-8.938c-4.122,0-7.495-3.373-7.495-7.495v-49.205
							c0-4.122,3.373-7.495,7.495-7.495h8.938c4.122,0,7.495,3.373,7.495,7.495v49.205
							C341.937,268.654,338.564,272.026,334.442,272.026z"/>
						<g>
							<path style="fill: #231b10" d="M334.442,209.331c3.306,0,5.996,2.69,5.996,5.996v49.205c0,3.306-2.69,5.996-5.996,5.996
								h-8.938c-3.306,0-5.996-2.69-5.996-5.996v-49.205c0-3.306,2.69-5.996,5.996-5.996H334.442 M334.442,207.832h-8.938
								c-4.122,0-7.495,3.373-7.495,7.495v49.205c0,4.122,3.373,7.495,7.495,7.495h8.938c4.122,0,7.495-3.373,7.495-7.495v-49.205
								C341.937,211.204,338.564,207.832,334.442,207.832L334.442,207.832z"/>
						</g>
						<g>
							<g>
								<ellipse style="opacity: .45; fill: #281f13" cx="328.475" cy="251.586" rx="6.384" ry="6.392"/>
								<path style="opacity: .45; fill: #281f13" d="M334.859,229.148c0-3.53-2.858-6.392-6.384-6.392
									c-3.526,0-6.384,2.862-6.384,6.392c0,3.53,2.858,6.392,6.384,6.392C332.001,235.54,334.859,232.678,334.859,229.148z"/>
								<path style="fill: #f2ede7" d="M336.357,227.605c0-3.53-2.858-6.392-6.384-6.392c-3.526,0-6.384,2.862-6.384,6.392
									c0,3.53,2.858,6.392,6.384,6.392C333.499,233.997,336.357,231.135,336.357,227.605z"/>
								<path style="fill: #d7e296" d="M336.357,250.086c0-3.53-2.858-6.392-6.384-6.392c-3.526,0-6.384,2.861-6.384,6.392
									c0,3.53,2.858,6.392,6.384,6.392C333.499,256.478,336.357,253.616,336.357,250.086z"/>
								<path style="fill: none; stroke: #b5bc6d; stroke-width: .7495px; stroke-miterlimit: 10" d="M335.253,250.086
									c0-2.919-2.364-5.286-5.28-5.286c-2.916,0-5.28,2.367-5.28,5.286c0,2.92,2.364,5.286,5.28,5.286
									C332.889,255.372,335.253,253.006,335.253,250.086z"/>
							</g>
						</g>
						
							<ellipse style="fill: none; stroke: #c1b4a7; stroke-width: .7495px; stroke-miterlimit: 10" cx="329.973" cy="227.605" rx="5.28" ry="5.286"/>
					</g>
				</g>
			</g>
			<g>
				<g>
					<path style="fill: #f7dd9c" d="M580.592,357.272c1.214,0.655,2.438,1.315,3.755,1.727c1.157,0.362,2.412,0.546,3.381,1.272
						c0.517,0.387,0.903,1.009,1.022,1.636c0.105,0.55,0.006,1.105-0.387,1.512c-0.37,0.384-0.91,0.548-1.43,0.667
						c-5.192,1.185-10.574-0.65-15.899-0.563c-1.57,0.025-3.161,0.217-4.696-0.108c-0.184-0.039-0.377-0.091-0.509-0.225
						c-0.187-0.189-0.201-0.484-0.204-0.75c-0.002-0.225-0.005-0.45-0.006-0.676c-0.018-2.611,0.055-5.274,1.087-7.659
						c0.184-0.425,0.469-0.889,0.929-0.942c0.267-0.03,0.524,0.091,0.774,0.189c2.005,0.784,3.869-0.65,5.689,0.397
						C576.231,354.974,578.426,356.102,580.592,357.272z"/>
					<path style="fill: #252a30" d="M565.619,361.762c0.002,0.226,0.004,0.451,0.006,0.676c0.003,0.266,0.017,0.561,0.204,0.75
						c0.132,0.134,0.325,0.186,0.509,0.225c1.536,0.325,3.127,0.134,4.696,0.108c5.325-0.086,10.707,1.748,15.899,0.563
						c0.52-0.119,1.06-0.282,1.43-0.667c0.393-0.407,0.491-0.962,0.387-1.512c-0.361,0.379-0.695,0.536-1.198,0.679
						c-2.659,0.756-5.484,0.662-8.232,0.363c-2.748-0.299-5.483-0.797-8.247-0.83C569.318,362.098,567.349,362.056,565.619,361.762z
						"/>
					<path style="fill: #252a30" d="M573.572,349.391c-0.026,1.549-0.085,3.098-0.175,4.645c-0.017,0.299-0.052,0.631-0.277,0.828
						c-0.156,0.136-0.372,0.177-0.576,0.208c-1.424,0.216-2.764,0.203-4.169-0.094c-0.104-0.022-0.213-0.046-0.295-0.114
						c-0.131-0.108-0.221-0.301-0.174-0.465c0.576-2.012,1.094-3.962,1.29-6.07c1.464-0.013,2.928,0.014,4.39,0.081
						C573.582,348.737,573.578,349.064,573.572,349.391z"/>
					<path style="fill: none; stroke: #292640; stroke-width: .7526px; stroke-linecap: round; stroke-miterlimit: 10" d="M576.456,354.71
						c-0.438,0.695-0.828,1.421-1.167,2.17"/>
					<path style="fill: none; stroke: #292640; stroke-width: .7526px; stroke-linecap: round; stroke-miterlimit: 10" d="M578.188,355.425
						c-0.111,0.673-0.26,1.34-0.447,1.995"/>
					<path style="fill: #edc15f" d="M572.183,358.177c0-0.662-0.537-1.199-1.199-1.199c-0.662,0-1.199,0.537-1.199,1.199
						c0,0.662,0.537,1.199,1.199,1.199C571.646,359.376,572.183,358.84,572.183,358.177z"/>
				</g>
				<g>
					<path style="fill: #f7dd9c" d="M541.547,357.272c-1.214,0.655-2.438,1.315-3.755,1.727c-1.157,0.362-2.412,0.546-3.382,1.272
						c-0.517,0.387-0.902,1.009-1.022,1.636c-0.105,0.55-0.006,1.105,0.387,1.512c0.37,0.384,0.91,0.548,1.43,0.667
						c5.192,1.185,10.574-0.65,15.899-0.563c1.57,0.025,3.161,0.217,4.696-0.108c0.184-0.039,0.377-0.091,0.509-0.225
						c0.187-0.189,0.201-0.484,0.204-0.75c0.003-0.225,0.005-0.45,0.006-0.676c0.018-2.611-0.055-5.274-1.087-7.659
						c-0.184-0.425-0.469-0.889-0.929-0.942c-0.267-0.03-0.524,0.091-0.774,0.189c-2.005,0.784-3.869-0.65-5.689,0.397
						C545.907,354.974,543.712,356.102,541.547,357.272z"/>
					<path style="fill: #252a30" d="M556.519,361.762c-0.002,0.226-0.004,0.451-0.006,0.676c-0.003,0.266-0.017,0.561-0.204,0.75
						c-0.132,0.134-0.325,0.186-0.509,0.225c-1.536,0.325-3.126,0.134-4.696,0.108c-5.325-0.086-10.707,1.748-15.899,0.563
						c-0.52-0.119-1.06-0.282-1.43-0.667c-0.393-0.407-0.491-0.962-0.387-1.512c0.361,0.379,0.695,0.536,1.198,0.679
						c2.659,0.756,5.484,0.662,8.232,0.363c2.748-0.299,5.482-0.797,8.247-0.83C552.82,362.098,554.789,362.056,556.519,361.762z"/>
					<path style="fill: #252a30" d="M548.566,349.391c0.026,1.549,0.085,3.098,0.175,4.645c0.018,0.299,0.052,0.631,0.277,0.828
						c0.156,0.136,0.371,0.177,0.576,0.208c1.424,0.216,2.764,0.203,4.169-0.094c0.104-0.022,0.213-0.046,0.295-0.114
						c0.131-0.108,0.221-0.301,0.174-0.465c-0.576-2.012-1.094-3.962-1.29-6.07c-1.464-0.013-2.928,0.014-4.39,0.081
						C548.557,348.737,548.561,349.064,548.566,349.391z"/>
					<path style="fill: none; stroke: #292640; stroke-width: .7526px; stroke-linecap: round; stroke-miterlimit: 10" d="M545.682,354.71
						c0.438,0.695,0.829,1.421,1.167,2.17"/>
					<path style="fill: none; stroke: #292640; stroke-width: .7526px; stroke-linecap: round; stroke-miterlimit: 10" d="M543.95,355.425
						c0.111,0.673,0.26,1.34,0.447,1.995"/>
					<path style="fill: #edc15f" d="M549.955,358.177c0-0.662,0.537-1.199,1.199-1.199c0.662,0,1.199,0.537,1.199,1.199
						c0,0.662-0.537,1.199-1.199,1.199C550.492,359.376,549.955,358.84,549.955,358.177z"/>
				</g>
				<path style="fill: #f9b377" d="M505.879,252.294c-0.61,1.309-0.736,2.783-0.854,4.222c-0.185,2.262-0.37,4.525-0.554,6.787
					c0.914-0.024,1.696-0.736,2.078-1.566c0.383-0.83,0.444-1.767,0.5-2.68c-0.028,1.441,0.313,2.888,0.982,4.164
					c1.034-0.902,1.565-2.347,1.361-3.704c0.469,0.454,1.251,0.459,1.821,0.142c0.57-0.317,0.954-0.892,1.211-1.491
					c1.205-2.809-0.015-6.161,0.972-9.054c0.531-1.555,1.649-2.826,2.741-4.053c-0.491-1.004-1.962-1.068-2.953-0.552
					c-1.631,0.848-2.629,2.243-3.815,3.557C508.145,249.424,506.668,250.601,505.879,252.294z"/>
				<path style="fill: #f9b377" d="M603.947,175.392c0.023-0.031,0.046-0.062,0.069-0.093c0.271-0.364,0.682-0.751,1.115-0.614
					c0.401,0.127,0.536,0.622,0.571,1.041c0.074,0.881-0.013,1.774-0.256,2.624c0.267-0.933,1.372-1.799,2.067-2.415
					c0.839-0.743,1.766-1.384,2.74-1.937c1.98-1.123,4.151-1.89,6.36-2.417c0.351-0.084,0.72-0.16,1.068-0.068
					c0.349,0.092,0.667,0.404,0.64,0.764c-0.02,0.279-0.231,0.503-0.439,0.691c-2.213,1.997-5.359,2.644-7.698,4.492
					c0.775-0.452,1.66-0.715,2.556-0.76c0.127-0.006,0.273-0.001,0.355,0.097c0.089,0.107,0.056,0.266,0.013,0.398
					c-0.275,0.857-0.745,1.652-1.365,2.305c0.342-0.361,1.551,0.066,1.693,0.48c0.194,0.565-0.628,1.461-1.007,1.779
					c0.358-0.118,0.723-0.237,1.1-0.246c0.139-0.003,0.284,0.011,0.4,0.087c0.151,0.099,0.222,0.285,0.243,0.464
					c0.051,0.431-0.135,0.864-0.411,1.199c-0.276,0.335-0.635,0.59-0.99,0.84c-1.447,1.019-2.866,1.998-4.433,2.833
					c-1.445,0.771-3.031,1.469-4.66,1.3c-0.533-0.055-1.073-0.213-1.479-0.564c-0.707-0.61-0.848-1.642-0.86-2.576
					c-0.011-0.91,0.076-1.821,0.246-2.715c0.156-0.823,0.207-1.63,0.371-2.449C602.284,178.301,602.966,176.739,603.947,175.392z"/>
				<path style="fill: #f9b377" d="M605.564,186.332c-1.26,6.413-2.521,12.826-3.781,19.239c-0.242,1.23-0.487,2.472-0.992,3.619
					c-1.061,2.413-3.035,3.297-5.554,3.596c-0.887,0.105-1.816,0.031-2.617-0.364c0.353-1.62,0.787-3.223,1.3-4.799
					c0.222-0.682,0.398-1.49,0.783-2.097c0.299-0.472,0.727-0.872,1.018-1.372c3.367-5.78,5.338-12.367,5.696-19.047
					c0.781-0.122,1.454,0.067,2.191,0.354c0.345,0.135,0.691,0.269,1.036,0.404C604.938,185.979,605.287,186.179,605.564,186.332z"/>
				<path style="fill: #111110" d="M548.42,353.152c2.177,0.402,4.458,0.394,6.631-0.026c1.138-30.75-1.217-61.725,4.156-92.151
					c1.239-0.017,2.477-0.034,3.716-0.051c2.695,15.374,4.05,30.894,4.749,46.419c0.672,14.927,1.994,30.466,0.267,45.334
					c1.949,0.392,4.005,0.393,5.955,0.003c0.604-0.121,0.785-12.026,0.858-13.326c0.281-4.952,0.564-9.904,0.845-14.856
					c0.575-10.102,1.149-20.204,1.724-30.307c0.985-17.315,1.971-34.659,1.097-51.978c-5.756-0.363-11.528-0.541-17.3-0.536
					c-2.771,0.002-5.541,0.047-8.31,0.134c-0.587,0.019-8.657-0.283-8.673-0.128c-0.718,6.873,0.564,13.421,0.625,20.276
					c0.173,19.612,0.741,39.221,1.705,58.816c0.266,5.399,0.561,10.796,0.887,16.192
					C547.443,338.454,547.618,353.004,548.42,353.152z"/>
				<path style="fill: #fff" d="M546.553,244.736c-0.013,0.652-0.021,1.327,0.24,1.924c1.466,3.352,9.008,3.213,11.959,3.148
					c2.722-0.06,5.436-0.47,8.052-1.226c1.824-0.527,6.204-1.508,7.214-3.253c0.289-0.5,0.319-1.102,0.341-1.679
					c0.625-16.084,0.888-32.182,0.788-48.278c-0.021-3.37-0.061-6.771-0.818-10.055c-0.232-1.008-0.545-2.029-1.19-2.838
					c-1.67-2.096-4.81-2.052-7.481-1.819c-4.984,0.434-11.667-0.153-16.392,1.427c-2.308,0.772-1.647,0.863-1.571,3.182
					c0.087,2.694-0.069,5.413-0.122,8.109c-0.219,11.012-0.437,22.025-0.656,33.037C546.796,232.523,546.675,238.63,546.553,244.736
					z"/>
				<path style="fill: #f9b377" d="M552.391,167.247c1.203,4.643,1.301,9.568,0.283,14.256c-0.033,0.153-0.066,0.321,0.008,0.46
					c0.068,0.128,0.21,0.196,0.343,0.254c4.197,1.821,9.22,1.618,13.256-0.536c-1.206-1.33-1.613-3.191-1.825-4.973
					c-0.262-2.2-0.297-4.427-0.103-6.634L552.391,167.247z"/>
				<path style="fill: #bc3b3b" d="M544.165,180.657c-3.2,1.014-6.732,1.787-10.078,1.757c-0.444,10.902-0.932,22.027-4.812,32.225
					c-1.183,3.109-2.669,6.094-3.95,9.165c-2.783,6.674-7.047,12.557-11.977,17.839c-1.342,1.437-2.683,2.875-4.024,4.312
					c1.162,1.288,3.75,3.702,5.677,3.473c1.873-0.223,3.23-2.861,4.336-4.251c6.35-7.976,11.426-16.281,15.696-25.529
					c0.947-2.051,1.861-4.118,2.741-6.199c0.631-1.493,2.691-4.693,2.539-6.284c1.507,15.71,1.156,31.615-0.869,47.267
					c3.98,1.385,8.406,1.452,12.426,0.188c0.218-7.285,0.381-14.572,0.489-21.86c0.121-8.182,0.3-16.315,0.532-24.485
					c0.237-8.331,0.711-16.694,0.711-25.028c0.074-2.602,0.076-5.282-0.239-7.867c-1.887,1.682-3.997,3.101-6.281,4.158
					c-0.827,0.383-1.677,0.718-2.548,1.001C544.411,180.579,544.289,180.618,544.165,180.657z"/>
				<path style="opacity: .1; fill: #252a30" d="M552.89,208.274c0.237-8.331,0.711-16.694,0.711-25.028
					c0.074-2.602,0.076-5.282-0.239-7.867c-1.887,1.682-3.997,3.101-6.281,4.158c0.005,1.243-0.132,2.432-0.127,3.675
					c1.225,0.315,2.474,0.533,3.733,0.653c-0.736,0.632-1.472,1.265-2.207,1.897c-0.16,0.137-0.325,0.282-0.406,0.477
					c-0.094,0.226-0.061,0.482-0.026,0.725c0.316,2.179,0.632,4.357,0.948,6.536C549.738,198.622,550.601,203.632,552.89,208.274z"/>
				<path style="fill: #bc3b3b" d="M569.454,254.414c4.498,0.593,9.109,0.322,13.507-0.794c-0.198-18.006-0.395-36.012-0.593-54.018
					c2.828,5.088,6.202,9.872,10.045,14.244c0.551,0.627,1.149,1.271,1.942,1.531c1.98,0.65,3.784-1.321,4.857-3.107
					c2.868-4.776,5.018-9.982,6.37-15.386c0.403-1.611,2.009-5.872,1.044-7.369c-0.948-1.472-5.728-1.798-7.307-1.96
					c-0.416,2.942-0.954,5.867-1.611,8.765c-0.561,2.473-1.248,5.008-2.831,6.988c-2.942-4.203-5.215-8.872-6.718-13.777
					c-0.28-0.915-2.535-10.281-2.524-10.28c-4.938-0.229-10.217-0.531-15.029-2.031c-2.242-0.699-4.383-1.658-6.34-2.991
					c0.248,11.852,2,23.592,3.335,35.369c0.628,5.536,1.163,11.079,1.407,16.646c0.244,5.563,0.839,11.354,0.681,16.885
					C569.667,243.917,569.092,254.366,569.454,254.414z"/>
				<path style="opacity: .1; fill: #252a30" d="M567.6,209.597c-1.335-11.777-3.087-23.517-3.335-35.369
					c1.957,1.333,4.098,2.292,6.34,2.991c0.819,2.089,1.419,4.243,1.544,6.484c-1.185-0.185-2.39-0.248-3.588-0.188
					c0.944,0.753,2.044,1.31,3.209,1.626c-0.509,4.802-1.018,9.604-1.527,14.405c-0.191,1.798-0.382,3.6-0.778,5.364
					C569.085,206.602,568.342,208.03,567.6,209.597z"/>
				<path style="opacity: .45; fill: #421c24" d="M564.242,172.613c0.007-0.841,0.037-1.682,0.11-2.519l-11.562-1.484
					C555.358,172.049,560.089,173.68,564.242,172.613z"/>
				<g>
					<path style="fill: #f9b377" d="M551.455,167.507c2.853,3.975,8.555,4.43,13.424,3.946c2.907-0.289,6.108-0.964,7.804-3.343
						c1.566-2.197,1.351-5.152,1.069-7.836c-0.437-4.168-0.894-8.414-2.579-12.252c-1.146-2.61-3.467-6.201-6.268-7.295
						c-3.215-1.255-8.28-0.316-11.494,0.507c-1.281,0.328-2.559,0.756-3.651,1.503c-1.316,0.901-2.293,2.22-3.063,3.616
						c-1.688,3.062-2.477,6.659-1.962,10.117C545.446,161.227,548.848,163.873,551.455,167.507z"/>
					<path style="fill: #7c4d15" d="M550.859,136.697c0.426,0.049,0.872,0.144,1.271-0.012c0.46-0.18,0.731-0.642,1.017-1.044
						c1.955-2.747,6.231-3.473,8.983-1.524c1.51-1.426,3.767-2.013,5.78-1.504c2.014,0.51,3.719,2.099,4.369,4.072
						c0.146,0.442,0.257,0.927,0.6,1.241c0.826,0.755,2.112-0.037,2.924-0.807c-0.573,2.963,0.923,6.108,0.041,8.994
						c-0.629,2.058-2.41,3.617-4.401,4.433c-1.992,0.816-4.187,0.981-6.339,0.996c-4.459,0.031-8.922-0.541-13.229-1.696
						c-1.09,2.504-0.837,5.548,0.652,7.837c-0.727,0.23-1.287,0.093-1.91-0.346c-0.448-0.316-0.918-0.682-1.467-0.679
						c-0.474,0.002-0.911,0.295-1.189,0.679c-0.278,0.384-0.416,0.85-0.512,1.314c-0.202,0.974-0.223,2.037,0.255,2.91
						c0.478,0.872,1.57,1.458,2.5,1.107c-0.309,0.119,0.527,3.833,0.606,4.18c-0.396-0.046-0.749-0.262-1.084-0.48
						c-2.967-1.927-5.792-4.123-7.335-7.426c-1.567-3.354-1.181-7.893,1.795-10.095c-0.362,0.268-0.087-6.589,0.42-7.709
						C545.755,138.599,547.763,136.338,550.859,136.697z"/>
					<path style="fill: #7c4d15" d="M557.072,155.511c0,0,3.688-2.95,5.654-0.819L557.072,155.511z"/>
					<path style="fill: #7c4d15" d="M566.8,154.715l3.438,0.36C570.239,155.075,567.109,152.864,566.8,154.715z"/>
					<g>
						<path style="fill: #494037" d="M558.818,159.075c-0.082-0.511,0.122-1.06,0.519-1.464c0.388-0.414,1.04-0.61,1.633-0.533
							c0.575,0.126,1.151,0.484,1.378,1.064c0.202,0.564,0.128,1.034,0.041,1.531l-0.054,0.008
							c-0.098-0.453-0.141-0.934-0.359-1.339c-0.221-0.4-0.648-0.663-1.095-0.728c-0.448-0.086-0.922,0.045-1.283,0.33
							c-0.364,0.28-0.621,0.695-0.728,1.143L558.818,159.075z"/>
					</g>
					<g>
						<path style="fill: #494037" d="M569.918,158.576c-0.096-0.406-0.329-0.781-0.658-1.034c-0.326-0.258-0.755-0.376-1.16-0.298
							c-0.405,0.059-0.791,0.296-0.991,0.659c-0.197,0.367-0.236,0.802-0.324,1.212l-0.049-0.007
							c-0.079-0.45-0.145-0.875,0.037-1.385c0.206-0.525,0.727-0.849,1.246-0.963c0.537-0.07,1.126,0.108,1.477,0.482
							c0.359,0.365,0.543,0.862,0.469,1.324L569.918,158.576z"/>
					</g>
					<path style="opacity: .45; fill: #421c24" d="M565.9,162.837c0.348,0.325,0.878,0.327,1.353,0.31
						c0.357-0.013,0.747-0.039,1.008-0.282c-0.303,0.281-2.886-3.009-3.126-3.304C564.962,160.508,565.163,162.149,565.9,162.837z"/>
				</g>
				<path style="opacity: .45; fill: #421c24" d="M548.344,160.424c0.07,0.233,0.212,0.469,0.443,0.543
					c0.197,0.063,0.42-0.011,0.575-0.148c0.155-0.138,0.251-0.33,0.318-0.526c0.178-0.522,0.128-1.858-0.738-1.64
					C548.287,158.818,548.189,159.91,548.344,160.424z"/>
				<path style="fill: #42afb2" d="M557.289,168.677c-0.063,0.245-0.124,0.507-0.049,0.748c0.128,0.411,0.582,0.587,0.983,0.697
					c4.267,1.173,8.87,0.982,13.034-0.543c0.244-0.089,0.494-0.188,0.681-0.374c0.222-0.221,0.328-0.538,0.419-0.844
					c0.488-1.65,0.754-3.37,0.789-5.096c0.005-0.249,0.003-0.507-0.099-0.732c-0.175-0.385-0.591-0.57-0.975-0.715
					c-1.576-0.595-3.217-1.057-4.892-1.105c-1.109-0.032-2.215,0.118-3.316,0.268c-1.625,0.221-3.695,0.15-5.223,0.774
					c-0.062,0.025-0.124,0.055-0.168,0.106c-0.057,0.067-0.074,0.161-0.089,0.25c-0.177,1.119-0.086,2.257-0.304,3.356
					C557.865,166.548,557.562,167.61,557.289,168.677z"/>
				<path style="fill: none; stroke: #d3efef; stroke-width: .3043px; stroke-linecap: round; stroke-miterlimit: 10" d="M550.903,157.023
					c1.588,0.893,3.176,1.786,4.764,2.678c1.168,0.656,2.37,1.343,3.174,2.414"/>
				<path style="fill: none; stroke: #d3efef; stroke-width: .3043px; stroke-linecap: round; stroke-miterlimit: 10" d="M549.041,163.743
					c0.529,0.944,1.456,1.587,2.368,2.17c1.093,0.699,2.21,1.361,3.326,2.023c0.973,0.577,1.979,1.166,3.099,1.326"/>
				<path style="fill: none; stroke: #d3efef; stroke-width: .3043px; stroke-linecap: round; stroke-miterlimit: 10" d="M572.66,162.469
					c0.542-0.497,0.964-1.123,1.219-1.812"/>
				<path style="fill: none; stroke: #d3efef; stroke-width: .3043px; stroke-linecap: round; stroke-miterlimit: 10" d="M571.997,168.38
					c0.639-0.385,1.178-0.936,1.548-1.584"/>
				<g style="opacity: .1">
					<path style="fill: #252a30" d="M560.407,163.131c1.746-0.684,3.634-0.976,5.513-0.995c1.878-0.002,3.77,0.27,5.523,0.937
						c-1.86-0.196-3.684-0.346-5.519-0.328C564.088,162.745,562.265,162.914,560.407,163.131z"/>
				</g>
				<g style="opacity: .1">
					<path style="fill: #252a30" d="M559.587,165.371c2.007-0.094,3.988-0.109,5.973-0.18c1.985-0.054,3.964-0.163,5.973-0.194
						c-1.946,0.508-3.95,0.73-5.954,0.802C563.575,165.852,561.561,165.755,559.587,165.371z"/>
				</g>
				<g style="opacity: .1">
					<path style="fill: #252a30" d="M560.746,167.531c1.477-0.038,2.914-0.026,4.356-0.095c1.443-0.052,2.873-0.182,4.348-0.265
						c-1.374,0.554-2.849,0.803-4.323,0.872C563.652,168.095,562.161,167.968,560.746,167.531z"/>
				</g>
				<g style="opacity: .1">
					<path style="fill: #252a30" d="M563.482,169.319c0.963-0.073,1.864-0.103,2.771-0.21c0.908-0.091,1.795-0.255,2.751-0.389
						c-0.778,0.583-1.729,0.882-2.686,0.993C565.36,169.809,564.367,169.72,563.482,169.319z"/>
				</g>
			</g>
			<g>
				<path style="fill: #f9b377" d="M136.625,330.127c0.291,3.525,0.464,7.059,0.518,10.595c0.044,2.885,0.308,6.182-1.453,8.65
					c-1.001,1.404-2.407,2.474-3.89,3.355c-0.72,0.428-1.471,0.821-2.095,1.38s-1.12,1.32-1.153,2.157
					c-0.012,0.309,0.05,0.641,0.267,0.862c0.113,0.114,0.258,0.19,0.404,0.257c1.95,0.898,4.243,0.602,6.296-0.029
					c2.052-0.631,4.014-1.578,6.126-1.968c0.836-0.154,1.716-0.228,2.449-0.66c1.504-0.885,0.97-2.701,0.58-4.06
					c-1.896-6.609-1.932-13.636-2.454-20.451L136.625,330.127z"/>
				<path style="fill: #236c8c" d="M144.673,350.666c0.39,1.359,0.924,3.175-0.58,4.06c-0.733,0.431-1.612,0.505-2.449,0.66
					c-2.111,0.389-4.074,1.337-6.126,1.968c-2.052,0.631-4.345,0.926-6.296,0.029c-0.146-0.067-0.292-0.143-0.404-0.257
					c-0.217-0.22-0.279-0.553-0.267-0.862c0.033-0.837,0.529-1.598,1.153-2.157s1.375-0.952,2.095-1.38
					c0.385,0.49,1.007,0.79,1.612,0.939c1.883,0.462,3.888,0.183,5.719-0.454C140.963,352.575,142.997,351.641,144.673,350.666z"/>
				<path style="fill: #f9b377" d="M161.535,330.127c0.291,3.525,0.464,7.059,0.518,10.595c0.044,2.885,0.308,6.182-1.453,8.65
					c-1.001,1.404-2.407,2.474-3.89,3.355c-0.72,0.428-1.471,0.821-2.095,1.38s-1.12,1.32-1.153,2.157
					c-0.012,0.309,0.05,0.641,0.267,0.862c0.113,0.114,0.258,0.19,0.404,0.257c1.95,0.898,4.243,0.602,6.296-0.029
					c2.052-0.631,4.014-1.578,6.126-1.968c0.836-0.154,1.716-0.228,2.449-0.66c1.504-0.885,0.97-2.701,0.58-4.06
					c-1.896-6.609-1.932-13.636-2.454-20.451L161.535,330.127z"/>
				<path style="fill: #236c8c" d="M169.584,350.666c0.39,1.359,0.924,3.175-0.58,4.06c-0.733,0.431-1.612,0.505-2.449,0.66
					c-2.111,0.389-4.074,1.337-6.126,1.968c-2.052,0.631-4.345,0.926-6.296,0.029c-0.146-0.067-0.292-0.143-0.404-0.257
					c-0.217-0.22-0.279-0.553-0.267-0.862c0.033-0.837,0.529-1.598,1.153-2.157s1.375-0.952,2.095-1.38
					c0.385,0.49,1.007,0.79,1.612,0.939c1.883,0.462,3.888,0.183,5.719-0.454C165.873,352.575,167.907,351.641,169.584,350.666z"/>
				<path style="fill: #252a30" d="M135.958,236.021c-4.652,31.809-4.599,64.301,0.158,96.094c2.293,0.18,4.586,0.36,6.879,0.541
					c2.1-24.083,4.782-48.201,10.55-71.678c3.184,23.77,6.953,48.046,7.25,72.027c3.593,0.418,3.093,1.026,6.68,0.566
					c1.85-20.333,5.821-41.609,7.672-61.942c0.65-7.144,1.3-14.345,0.529-21.477c-0.786-7.271-3.038-14.316-5.847-21.069
					c-9.859,0.071-19.721-0.44-29.519-1.531L135.958,236.021z"/>
				<g>
					<g>
						<path style="fill: #f7dd9c" d="M133.812,224.244c-0.803,2.688-1.952,5.575-0.941,8.192c0.732,1.894,2.506,3.233,4.417,3.917
							c1.912,0.684,3.972,0.801,6,0.895c6.945,0.321,13.9,0.444,20.852,0.367c2.85-0.031,5.896-0.158,8.211-1.821
							c2.296-1.649,3.416-4.544,3.646-7.361c0.23-2.817-0.305-5.632-0.69-8.432c-1.107-8.053-0.977-16.224-0.596-24.344
							c0.166-3.546,0.377-7.14-0.354-10.614c-0.73-3.474-2.538-6.882-5.569-8.731c-2.504-1.527-5.562-1.844-8.494-1.765
							c-8.063,0.218-16.981,3.299-22.872,8.98c-2.634,2.54-2.174,7.607-2.227,11.098c-0.071,4.706,0.256,9.406,0.311,14.111
							C135.569,213.946,135.312,219.22,133.812,224.244z"/>
						<path style="fill: #f9b377" d="M130.428,181.252c-0.791,2.088-1.456,4.193-1.325,6.671c0.039,0.73,0.18,1.544,0.774,1.971
							c0.624,0.448,1.488,0.283,2.211,0.023c1.682-0.605,3.296-1.735,3.909-3.414c0.313-0.858,0.342-1.79,0.367-2.703
							c0.081-2.914,1.78-8.304-1.894-9.757c-0.258-0.102-0.537-0.176-0.811-0.137c-0.862,0.121-1.19,1.166-1.39,2.013
							C131.82,177.819,131.081,179.53,130.428,181.252z"/>
						<path style="fill: #382c18" d="M133.745,143.483c-2.264,5.421-2.244,11.754,0.056,17.16c0.656,1.543,1.489,3.014,1.996,4.612
							c0.743,2.345,0.749,4.851,0.749,7.312c1.387-2.731,4.162-4.711,7.196-5.134c1.049-0.146,2.154-0.127,3.105-0.594
							c0.812-0.399,1.422-1.112,1.969-1.832c5.993-7.888,7.024-19.241,2.549-28.08C146.118,126.564,136.676,136.468,133.745,143.483
							z"/>
						<path style="opacity: .45; fill: #111110" d="M133.745,143.483c-2.264,5.421-2.244,11.754,0.056,17.16
							c0.656,1.543,1.489,3.014,1.996,4.612c0.743,2.345,0.749,4.851,0.749,7.312c1.387-2.731,4.162-4.711,7.196-5.134
							c1.049-0.146,2.154-0.127,3.105-0.594c0.812-0.399,1.422-1.112,1.969-1.832c5.993-7.888,7.024-19.241,2.549-28.08
							C146.118,126.564,136.676,136.468,133.745,143.483z"/>
						<path style="fill: #f9b377" d="M142,151.061c-0.652,4.006-1.137,8.638,1.536,11.642c2.027,2.278,5.283,2.869,8.292,2.992
							c1.866,0.077,3.798,0.011,5.495-0.783c1.643-0.769,2.931-2.161,4-3.652c3.802-5.304,5.182-12.725,2.29-18.598
							c-0.613-1.245-1.421-2.421-2.524-3.241c-1.13-0.84-2.505-1.261-3.871-1.56c-3.058-0.67-6.326-0.785-9.244,0.365
							C141.747,140.678,142.888,145.599,142,151.061z"/>
						<g>
							<path style="fill: #f9b377" d="M142.674,188.319c3.777,7.372,7.553,14.743,11.33,22.115c0.725,1.414,1.457,2.841,2.473,4.062
								c1.158,1.392,3.045,2.89,4.983,2.584c1.142-0.18,2.08-1.027,2.717-1.992c0.646-0.978,1.058-2.144,0.974-3.312
								c-0.168-2.318-2.731-3.725-4.258-5.188c-6.123-5.864-10.825-13.201-13.597-21.212c-0.995,0.124-1.747,0.59-2.545,1.198
								c-0.374,0.285-0.748,0.57-1.122,0.854C143.312,187.67,142.957,188.036,142.674,188.319z"/>
						</g>
						<path style="fill: #f7dd9c" d="M126.661,188.694c-0.511,3.229-1.419,6.395-2.695,9.405c-1.047,2.466-2.354,4.875-2.749,7.525
							c-0.394,2.65,0.368,5.697,2.641,7.115c0.864,0.538,1.875,0.8,2.887,0.912c2.739,0.302,5.688-0.557,7.505-2.629
							c1.776-2.025,2.26-4.853,2.53-7.533c0.282-2.8,0.41-5.616,0.381-8.43c-0.022-2.146-0.159-4.381-1.211-6.251
							c-0.915-1.626-3.379-4.15-5.276-4.581C127.852,183.584,127.003,186.53,126.661,188.694z"/>
						<path style="opacity: .1; fill: #252a30" d="M145.488,201.488c1.857,3.229,2.562,6.973,3.827,10.477
							c1.265,3.504,3.355,7.029,6.795,8.459c2.071,0.861,4.411,0.857,6.619,0.468c1.08-0.19,2.159-0.475,3.111-1.019
							c2.398-1.37,3.61-4.126,4.44-6.76c0.781-2.477,1.367-5.015,1.75-7.584c-4.517-0.205-8.812-2.024-12.751-4.244
							c-3.939-2.22-7.634-4.864-11.648-6.946c-0.986-0.511-2.033-0.998-3.144-0.995C138.86,193.359,144.433,199.653,145.488,201.488
							z"/>
						<path style="fill: #252a30" d="M150.711,151.158c0,0,2.018-2.291,4.414,0.619
							C155.125,151.777,153.002,150.229,150.711,151.158z"/>
						<path style="fill: #252a30" d="M145.811,150.713c0,0-1.954-2.4-3.908,0.326C141.903,151.039,144.04,149.919,145.811,150.713z"/>
						<g>
							<path style="fill: #494037" d="M150.621,155.312c-0.141-0.538-0.17-1.134,0.183-1.733c0.16-0.298,0.452-0.544,0.825-0.691
								c0.39-0.137,0.8-0.085,1.121,0.02c0.628,0.24,1.13,0.694,1.38,1.265c0.123,0.283,0.205,0.577,0.23,0.872
								c-0.009,0.302-0.03,0.594-0.168,0.853l-0.066-0.003c0.032-1.021-0.639-2.031-1.594-2.361c-0.469-0.2-1.016-0.038-1.325,0.369
								c-0.324,0.391-0.431,0.916-0.52,1.419L150.621,155.312z"/>
						</g>
						<g>
							<path style="fill: #494037" d="M145.247,154.445c-0.062-0.41-0.14-0.847-0.437-1.138c-0.141-0.154-0.336-0.222-0.542-0.223
								c-0.198-0.04-0.411-0.002-0.607,0.044c-0.403,0.086-0.747,0.369-0.883,0.764c-0.146,0.387-0.179,0.814-0.253,1.228
								l-0.051-0.008c-0.105-0.445-0.173-0.858-0.069-1.361c0.08-0.521,0.628-0.994,1.129-1.121
								c0.271-0.048,0.491-0.074,0.792-0.012c0.266,0.023,0.613,0.149,0.769,0.407c0.354,0.474,0.319,0.988,0.203,1.413
								L145.247,154.445z"/>
						</g>
						<path style="opacity: .45; fill: #421c24" d="M145.026,158.212c-0.039,0.025-0.079,0.053-0.097,0.096
							c-0.019,0.048-0.004,0.102,0.012,0.15c0.104,0.3,0.292,0.583,0.567,0.741c0.276,0.158,0.647,0.169,0.9-0.024
							c0.25-0.19,0.337-0.524,0.383-0.834c0.067-0.452,0.076-0.936-0.139-1.338c-0.014-0.026-0.03-0.053-0.055-0.069
							C146.638,156.96,145.202,158.098,145.026,158.212z"/>
					</g>
				</g>
				<path style="fill: #42afb2" d="M145.473,157.692c0.846,0.213,1.63,0.615,2.434,0.955c1.864,0.788,3.866,1.249,5.887,1.356
					c-0.18,1.601-0.536,3.182-1.059,4.706c-0.04,0.117-0.088,0.242-0.193,0.307c-0.078,0.048-0.174,0.053-0.265,0.057
					c-2.905,0.12-5.828-0.222-8.626-1.01c-0.323-0.091-0.652-0.191-0.921-0.393c-0.289-0.216-0.486-0.532-0.655-0.851
					c-0.557-1.051-1.461-3.366-0.939-4.566C141.647,157.081,144.274,157.39,145.473,157.692z"/>
				<path style="fill: none; stroke: #d3efef; stroke-width: .3405px; stroke-linecap: round; stroke-miterlimit: 10" d="M153.139,160.575
					c2.731-0.394,5.418-1.091,7.997-2.073"/>
				<path style="fill: none; stroke: #d3efef; stroke-width: .3405px; stroke-linecap: round; stroke-miterlimit: 10" d="M152.762,164.123
					c2.731-0.394,5.418-1.091,7.997-2.073"/>
				<g style="opacity: .1">
					<path style="fill: #252a30" d="M142.148,159.016c1.32-0.218,2.666-0.106,3.964,0.172c1.294,0.297,2.56,0.766,3.663,1.525
						c-1.309-0.26-2.548-0.589-3.811-0.86C144.706,159.562,143.444,159.334,142.148,159.016z"/>
				</g>
				<g style="opacity: .1">
					<path style="fill: #252a30" d="M142.652,161.398c1.256,0.178,2.444,0.423,3.652,0.608c1.205,0.204,2.41,0.344,3.658,0.572
						c-1.234,0.311-2.52,0.292-3.766,0.1C144.952,162.466,143.726,162.08,142.652,161.398z"/>
				</g>
				<path style="fill: #bc3b3b" d="M144.044,162.471c-1.127-0.515-2.44-1.141-3.53-0.554c-1.408,0.758-1.233,2.811-0.789,4.347
					c-2.011,0.442-3.62,2.054-4.491,3.92c-0.871,1.866-1.095,3.967-1.137,6.025c-0.087,4.314,0.895,9.162,4.486,11.555
					c2.925,1.949,6.871,1.696,10.115,0.346c3.245-1.351,5.983-3.65,8.803-5.747c2.82-2.097,5.896-4.069,9.373-4.583
					c1.585-0.234,3.229-0.161,4.752-0.66c1.523-0.499,2.959-1.812,2.894-3.413c-0.112-2.749-4.141-3.767-4.815-6.434
					c-0.133-0.526-0.122-1.085-0.306-1.595c-0.306-0.849-1.097-1.42-1.888-1.854c-4.12-2.259-6.665-1.167-10.728-0.173
					C152.572,164.682,147.99,164.273,144.044,162.471z"/>
				<path style="fill: #f9b377" d="M147.14,176.947c-0.016-0.025-0.033-0.05-0.051-0.074c-0.116-0.157-0.274-0.305-0.468-0.324
					c-0.211-0.021-0.412,0.121-0.525,0.301c-0.179,0.287-0.207,0.684-0.29,1.009c-0.073,0.283-0.441,1.021-0.359,1.291
					c-0.62-2.054-1.69-3.97-3.114-5.574c-0.446-0.502-1.171-1.005-1.724-0.625c-0.451,0.31-0.415,0.975-0.33,1.515
					c0.12,0.762,0.24,1.524,0.361,2.285c-0.291-0.529-0.634-1.118-1.321-1.037c-0.154,0.018-0.31,0.062-0.43,0.161
					c-0.164,0.135-0.235,0.352-0.275,0.561c-0.128,0.664-0.017,1.372,0.309,1.964c-0.462-0.157-1.319-0.832-1.668-0.086
					c-0.263,0.562,0.12,1.582,0.426,2.052c-0.31-0.219-0.625-0.441-0.985-0.561c-0.132-0.044-0.276-0.073-0.41-0.035
					c-0.174,0.051-0.297,0.208-0.37,0.374c-0.177,0.399-0.125,0.87,0.041,1.273c0.166,0.404,0.436,0.754,0.704,1.099
					c1.09,1.407,2.164,2.765,3.423,4.03c1.161,1.167,2.479,2.306,4.094,2.624c0.529,0.104,1.094,0.112,1.588-0.105
					c0.859-0.378,1.299-1.327,1.586-2.221c0.531-1.659,0.721-3.413,0.639-5.15c-0.041-0.887-0.153-1.771-0.323-2.643
					C147.535,178.395,147.513,177.522,147.14,176.947z"/>
				<path style="fill: #f7dd9c" d="M147.51,183.623c2.393-0.2,4.287,1.889,5.763,3.783c2.879,3.694,5.757,7.388,8.636,11.081
					c1.676-4.028,0.606-7.91,0.882-11.98c0.245-3.621,3.365-7.25,6.406-8.918c1.274-0.699,2.725-1.184,4.167-1.003
					c2.204,0.277,3.985,2.109,4.742,4.198c0.757,2.088,0.65,4.391,0.305,6.586c-0.922,5.863-3.424,11.29-5.366,16.854
					c-1.561,4.472-2.417,11.176-7.008,13.727c-2.435,1.353-5.564,0.984-7.987-0.39c-2.423-1.374-4.236-3.619-5.707-5.985
					c-1.619-2.604-2.829-5.201-3.925-8c-1.136-2.902-3.734-4.563-5.862-6.681c-1.277-1.272-2.387-2.847-2.548-4.642
					c-0.212-2.36,1.339-3.024,2.647-4.48C144.139,186.12,144.922,183.84,147.51,183.623z"/>
				<path style="fill: #382c18" d="M155.511,128.424c-2.885-0.127-5.801,0.096-8.473,1.155c-3.179,1.26-5.971,3.885-6.694,7.227
					c-1.569,7.248,6.02,8.573,10.813,10.957c2.108,1.048,3.396,2.259,4.791,4.1c2.559,3.379,3.581,6.975,3.594,11.165
					c0.005,1.361,0.005,2.748-0.417,4.042c-0.435,1.333-1.29,2.48-2.065,3.649c-1.2,1.81-2.263,3.82-2.342,5.99
					c-0.079,2.17,1.081,4.513,3.142,5.197c1.695,0.563,3.561-0.083,5.097-0.997c1.535-0.913,2.92-2.103,4.575-2.774
					c1.747-0.708,3.741-0.787,5.538-0.219c1.115,0.353,2.15,0.943,3.284,1.231c1.134,0.288,2.467,0.21,3.297-0.614
					c1.253-1.245,0.719-3.318,0.815-5.082c0.08-1.472,0.66-2.865,1.009-4.298c0.643-2.643,0.485-5.475-0.449-8.029
					c-0.739-2.02-1.993-3.984-2.098-6.183c-0.105-2.199,0.627-4.389,0.866-6.559c0.613-5.573-2.465-11.123-6.931-14.512
					c-4.466-3.389-10.126-4.868-15.712-5.339C156.606,128.485,156.059,128.448,155.511,128.424z"/>
			</g>
			<g>
				<g>
					<g>
						<path style="fill: #07393d" d="M242.938,178.08c-1.536,2.329-2.274,5.366-3.139,7.89c-1.183,3.45-2.611,6.817-4.267,10.066
							c-1.425-1.936-2.585-4.092-3.377-6.364c-0.816-2.338-1.36-4.806-2.188-7.159c-1.202-3.408-2.993-6.917-6.216-8.551
							c-2.227-1.129-4.84-1.197-7.326-0.971c-0.184,0.017-0.383,0.042-0.514,0.171c-0.172,0.169-0.162,0.445-0.137,0.685
							c0.204,1.951,0.607,3.876,1.055,5.786c1.519,6.477,3.57,12.829,6.123,18.972c1.311,3.154,2.805,6.327,5.231,8.732
							c2.426,2.405,5.978,3.929,9.297,3.12c3.088-0.753,5.421-3.352,6.869-6.181c1.448-2.829,2.197-5.957,3.363-8.913
							c0.829-2.105,1.872-4.125,3.105-6.021c0.628-0.965,1.308-1.903,1.794-2.947c1.445-3.104,0.77-6.98-1.374-9.597
							c-1.959-2.391-4.957-2.32-7.094-0.203C243.69,177.043,243.293,177.543,242.938,178.08z"/>
						<path style="fill: #494037" d="M221.083,331.682c-0.059,0.854-0.177,1.817-0.863,2.329c-0.43,0.321-0.994,0.387-1.528,0.441
							c-2.343,0.239-5.17,0.268-6.494-1.68c-0.692-1.018-0.758-2.322-0.801-3.552c-0.881-25.141-1.763-50.281-2.644-75.422
							c-5.555,19.026-4.733,39.062-5.243,58.661c-0.194,7.445-0.576,14.88-0.77,22.326c-0.027,1.046-0.095,2.194-0.812,2.956
							c-0.648,0.687-1.656,0.872-2.594,0.976c-3.588,0.398-8.099,0.888-7.894-3.963c0.189-4.458,0.633-8.96,0.122-13.362
							c-0.55-4.74-0.199-9.775-0.275-14.548c-0.166-10.431-0.264-20.863-0.295-31.295c-0.038-12.936,0.027-25.872,0.195-38.806
							c0.01-0.783,0.044-1.634,0.544-2.237c0.519-0.627,1.392-0.807,2.195-0.94c10.036-1.651,20.306-1.876,30.404-0.668
							c0.106,0.013-0.573,33.027-0.61,35.707c-0.188,13.445-0.615,26.887-1.28,40.317
							C222.064,316.513,221.611,324.1,221.083,331.682z"/>
						<path style="fill: #07393d" d="M224.557,175.969c1.67,1.916,1.836,4.677,1.919,7.218c0.309,9.459,0.618,18.919,0.927,28.379
							c0.158,4.835,0.261,9.675,0.471,14.507c0.148,3.404,1.098,7.492-1.036,10.519c-0.867,1.229-2.146,2.114-3.495,2.781
							c-3.382,1.67-7.234,2.083-11.001,2.277c-5.385,0.278-10.791,0.163-16.16-0.343c-3.4-0.321-7.36-1.207-8.724-4.338
							c-0.53-1.216-0.558-2.584-0.578-3.91c-0.117-7.81-0.298-15.581-0.785-23.378c-0.505-8.104-2.7-16.462-2.7-24.536
							c-0.278-2.125-0.574-4.277-0.296-6.402c0.278-2.124,1.21-4.257,2.947-5.511c2.022-1.459,4.707-1.489,7.2-1.462
							c6.177,0.068,12.566-0.33,18.717,0.241C215.711,172.36,221.97,173.002,224.557,175.969z"/>
						<path style="fill: #937460" d="M216.906,159.799c-2.437,2.509-6.265,2.935-9.761,3.031c-3.284,0.091-6.792-0.045-9.491-1.918
							c-1.755-1.218-2.982-3.059-3.943-4.967c-2.468-4.905-3.417-10.561-2.685-16.003c0.464-3.446,1.617-6.852,3.72-9.622
							c2.103-2.769,5.215-4.853,8.661-5.319c3.571-0.483,7.254,0.809,10.048,3.085c4.796,3.907,5.388,7.796,5.437,13.436
							C218.941,147.159,221.387,155.185,216.906,159.799z"/>
						<path style="fill: #252a30" d="M220.84,129.456c1.059-0.851,1.782-2.122,1.398-3.518c-0.367-1.331-1.699-2.331-3.079-2.312
							c-0.404-1.821-0.859-3.738-2.145-5.088c-1.286-1.35-3.699-1.812-4.973-0.45c-0.861-2.332-4.273-3.21-6.152-1.583
							c-1.665-2.477-5.99-2.352-7.509,0.216c-1.514-0.844-3.381-1.23-4.999-0.608c-1.619,0.622-2.816,2.442-2.363,4.116
							c-1.555-0.448-3.359,0.165-4.32,1.468c-0.961,1.303-1.013,3.207-0.125,4.561c-2.183,0.774-2.966,4.012-1.377,5.697
							c-1.309,1.354-0.914,3.93,0.741,4.83c-2.251,0.056-0.512,3.87,0.427,3.434c-0.749,0.348-0.972,1.408-0.578,2.134
							c0.394,0.726,1.238,1.12,2.061,1.179c-0.531,0.53-0.47,1.461-0.025,2.066c0.445,0.605,1.173,0.935,1.898,1.127
							c0.198,0.053,0.411,0.105,0.545,0.26c0.097,0.113,0.135,0.264,0.17,0.408c0.296,1.216,0.592,2.432,0.888,3.648
							c0.183,0.75,0.169,2.117,1.287,2.013c0.209-0.93,0.391-1.867,0.547-2.808c0.037-0.221,0.071-0.449,0.017-0.667
							c-0.069-0.273-0.268-0.49-0.446-0.707c-1.091-1.329-2.921-6.152-0.284-6.924c0.518-0.152,1.083-0.023,1.568,0.215
							c1.319,0.647,2.17,2.143,2.05,3.608c0.422-2.276,1.459-4.353,1.419-6.711c-0.015-0.91-0.148-1.826-0.009-2.726
							c0.247-1.607,1.419-3.038,2.945-3.597c1.95-0.715,4.094-0.043,6.15,0.257c1.69,0.246,3.417,0.23,5.103-0.042
							c1.262-0.204,2.584-0.851,3.883-0.567c0.38,0.083,2.148,1.082,2.49,2.014c0.723-0.356,1.24-0.687,1.801-1.267
							c0.56-0.58,0.969-1.334,1.012-2.139c0.024-0.451-0.091-0.945-0.446-1.225C220.557,129.672,220.701,129.568,220.84,129.456z"/>
						<g>
							<path style="fill: #252a30" d="M206.597,140.623c0,0-2.912-3.161-5.075,0.915L206.597,140.623z"/>
							<path style="fill: #252a30" d="M217.578,141.039l-4.326-0.543C213.252,140.496,214.667,136.879,217.578,141.039z"/>
							<g>
								<path style="fill: #494037" d="M203.307,147.333c0.041-0.647,0.036-1.306,0.234-1.942c0.17-0.628,0.65-1.245,1.34-1.378
									c0.664-0.146,1.419,0.15,1.746,0.757c0.321,0.612,0.235,1.298,0.268,1.934l-0.081,0.004
									c-0.29-0.637-0.456-1.341-0.745-1.624c-0.271-0.259-0.665-0.369-1.019-0.275c-0.355,0.062-0.622,0.287-0.898,0.776
									c-0.257,0.479-0.452,1.12-0.765,1.75L203.307,147.333z"/>
							</g>
							<g>
								<path style="fill: #494037" d="M213.671,146.17c0.024-0.545,0.068-1.139,0.417-1.61c0.349-0.47,0.989-0.668,1.553-0.531
									c0.587,0.157,0.948,0.663,1.206,1.152c0.241,0.52,0.27,1.093,0.288,1.643l-0.074,0.003
									c-0.265-0.546-0.481-1.057-0.742-1.394c-0.134-0.148-0.291-0.337-0.458-0.467c-0.16-0.135-0.261-0.192-0.402-0.216
									c-0.28-0.081-0.643-0.021-0.904,0.167c-0.288,0.215-0.542,0.714-0.809,1.256L213.671,146.17z"/>
							</g>
							<path style="opacity: .45; fill: #421c24" d="M214.232,150.469c0.183,0.441-0.03,1.006-0.458,1.216
								c-0.164,0.081-0.347,0.113-0.529,0.124c-0.712,0.045-1.497-0.278-1.776-0.935c-0.107-0.252-0.133-0.531-0.135-0.804
								c-0.003-0.296,0.024-0.603,0.17-0.86c0.479-0.843,0.908-0.093,1.384,0.21C213.357,149.721,214,149.911,214.232,150.469z"/>
						</g>
						<path style="fill: #07393d" d="M197.513,160.253c-0.439-0.163-0.936-0.336-1.36-0.135c-0.597,0.282-0.665,1.111-0.514,1.753
							c0.315,1.345,1.184,2.499,1.59,3.819c0.287,0.934,0.333,1.94,0.133,2.896c-0.214,1.021-0.704,2.027-0.545,3.057
							c0.155,1.004,0.925,1.832,1.826,2.3c0.902,0.468,1.928,0.63,2.937,0.745c2.912,0.332,5.85,0.334,8.781,0.334
							c1.003,0,2.025-0.002,2.983-0.3c0.958-0.298,1.861-0.943,2.217-1.882c0.811-2.136-1.451-4.269-1.441-6.553
							c0.006-1.308,1.212-3.49-0.138-4.468c-1.139-0.826-3.668,0.091-4.962,0.162C205.121,162.194,201.176,161.611,197.513,160.253z
							"/>
						<g>
							<path style="fill: #f7dd9c" d="M221.888,332.64c0.389,0.197,0.736,0.485,0.887,0.887c0.151,0.4,0.085,0.844,0.022,1.266
								c-0.32,2.17-0.492,4.361-0.513,6.554c-0.017,1.731-0.299,4.158,0.333,5.798c0.85,2.204,3.717,2.584,6.041,3.01
								c1.796,0.33,3.623,0.937,4.906,2.236c0.83,0.841,1.102,1.491,1.169,2.707c0.031,0.566,0.063,1.132,0.094,1.699
								c0.015,0.267,0.029,0.539-0.036,0.798c-0.168,0.667-0.82,1.098-1.468,1.33c-0.881,0.316-1.829,0.384-2.764,0.433
								c-1.651,0.087-3.312,0.124-4.95-0.093c-1.913-0.253-3.773-0.847-5.695-1.028c-2.26-0.212-4.554,0.154-6.8-0.175
								c-0.573-0.084-1.149-0.216-1.651-0.505c-0.502-0.289-0.925-0.753-1.058-1.317c-0.07-0.3-0.057-0.614-0.043-0.922
								c0.077-1.664,0.019-3.26,0.245-4.917c0.55-4.04,0.482-7.95,0.426-12.025c-0.003-0.187-0.008-0.384-0.101-0.546
								c-0.082-0.143-0.223-0.242-0.326-0.371c-0.222-0.278-0.246-0.661-0.252-1.017c-0.016-0.898,0.016-1.797,0.097-2.691
								c0.043-0.479,0.117-0.994,0.449-1.343c0.346-0.364,0.884-0.456,1.383-0.507c0.76-0.078,1.525-0.109,2.289-0.092
								c0.751,0.016,1.519,0.083,2.199,0.402c0.68,0.319,1.261,0.934,1.355,1.679c0.157-0.693,0.734-1.248,1.407-1.475
								c0.673-0.227,1.423-0.153,2.085,0.105C221.71,332.556,221.8,332.596,221.888,332.64z"/>
							<path style="opacity: .1; fill: #252a30" d="M210.933,337.831c-0.082-0.143-0.223-0.242-0.326-0.371
								c-0.222-0.278-0.246-0.661-0.252-1.017c-0.016-0.898,0.016-1.797,0.097-2.691c0.043-0.479,0.117-0.994,0.449-1.343
								c0.346-0.364,0.884-0.456,1.383-0.507c0.76-0.078,1.525-0.109,2.289-0.092c0.751,0.016,1.519,0.083,2.199,0.402
								c0.68,0.319,1.261,0.934,1.355,1.679c0.135,1.073,0.12,2.269-0.588,3.086c-0.585,0.676-1.527,0.903-2.412,1.027
								c-0.893,0.125-1.795,0.184-2.696,0.176C211.928,338.176,211.183,338.266,210.933,337.831z"/>
							<path style="opacity: .1; fill: #252a30" d="M210.363,355.318c-0.014,0.308-0.028,0.622,0.043,0.922
								c0.132,0.564,0.556,1.028,1.058,1.317c0.502,0.289,1.078,0.421,1.651,0.505c2.246,0.329,4.54-0.037,6.8,0.175
								c1.921,0.18,3.782,0.775,5.695,1.028c1.639,0.216,3.3,0.18,4.95,0.093c0.935-0.049,1.882-0.117,2.764-0.433
								c0.648-0.232,1.3-0.663,1.468-1.33c0.065-0.259,0.051-0.531,0.036-0.798c-0.913,0.426-1.964,0.431-2.969,0.505
								c-3.902,0.288-7.845,0.013-11.669-0.812c-0.874-0.188-1.743-0.406-2.628-0.524
								C215.343,355.669,212.548,355.797,210.363,355.318z"/>
							<path style="fill: none; stroke: #07393d; stroke-width: 1.2694px; stroke-linecap: round; stroke-miterlimit: 10" d="M222.961,339.985
								c-1.011,0.261-2.077,0.304-3.106,0.126"/>
							<path style="fill: none; stroke: #07393d; stroke-width: 1.2694px; stroke-linecap: round; stroke-miterlimit: 10" d="M222.942,342.993
								c-0.944,0.15-1.908,0.178-2.859,0.081"/>
							<path style="fill: none; stroke: #07393d; stroke-width: 1.2694px; stroke-linecap: round; stroke-miterlimit: 10" d="M223.097,345.603
								c-0.833,0.163-1.69,0.206-2.535,0.128"/>
							<path style="fill: none; stroke: #07393d; stroke-width: 1.2694px; stroke-linecap: round; stroke-miterlimit: 10" d="M223.677,347.802
								c-0.42,0.393-1.028,0.499-1.6,0.559c-0.469,0.049-0.94,0.08-1.412,0.092"/>
						</g>
						<g>
							<path style="fill: #f7dd9c" d="M202.123,336.963c0.389,0.196,0.736,0.485,0.887,0.887c0.151,0.4,0.085,0.844,0.022,1.266
								c-0.32,2.17-0.492,4.361-0.513,6.554c-0.017,1.731-0.299,4.158,0.333,5.798c0.85,2.204,3.717,2.584,6.041,3.01
								c1.796,0.33,3.623,0.936,4.906,2.236c0.83,0.841,1.102,1.491,1.169,2.707c0.031,0.566,0.063,1.133,0.094,1.699
								c0.015,0.267,0.029,0.538-0.036,0.798c-0.168,0.667-0.82,1.098-1.468,1.33c-0.881,0.316-1.829,0.384-2.764,0.433
								c-1.65,0.087-3.312,0.124-4.95-0.093c-1.913-0.253-3.773-0.847-5.695-1.027c-2.26-0.212-4.554,0.154-6.8-0.175
								c-0.573-0.084-1.149-0.216-1.651-0.505c-0.502-0.289-0.925-0.753-1.058-1.317c-0.071-0.301-0.057-0.614-0.043-0.922
								c0.077-1.664,0.019-3.26,0.245-4.917c0.55-4.04,0.483-7.95,0.426-12.025c-0.003-0.187-0.008-0.384-0.101-0.546
								c-0.082-0.143-0.223-0.242-0.326-0.372c-0.222-0.278-0.246-0.661-0.252-1.017c-0.016-0.898,0.016-1.797,0.097-2.691
								c0.044-0.479,0.117-0.994,0.449-1.343c0.346-0.364,0.884-0.456,1.383-0.507c0.76-0.078,1.525-0.109,2.289-0.092
								c0.751,0.016,1.519,0.083,2.199,0.402c0.68,0.319,1.261,0.935,1.355,1.679c0.157-0.693,0.735-1.248,1.408-1.475
								c0.673-0.227,1.423-0.152,2.085,0.105C201.945,336.879,202.035,336.919,202.123,336.963z"/>
							<path style="opacity: .1; fill: #252a30" d="M191.168,342.154c-0.082-0.143-0.223-0.242-0.326-0.372
								c-0.222-0.278-0.246-0.661-0.252-1.017c-0.016-0.898,0.016-1.797,0.097-2.691c0.044-0.479,0.117-0.994,0.449-1.343
								c0.346-0.364,0.884-0.456,1.383-0.507c0.76-0.078,1.525-0.109,2.289-0.092c0.751,0.016,1.519,0.083,2.199,0.402
								c0.68,0.319,1.261,0.935,1.355,1.679c0.136,1.073,0.12,2.269-0.588,3.086c-0.585,0.676-1.527,0.903-2.412,1.027
								c-0.893,0.125-1.795,0.185-2.696,0.176C192.163,342.499,191.418,342.589,191.168,342.154z"/>
							<path style="opacity: .1; fill: #252a30" d="M190.598,359.641c-0.014,0.308-0.028,0.621,0.043,0.922
								c0.132,0.564,0.556,1.028,1.058,1.317c0.502,0.289,1.078,0.422,1.651,0.505c2.246,0.329,4.54-0.037,6.8,0.175
								c1.922,0.18,3.782,0.775,5.695,1.027c1.639,0.217,3.3,0.18,4.95,0.093c0.935-0.049,1.882-0.117,2.764-0.433
								c0.648-0.232,1.3-0.663,1.468-1.33c0.065-0.259,0.051-0.531,0.036-0.798c-0.913,0.426-1.964,0.431-2.969,0.505
								c-3.902,0.288-7.845,0.013-11.669-0.812c-0.874-0.188-1.742-0.406-2.628-0.524
								C195.579,359.992,192.783,360.12,190.598,359.641z"/>
							<path style="fill: none; stroke: #07393d; stroke-width: 1.2694px; stroke-linecap: round; stroke-miterlimit: 10" d="M203.196,344.308
								c-1.011,0.261-2.077,0.304-3.106,0.126"/>
							<path style="fill: none; stroke: #07393d; stroke-width: 1.2694px; stroke-linecap: round; stroke-miterlimit: 10" d="M203.178,347.316
								c-0.944,0.15-1.908,0.178-2.859,0.081"/>
							<path style="fill: none; stroke: #07393d; stroke-width: 1.2694px; stroke-linecap: round; stroke-miterlimit: 10" d="M203.332,349.926
								c-0.833,0.163-1.689,0.207-2.535,0.128"/>
							<path style="fill: none; stroke: #07393d; stroke-width: 1.2694px; stroke-linecap: round; stroke-miterlimit: 10" d="M203.912,352.125
								c-0.42,0.393-1.028,0.499-1.6,0.559c-0.469,0.049-0.94,0.08-1.412,0.092"/>
						</g>
						<path style="fill: #937460" d="M248.009,162.174c0.053-0.38,0.123-0.79,0.402-1.055c0.559-0.53,1.555-0.054,1.851,0.657
							c0.296,0.711,0.147,1.517,0.104,2.286c-0.086,1.544,0.293,3.11,1.076,4.444c3.062-4.219,8.521-9.098,13.983-9.362
							c0.237-0.011,0.492-0.009,0.686,0.128c0.309,0.218,0.32,0.697,0.127,1.022c-0.193,0.324-0.531,0.53-0.856,0.723
							c-2.704,1.607-5.408,3.214-8.113,4.82c0.889,0.729,1.114,2.147,0.494,3.116c1.047,0.959,1.063,2.674,0.425,3.943
							c-0.606,1.204-1.64,2.017-2.641,2.874c-0.936,0.801-1.73,1.828-2.769,2.53c-0.897,0.606-2.013,0.969-3.072,0.745
							c-0.492-0.104-0.975-0.349-1.257-0.766c-0.961-1.419-1.014-4.871-1.125-6.654
							C247.131,168.526,247.586,165.238,248.009,162.174z"/>
						<path style="fill: #937460" d="M180.419,249.927c0.411,0.823,0.627,1.731,0.838,2.628c0.157,0.667,0.282,1.464-0.195,1.956
							c-0.354,0.365-0.919,0.417-1.426,0.386c-0.068-0.004-0.142-0.008-0.196,0.033c-0.094,0.07-0.068,0.213-0.034,0.325
							c0.331,1.059,1.755,4.045-0.585,3.939c-0.58-0.039-1.088-0.39-1.535-0.762c-0.438,0.777-1.533,1.097-2.321,0.677
							c-0.092,0.504-0.718,0.757-1.216,0.636c-0.498-0.121-0.888-0.497-1.252-0.858c-0.732,0.45-1.749,0.035-2.237-0.672
							s-0.578-1.608-0.626-2.465c-0.091-1.61-0.085-3.26,0.423-4.791c0.508-1.531,1.593-2.943,3.11-3.492
							c0.698-0.253,1.453-0.314,2.196-0.29c1.883,0.062,4.074,0.9,4.989,2.62C180.375,249.839,180.398,249.883,180.419,249.927z"/>
						<path style="fill: #07393d" d="M181.506,178.773c-6.314,11.543-8.803,24.772-10.283,37.846
							c-1.026,9.063-1.61,18.239-0.524,27.296c0.163,1.36,0.403,2.803,1.324,3.817c1.857,2.045,5.523,1.068,7.124-1.182
							c1.601-2.251,1.723-5.197,1.786-7.958c0.079-3.457,0.158-6.914,0.237-10.371c0.128-5.588,0.259-11.205,1.289-16.699
							c1.697-9.052,5.735-17.483,7.345-26.553c0.466-2.625,2.098-9.993-0.304-11.983
							C186.36,170.385,182.566,176.834,181.506,178.773z"/>
						<path style="fill: #937460" d="M247.324,171.624c-0.193-3.098,0.262-6.386,0.685-9.45c0.053-0.38,0.123-0.79,0.402-1.055
							c0.559-0.53,1.555-0.054,1.851,0.657c0.296,0.711,0.147,1.517,0.104,2.286c-0.086,1.544,0.293,3.11,1.076,4.444
							c0.21,0.358,0.463,0.576,0.676,0.933c0.337,0.566,0.665,1.15,0.809,1.793c0.144,0.643,0.083,1.36-0.305,1.892
							c-0.411,0.564-1.142,0.84-1.839,0.807c-0.697-0.032-1.358-0.34-1.919-0.756C248.304,172.759,247.792,172.142,247.324,171.624z
							"/>
						<path style="opacity: .1; fill: #252a30" d="M207.068,175.079c-2.096-0.129-4.188-0.325-6.272-0.588
							c1.152,1.456,3.199,1.777,5.048,1.946c1.669,0.153,3.367,0.267,5.01-0.064c1.326-0.267,2.892-0.888,3.717-2.011
							c-0.605-0.382-2.566,0.575-3.38,0.678C209.826,175.213,208.438,175.163,207.068,175.079z"/>
					</g>
					<g>
						<path style="opacity: .1; fill: #252a30" d="M237.63,207.212c1.179,0.046,2.978,0.035,4.091,0.731
							c-1.192,1.193-2.608,2.116-4.242,2.515c-2.274,0.554-4.648-0.003-6.704-1.171c0.147-0.273,0.35-0.528,0.582-0.729
							C233.012,207.119,235.438,207.127,237.63,207.212z"/>
					</g>
					<g>
						<path style="opacity: .1; fill: #252a30" d="M171.796,211.975c0.647,0.65,0.706,2.58,0.704,3.192
							c-0.005,2.179-0.186,4.358-0.541,6.508c-0.142,0.86-0.413,1.846-1.217,2.184c-0.07,0.03-0.147,0.048-0.222,0.06
							c0.188-2.438,0.426-4.873,0.701-7.3C171.398,215.072,171.588,213.523,171.796,211.975z"/>
					</g>
				</g>
				<path style="fill: #42afb2" d="M219.023,150.97c0.398,0.106,0.841,0.247,1.025,0.615c0.133,0.264,0.094,0.579,0.047,0.871
					c-0.339,2.091-0.958,4.137-1.836,6.065c-0.371,0.816-0.831,1.656-1.616,2.089c-0.497,0.274-1.074,0.356-1.638,0.421
					c-4.513,0.523-9.11,0.308-13.554-0.633c-0.192-0.041-0.393-0.087-0.542-0.215c-0.185-0.158-0.255-0.409-0.313-0.646
					c-0.706-2.916-0.815-5.975-0.316-8.933c3.414-0.384,6.833-0.728,10.256-1.032c1.448-0.129,2.589-0.269,3.959,0.162
					C215.986,150.202,217.513,150.568,219.023,150.97z"/>
				<g style="opacity: .1">
					<path style="fill: #252a30" d="M218.598,152.404c-1.259-0.395-2.543-0.624-3.834-0.709c-1.292-0.083-2.59-0.071-3.882,0.064
						c-1.298,0.083-2.59,0.282-3.892,0.445c-1.302,0.162-2.611,0.332-3.932,0.375c1.283-0.307,2.562-0.597,3.852-0.862
						c1.29-0.264,2.597-0.461,3.919-0.597c1.324-0.084,2.665-0.107,3.988,0.086C216.134,151.395,217.439,151.762,218.598,152.404z"/>
				</g>
				<g style="opacity: .1">
					<path style="fill: #252a30" d="M217.614,155.08c-2.335,0.499-4.732,0.653-7.117,0.605c-2.384-0.067-4.771-0.337-7.079-0.95
						c2.383,0.11,4.734,0.259,7.095,0.308C212.873,155.11,215.229,155.076,217.614,155.08z"/>
				</g>
				<g style="opacity: .1">
					<path style="fill: #252a30" d="M216.043,158.41c-2.032,0.636-4.201,0.812-6.331,0.665c-2.129-0.165-4.249-0.657-6.165-1.585
						c2.077,0.445,4.13,0.799,6.212,0.945C211.84,158.596,213.923,158.546,216.043,158.41z"/>
				</g>
				<path style="fill: none; stroke: #d3efef; stroke-width: .3213px; stroke-linecap: round; stroke-miterlimit: 10" d="M201.341,151.171
					c-2.333-2.766-4.239-5.89-5.632-9.23"/>
				<path style="fill: none; stroke: #d3efef; stroke-width: .3213px; stroke-linecap: round; stroke-miterlimit: 10" d="M201.389,160.057
					c-3.92-2.436-7.167-5.943-9.294-10.039"/>
				<path style="opacity: .45; fill: #421c24" d="M193.99,146.973c-0.101,0.091-0.239,0.176-0.365,0.124
					c-0.082-0.034-0.132-0.117-0.173-0.196c-0.342-0.651-1.141-2.775,0.333-2.729C195.154,144.215,194.643,146.385,193.99,146.973z"/>
			</g>
			<polygon style="fill: #595959" points="118.012,368.815 122.938,363.628 122.938,102.068 118.012,102.068 			"/>
			<polygon style="fill: #595959" points="266.366,368.815 261.44,363.628 261.44,102.068 266.366,102.068 			"/>
			<polygon style="fill: #595959" points="622.064,368.815 617.138,363.628 617.138,102.068 622.064,102.068 			"/>
		</g>
	</g>
</g>
</svg>