<svg xmlns="http://www.w3.org/2000/svg" xml:space="preserve" viewBox="0 0 750 500"><path id="BACKGROUND" d="M0 0h750v500H0Z" style="fill:#3a3a3a"/><g id="OBJECTS"><text style="fill:#e24747;font-family:BebasNeue-Bold;font-size:40.2736px" transform="translate(147.375 440.6)">wrong</text><path d="M132.745 400.105h116.389v52.542H132.745Z" style="fill:none;stroke:#e24747;stroke-miterlimit:10"/><text style="fill:#74e2e2;font-family:BebasNeue-Bold;font-size:40.2736px" transform="translate(515.359 440.6)">right</text><path d="M491.417 400.105h116.389v52.542H491.417Z" style="fill:none;stroke:#74e2e2;stroke-miterlimit:10"/><path d="M439.632 500h2.24-2.256ZM540.396 500h2.196-2.3ZM648.01 500h2.097-2.408ZM260.793 500h.017-2.255ZM52.417 500h.311-2.408ZM160.031 500h.104-2.3Z" style="fill:#424242"/><path d="M426.46 0H0v377.627h90.517V63.448h202.9v314.179H446.46V63.448h202.9v314.179H750V0Z" style="fill:#edebe6"/><path d="M293.417 365.758H446.46v11.87H293.417Z" style="fill:#541f2b"/><g style="opacity:.3"><path d="M286.291 382.064h-8.686v-19.459l-178.403.264v14.758H83.391V63.448h202.9Z" style="fill:#281f13"/></g><path d="M0 360.764h90.517v16.863H0ZM293.417 360.764H446.46v16.863H293.417ZM649.36 360.764H750v16.863H649.36Z" style="fill:#b7b7b7"/><g style="opacity:.3"><path d="M642.234 382.064h-8.686l.001-19.459-178.404.264v14.758h-15.811V63.448h202.9Z" style="fill:#281f13"/></g><path d="M664.815 170.33h29.86v24.58h-29.86Z" style="opacity:.3;fill:#421c24"/><path d="M668.714 170.33h29.861v24.58h-29.861Z" style="fill:#231b10"/><path d="M697.075 171.829v21.582h-26.863v-21.582Zm1.499-1.499h-29.861v24.579h29.861Z" style="fill:#382c18"/><text style="fill:#d5e068;font-family:VT323-Regular;font-size:11.9988px" transform="matrix(.9988 0 0 1 674.006 185.547)">OPEN</text><path d="M682.131 272.026h-8.938c-4.122 0-7.495-3.373-7.495-7.495v-49.205c0-4.122 3.373-7.495 7.495-7.495h8.938c4.122 0 7.495 3.373 7.495 7.495v49.205c-.001 4.123-3.373 7.495-7.495 7.495" style="opacity:.3;fill:#421c24"/><path d="M687.182 272.026h-8.938c-4.122 0-7.495-3.373-7.495-7.495v-49.205c0-4.122 3.373-7.495 7.495-7.495h8.938c4.122 0 7.495 3.373 7.495 7.495v49.205c0 4.123-3.372 7.495-7.495 7.495" style="fill:#8c8c8c"/><path d="M687.182 209.331a6.003 6.003 0 0 1 5.996 5.996v49.205a6.003 6.003 0 0 1-5.996 5.996h-8.938a6.003 6.003 0 0 1-5.996-5.996v-49.205a6.003 6.003 0 0 1 5.996-5.996Zm0-1.499h-8.938c-4.122 0-7.495 3.373-7.495 7.495v49.205c0 4.122 3.373 7.495 7.495 7.495h8.938c4.122 0 7.495-3.373 7.495-7.495v-49.205c0-4.123-3.372-7.495-7.495-7.495" style="fill:#231b10"/><ellipse cx="681.215" cy="251.586" rx="6.384" ry="6.392" style="opacity:.45;fill:#281f13"/><path d="M687.599 229.148a6.39 6.39 0 0 0-6.384-6.392 6.39 6.39 0 0 0-6.384 6.392 6.39 6.39 0 0 0 6.384 6.392 6.39 6.39 0 0 0 6.384-6.392" style="opacity:.45;fill:#281f13"/><path d="M689.097 227.605a6.39 6.39 0 0 0-6.384-6.392 6.39 6.39 0 0 0-6.384 6.392 6.39 6.39 0 0 0 6.384 6.392 6.39 6.39 0 0 0 6.384-6.392" style="fill:#f2ede7"/><ellipse cx="682.713" cy="250.086" rx="6.384" ry="6.392" style="fill:#d7e296"/><path d="M687.993 250.086a5.283 5.283 0 0 0-5.28-5.286 5.283 5.283 0 0 0-5.28 5.286 5.283 5.283 0 0 0 5.28 5.286 5.283 5.283 0 0 0 5.28-5.286Z" style="fill:none;stroke:#b5bc6d;stroke-width:.7495px;stroke-miterlimit:10"/><path d="M687.993 227.605a5.283 5.283 0 0 0-5.28-5.286 5.283 5.283 0 0 0-5.28 5.286 5.283 5.283 0 0 0 5.28 5.286 5.283 5.283 0 0 0 5.28-5.286Z" style="fill:none;stroke:#c1b4a7;stroke-width:.7495px;stroke-miterlimit:10"/><path d="M649.36 382.064h-15.812l.001-19.459-171.278.264v19.195H446.46V63.448h202.9Z" style="fill:#8c8c8c"/><path d="M462.271 85.761h171.278v263.69H462.271Z" style="fill:#595959"/><path d="M462.271 102.068h171.278v266.747H462.271Z" style="fill:#b2b2b2"/><path d="M633.549 368.815H462.271l28.58-23.474h114.117Z" style="fill:#262626"/><path d="M490.851 102.068h114.117v243.273H490.851Z" style="fill:#b7b7b7"/><path d="m490.851 345.341-28.58 23.474V102.068h28.58ZM604.968 345.341l28.581 23.474V102.068h-28.581Z" style="fill:#a5a4a4"/><path d="M595.455 267.16h-95.506a3.57 3.57 0 0 1-3.557-3.561 3.57 3.57 0 0 1 3.557-3.561h95.506a3.57 3.57 0 0 1 3.557 3.561 3.57 3.57 0 0 1-3.557 3.561" style="opacity:.3;fill:#8c8c8c"/><path d="M595.455 263.599h-95.506a3.57 3.57 0 0 1-3.557-3.561 3.57 3.57 0 0 1 3.557-3.561h95.506a3.57 3.57 0 0 1 3.557 3.561 3.57 3.57 0 0 1-3.557 3.561" style="fill:#727272"/><path d="M492.188 102.068h111.319v148.018H492.188Z" style="fill:#c3e1e2"/><path d="M519.242 250.086h-22.288l59.924-148.018h22.287ZM535.296 250.086h-11.144l59.924-148.018h11.143Z" style="fill:#dcefef"/><path d="M491.386 336.842h113.047v8.499H491.386Z" style="fill:#7c7c7c"/><path d="M491.386 345.341v-8.499h-.535l-28.58 15.874v16.099Z" style="fill:#717272"/><path d="m462.271 352.716 28.58-15.874h.86l-29.44 17.936Z" style="fill:#b2b2b2"/><path d="m604.433 337.04.49-.198 28.58 15.874v16.099l-29.07-23.474Z" style="fill:#717272"/><path d="m633.547 352.716-28.58-15.874h-.86l29.44 17.936Z" style="fill:#b2b2b2"/><path d="m462.271 257.977 27.408-7.891V102.068h-27.408Z" style="fill:#c3e1e2"/><path d="m476.991 102.068-12.676 155.345 6.309-1.841 12.785-153.504ZM486.257 102.068 473.71 254.684l3.423-.986 12.546-151.63Z" style="fill:#dcefef"/><path d="m633.549 257.977-27.409-7.891V102.068h27.409Z" style="fill:#c3e1e2"/><path d="m618.828 102.068 12.676 155.345-6.309-1.841-12.785-153.504ZM609.562 102.068l12.547 152.616-3.423-.986-12.546-151.63Z" style="fill:#dcefef"/><path d="M462.271 102.068h11.439v266.747h-11.439Z" style="fill:#d1d1d1"/><path d="m473.71 368.815 4.925-5.187v-261.56h-4.925Z" style="fill:#595959"/><path d="M622.064 102.068h11.439v266.747h-11.439Z" style="fill:#d1d1d1" transform="matrix(-1 0 0 -1 1255.57 470.883)"/><path d="m491.711 336.842-.325.198h113.047l-.326-.198Z" style="fill:#b2b2b2"/><path d="M293.662 382.064H277.85l.001-19.459-171.278.264v19.195H90.761V63.448h202.901Z" style="fill:#8c8c8c"/><path d="M106.573 85.761h171.278v263.69H106.573Z" style="fill:#595959"/><path d="M106.573 102.068h171.278v266.747H106.573Z" style="fill:#b2b2b2"/><path d="M277.851 368.815H106.573l28.58-23.474H249.27Z" style="fill:#262626"/><path d="M135.153 102.068h114.118v243.273H135.153Z" style="fill:#b7b7b7"/><path d="m135.153 345.341-28.58 23.474V102.068h28.58ZM249.27 345.341l28.581 23.474V102.068H249.27Z" style="fill:#a5a4a4"/><path d="M239.757 267.16h-95.506a3.57 3.57 0 0 1-3.557-3.561 3.57 3.57 0 0 1 3.557-3.561h95.506a3.57 3.57 0 0 1 3.557 3.561 3.57 3.57 0 0 1-3.557 3.561" style="opacity:.3;fill:#8c8c8c"/><path d="M239.757 263.599h-95.506a3.57 3.57 0 0 1-3.557-3.561c0-1.959 1.6-3.561 3.557-3.561h95.506a3.57 3.57 0 0 1 3.557 3.561 3.57 3.57 0 0 1-3.557 3.561" style="fill:#727272"/><path d="M136.49 102.068h111.318v148.018H136.49Z" style="fill:#c3e1e2"/><path d="M163.544 250.086h-22.287l59.923-148.018h22.287ZM179.598 250.086h-11.144l59.924-148.018h11.143Z" style="fill:#dcefef"/><path d="M135.688 336.842h113.047v8.499H135.688Z" style="fill:#7c7c7c"/><path d="M135.688 345.341v-8.499h-.535l-28.58 15.874v16.099Z" style="fill:#717272"/><path d="m106.573 352.716 28.58-15.874h.86l-29.44 17.936Z" style="fill:#b2b2b2"/><path d="m248.736 337.04.489-.198 28.58 15.874v16.099l-29.069-23.474Z" style="fill:#717272"/><path d="m277.849 352.716-28.58-15.874h-.86l29.44 17.936Z" style="fill:#b2b2b2"/><path d="m106.573 257.977 27.408-7.891V102.068h-27.408Z" style="fill:#c3e1e2"/><path d="m121.293 102.068-12.675 155.345 6.308-1.841 12.785-153.504ZM130.559 102.068l-12.547 152.616 3.423-.986 12.546-151.63Z" style="fill:#dcefef"/><path d="m277.851 257.977-27.409-7.891V102.068h27.409Z" style="fill:#c3e1e2"/><path d="m263.13 102.068 12.676 155.345-6.309-1.841-12.785-153.504ZM253.864 102.068l12.547 152.616-3.423-.986-12.546-151.63Z" style="fill:#dcefef"/><path d="M106.573 102.068h11.439v266.747h-11.439Z" style="fill:#d1d1d1"/><path d="M266.366 102.068h11.439v266.747h-11.439Z" style="fill:#d1d1d1" transform="matrix(-1 0 0 -1 544.171 470.883)"/><path d="m136.013 336.842-.325.198h113.048l-.327-.198Z" style="fill:#b2b2b2"/><path d="M312.074 170.33h29.861v24.58h-29.861Z" style="opacity:.3;fill:#421c24"/><path d="M315.973 170.33h29.86v24.58h-29.86Z" style="fill:#231b10"/><path d="M344.335 171.829v21.582h-26.863v-21.582Zm1.499-1.499h-29.861v24.579h29.861Z" style="fill:#382c18"/><text style="fill:#d5e068;font-family:VT323-Regular;font-size:11.9988px" transform="matrix(.9988 0 0 1 321.265 185.547)">OPEN</text><path d="M329.39 272.026h-8.938c-4.122 0-7.495-3.373-7.495-7.495v-49.205c0-4.122 3.373-7.495 7.495-7.495h8.938c4.122 0 7.495 3.373 7.495 7.495v49.205c0 4.123-3.373 7.495-7.495 7.495" style="opacity:.3;fill:#421c24"/><path d="M334.442 272.026h-8.938c-4.122 0-7.495-3.373-7.495-7.495v-49.205c0-4.122 3.373-7.495 7.495-7.495h8.938c4.122 0 7.495 3.373 7.495 7.495v49.205c0 4.123-3.373 7.495-7.495 7.495" style="fill:#8c8c8c"/><path d="M334.442 209.331a6.003 6.003 0 0 1 5.996 5.996v49.205a6.003 6.003 0 0 1-5.996 5.996h-8.938a6.003 6.003 0 0 1-5.996-5.996v-49.205a6.003 6.003 0 0 1 5.996-5.996Zm0-1.499h-8.938c-4.122 0-7.495 3.373-7.495 7.495v49.205c0 4.122 3.373 7.495 7.495 7.495h8.938c4.122 0 7.495-3.373 7.495-7.495v-49.205c0-4.123-3.373-7.495-7.495-7.495" style="fill:#231b10"/><ellipse cx="328.475" cy="251.586" rx="6.384" ry="6.392" style="opacity:.45;fill:#281f13"/><path d="M334.859 229.148a6.39 6.39 0 0 0-6.384-6.392 6.39 6.39 0 0 0-6.384 6.392 6.39 6.39 0 0 0 6.384 6.392 6.39 6.39 0 0 0 6.384-6.392" style="opacity:.45;fill:#281f13"/><path d="M336.357 227.605a6.39 6.39 0 0 0-6.384-6.392 6.39 6.39 0 0 0-6.384 6.392 6.39 6.39 0 0 0 6.384 6.392 6.39 6.39 0 0 0 6.384-6.392" style="fill:#f2ede7"/><path d="M336.357 250.086a6.39 6.39 0 0 0-6.384-6.392 6.387 6.387 0 0 0-6.384 6.392 6.39 6.39 0 0 0 6.384 6.392 6.39 6.39 0 0 0 6.384-6.392" style="fill:#d7e296"/><path d="M335.253 250.086a5.283 5.283 0 0 0-5.28-5.286 5.283 5.283 0 0 0-5.28 5.286 5.283 5.283 0 0 0 5.28 5.286 5.283 5.283 0 0 0 5.28-5.286Z" style="fill:none;stroke:#b5bc6d;stroke-width:.7495px;stroke-miterlimit:10"/><ellipse cx="329.973" cy="227.605" rx="5.28" ry="5.286" style="fill:none;stroke:#c1b4a7;stroke-width:.7495px;stroke-miterlimit:10"/><path d="M580.592 357.272c1.214.655 2.438 1.315 3.755 1.727 1.157.362 2.412.546 3.381 1.272a2.76 2.76 0 0 1 1.022 1.636c.105.55.006 1.105-.387 1.512-.37.384-.91.548-1.43.667-5.192 1.185-10.574-.65-15.899-.563-1.57.025-3.161.217-4.696-.108-.184-.039-.377-.091-.509-.225-.187-.189-.201-.484-.204-.75q-.004-.337-.006-.676c-.018-2.611.055-5.274 1.087-7.659.184-.425.469-.889.929-.942.267-.03.524.091.774.189 2.005.784 3.869-.65 5.689.397 2.133 1.225 4.328 2.353 6.494 3.523" style="fill:#f7dd9c"/><path d="m565.619 361.762.006.676c.003.266.017.561.204.75.132.134.325.186.509.225 1.536.325 3.127.134 4.696.108 5.325-.086 10.707 1.748 15.899.563.52-.119 1.06-.282 1.43-.667.393-.407.491-.962.387-1.512-.361.379-.695.536-1.198.679-2.659.756-5.484.662-8.232.363s-5.483-.797-8.247-.83c-1.755-.019-3.724-.061-5.454-.355" style="fill:#252a30"/><path d="M573.572 349.391a113 113 0 0 1-.175 4.645c-.017.299-.052.631-.277.828-.156.136-.372.177-.576.208-1.424.216-2.764.203-4.169-.094-.104-.022-.213-.046-.295-.114-.131-.108-.221-.301-.174-.465.576-2.012 1.094-3.962 1.29-6.07a80 80 0 0 1 4.39.081q-.005.49-.014.981" style="fill:#252a30"/><path d="M576.456 354.71a18 18 0 0 0-1.167 2.17M578.188 355.425q-.166 1.011-.447 1.995" style="fill:none;stroke:#292640;stroke-width:.7526px;stroke-linecap:round;stroke-miterlimit:10"/><path d="M572.183 358.177A1.2 1.2 0 1 0 569.785 358.1774851460222 1.2 1.2 0 0 0 572.183 358.177" style="fill:#edc15f"/><path d="M541.547 357.272c-1.214.655-2.438 1.315-3.755 1.727-1.157.362-2.412.546-3.382 1.272a2.76 2.76 0 0 0-1.022 1.636c-.105.55-.006 1.105.387 1.512.37.384.91.548 1.43.667 5.192 1.185 10.574-.65 15.899-.563 1.57.025 3.161.217 4.696-.108.184-.039.377-.091.509-.225.187-.189.201-.484.204-.75q.005-.337.006-.676c.018-2.611-.055-5.274-1.087-7.659-.184-.425-.469-.889-.929-.942-.267-.03-.524.091-.774.189-2.005.784-3.869-.65-5.689.397-2.133 1.225-4.328 2.353-6.493 3.523" style="fill:#f7dd9c"/><path d="m556.519 361.762-.006.676c-.003.266-.017.561-.204.75-.132.134-.325.186-.509.225-1.536.325-3.126.134-4.696.108-5.325-.086-10.707 1.748-15.899.563-.52-.119-1.06-.282-1.43-.667-.393-.407-.491-.962-.387-1.512.361.379.695.536 1.198.679 2.659.756 5.484.662 8.232.363s5.482-.797 8.247-.83c1.755-.019 3.724-.061 5.454-.355M548.566 349.391q.04 2.324.175 4.645c.018.299.052.631.277.828.156.136.371.177.576.208 1.424.216 2.764.203 4.169-.094.104-.022.213-.046.295-.114.131-.108.221-.301.174-.465-.576-2.012-1.094-3.962-1.29-6.07a80 80 0 0 0-4.39.081Z" style="fill:#252a30"/><path d="M545.682 354.71c.438.695.829 1.421 1.167 2.17M543.95 355.425q.167 1.011.447 1.995" style="fill:none;stroke:#292640;stroke-width:.7526px;stroke-linecap:round;stroke-miterlimit:10"/><path d="M549.955 358.177A1.2 1.2 0 1 1 552.353 358.1774851460222 1.2 1.2 0 0 1 549.955 358.177" style="fill:#edc15f"/><path d="M505.879 252.294c-.61 1.309-.736 2.783-.854 4.222l-.554 6.787c.914-.024 1.696-.736 2.078-1.566s.444-1.767.5-2.68a8.65 8.65 0 0 0 .982 4.164 4.18 4.18 0 0 0 1.361-3.704c.469.454 1.251.459 1.821.142s.954-.892 1.211-1.491c1.205-2.809-.015-6.161.972-9.054.531-1.555 1.649-2.826 2.741-4.053-.491-1.004-1.962-1.068-2.953-.552-1.631.848-2.629 2.243-3.815 3.557-1.224 1.358-2.701 2.535-3.49 4.228M603.947 175.392l.069-.093c.271-.364.682-.751 1.115-.614.401.127.536.622.571 1.041a7.3 7.3 0 0 1-.256 2.624c.267-.933 1.372-1.799 2.067-2.415a16 16 0 0 1 2.74-1.937c1.98-1.123 4.151-1.89 6.36-2.417.351-.084.72-.16 1.068-.068s.667.404.64.764c-.02.279-.231.503-.439.691-2.213 1.997-5.359 2.644-7.698 4.492a5.66 5.66 0 0 1 2.556-.76c.127-.006.273-.001.355.097.089.107.056.266.013.398a6.04 6.04 0 0 1-1.365 2.305c.342-.361 1.551.066 1.693.48.194.565-.628 1.461-1.007 1.779.358-.118.723-.237 1.1-.246.139-.003.284.011.4.087.151.099.222.285.243.464.051.431-.135.864-.411 1.199s-.635.59-.99.84c-1.447 1.019-2.866 1.998-4.433 2.833-1.445.771-3.031 1.469-4.66 1.3-.533-.055-1.073-.213-1.479-.564-.707-.61-.848-1.642-.86-2.576-.011-.91.076-1.821.246-2.715.156-.823.207-1.63.371-2.449a11.6 11.6 0 0 1 1.991-4.54" style="fill:#f9b377"/><path d="m605.564 186.332-3.781 19.239c-.242 1.23-.487 2.472-.992 3.619-1.061 2.413-3.035 3.297-5.554 3.596-.887.105-1.816.031-2.617-.364.353-1.62.787-3.223 1.3-4.799.222-.682.398-1.49.783-2.097.299-.472.727-.872 1.018-1.372a42.54 42.54 0 0 0 5.696-19.047c.781-.122 1.454.067 2.191.354l1.036.404c.294.114.643.314.92.467" style="fill:#f9b377"/><path d="M548.42 353.152c2.177.402 4.458.394 6.631-.026 1.138-30.75-1.217-61.725 4.156-92.151l3.716-.051c2.695 15.374 4.05 30.894 4.749 46.419.672 14.927 1.994 30.466.267 45.334 1.949.392 4.005.393 5.955.003.604-.121.785-12.026.858-13.326l.845-14.856 1.724-30.307c.985-17.315 1.971-34.659 1.097-51.978a271 271 0 0 0-25.61-.402c-.587.019-8.657-.283-8.673-.128-.718 6.873.564 13.421.625 20.276a1459 1459 0 0 0 2.592 75.008c.091 1.487.266 16.037 1.068 16.185" style="fill:#111110"/><path d="M546.553 244.736c-.013.652-.021 1.327.24 1.924 1.466 3.352 9.008 3.213 11.959 3.148a31.5 31.5 0 0 0 8.052-1.226c1.824-.527 6.204-1.508 7.214-3.253.289-.5.319-1.102.341-1.679.625-16.084.888-32.182.788-48.278-.021-3.37-.061-6.771-.818-10.055-.232-1.008-.545-2.029-1.19-2.838-1.67-2.096-4.81-2.052-7.481-1.819-4.984.434-11.667-.153-16.392 1.427-2.308.772-1.647.863-1.571 3.182.087 2.694-.069 5.413-.122 8.109l-.656 33.037Z" style="fill:#fff"/><path d="M552.391 167.247a30.9 30.9 0 0 1 .283 14.256c-.033.153-.066.321.008.46.068.128.21.196.343.254 4.197 1.821 9.22 1.618 13.256-.536-1.206-1.33-1.613-3.191-1.825-4.973a32.3 32.3 0 0 1-.103-6.634Z" style="fill:#f9b377"/><path d="M544.165 180.657c-3.2 1.014-6.732 1.787-10.078 1.757-.444 10.902-.932 22.027-4.812 32.225-1.183 3.109-2.669 6.094-3.95 9.165-2.783 6.674-7.047 12.557-11.977 17.839l-4.024 4.312c1.162 1.288 3.75 3.702 5.677 3.473 1.873-.223 3.23-2.861 4.336-4.251 6.35-7.976 11.426-16.281 15.696-25.529a209 209 0 0 0 2.741-6.199c.631-1.493 2.691-4.693 2.539-6.284 1.507 15.71 1.156 31.615-.869 47.267a19.93 19.93 0 0 0 12.426.188q.327-10.928.489-21.86c.121-8.182.3-16.315.532-24.485.237-8.331.711-16.694.711-25.028.074-2.602.076-5.282-.239-7.867-1.887 1.682-3.997 3.101-6.281 4.158a23 23 0 0 1-2.917 1.119" style="fill:#bc3b3b"/><path d="M552.89 208.274c.237-8.331.711-16.694.711-25.028.074-2.602.076-5.282-.239-7.867-1.887 1.682-3.997 3.101-6.281 4.158.005 1.243-.132 2.432-.127 3.675 1.225.315 2.474.533 3.733.653l-2.207 1.897c-.16.137-.325.282-.406.477-.094.226-.061.482-.026.725l.948 6.536c.742 5.122 1.605 10.132 3.894 14.774" style="opacity:.1;fill:#252a30"/><path d="M569.454 254.414c4.498.593 9.109.322 13.507-.794l-.593-54.018a81.8 81.8 0 0 0 10.045 14.244c.551.627 1.149 1.271 1.942 1.531 1.98.65 3.784-1.321 4.857-3.107a56.6 56.6 0 0 0 6.37-15.386c.403-1.611 2.009-5.872 1.044-7.369-.948-1.472-5.728-1.798-7.307-1.96a108 108 0 0 1-1.611 8.765c-.561 2.473-1.248 5.008-2.831 6.988a49.2 49.2 0 0 1-6.718-13.777c-.28-.915-2.535-10.281-2.524-10.28-4.938-.229-10.217-.531-15.029-2.031-2.242-.699-4.383-1.658-6.34-2.991.248 11.852 2 23.592 3.335 35.369.628 5.536 1.163 11.079 1.407 16.646.244 5.563.839 11.354.681 16.885-.022.788-.597 11.237-.235 11.285" style="fill:#bc3b3b"/><path d="M567.6 209.597c-1.335-11.777-3.087-23.517-3.335-35.369 1.957 1.333 4.098 2.292 6.34 2.991.819 2.089 1.419 4.243 1.544 6.484a17.6 17.6 0 0 0-3.588-.188 8.9 8.9 0 0 0 3.209 1.626l-1.527 14.405c-.191 1.798-.382 3.6-.778 5.364-.38 1.692-1.123 3.12-1.865 4.687" style="opacity:.1;fill:#252a30"/><path d="M564.242 172.613c.007-.841.037-1.682.11-2.519l-11.562-1.484c2.568 3.439 7.299 5.07 11.452 4.003" style="opacity:.45;fill:#421c24"/><path d="M551.455 167.507c2.853 3.975 8.555 4.43 13.424 3.946 2.907-.289 6.108-.964 7.804-3.343 1.566-2.197 1.351-5.152 1.069-7.836-.437-4.168-.894-8.414-2.579-12.252-1.146-2.61-3.467-6.201-6.268-7.295-3.215-1.255-8.28-.316-11.494.507-1.281.328-2.559.756-3.651 1.503-1.316.901-2.293 2.22-3.063 3.616-1.688 3.062-2.477 6.659-1.962 10.117.711 4.757 4.113 7.403 6.72 11.037" style="fill:#f9b377"/><path d="M550.859 136.697c.426.049.872.144 1.271-.012.46-.18.731-.642 1.017-1.044 1.955-2.747 6.231-3.473 8.983-1.524 1.51-1.426 3.767-2.013 5.78-1.504 2.014.51 3.719 2.099 4.369 4.072.146.442.257.927.6 1.241.826.755 2.112-.037 2.924-.807-.573 2.963.923 6.108.041 8.994-.629 2.058-2.41 3.617-4.401 4.433-1.992.816-4.187.981-6.339.996a49.8 49.8 0 0 1-13.229-1.696c-1.09 2.504-.837 5.548.652 7.837-.727.23-1.287.093-1.91-.346-.448-.316-.918-.682-1.467-.679-.474.002-.911.295-1.189.679s-.416.85-.512 1.314c-.202.974-.223 2.037.255 2.91.478.872 1.57 1.458 2.5 1.107-.309.119.527 3.833.606 4.18-.396-.046-.749-.262-1.084-.48-2.967-1.927-5.792-4.123-7.335-7.426-1.567-3.354-1.181-7.893 1.795-10.095-.362.268-.087-6.589.42-7.709 1.149-2.539 3.157-4.8 6.253-4.441" style="fill:#7c4d15"/><path d="M557.072 155.511s3.688-2.95 5.654-.819ZM566.8 154.715l3.438.36c.001 0-3.129-2.211-3.438-.36" style="fill:#7c4d15"/><path d="M558.818 159.075c-.082-.511.122-1.06.519-1.464.388-.414 1.04-.61 1.633-.533.575.126 1.151.484 1.378 1.064.202.564.128 1.034.041 1.531l-.054.008c-.098-.453-.141-.934-.359-1.339-.221-.4-.648-.663-1.095-.728a1.6 1.6 0 0 0-1.283.33c-.364.28-.621.695-.728 1.143ZM569.918 158.576a1.85 1.85 0 0 0-.658-1.034 1.45 1.45 0 0 0-1.16-.298c-.405.059-.791.296-.991.659-.197.367-.236.802-.324 1.212l-.049-.007c-.079-.45-.145-.875.037-1.385.206-.525.727-.849 1.246-.963.537-.07 1.126.108 1.477.482.359.365.543.862.469 1.324Z" style="fill:#494037"/><path d="M565.9 162.837c.348.325.878.327 1.353.31.357-.013.747-.039 1.008-.282-.303.281-2.886-3.009-3.126-3.304-.173.947.028 2.588.765 3.276M548.344 160.424c.07.233.212.469.443.543.197.063.42-.011.575-.148.155-.138.251-.33.318-.526.178-.522.128-1.858-.738-1.64-.655.165-.753 1.257-.598 1.771" style="opacity:.45;fill:#421c24"/><path d="M557.289 168.677c-.063.245-.124.507-.049.748.128.411.582.587.983.697a21.5 21.5 0 0 0 13.034-.543c.244-.089.494-.188.681-.374.222-.221.328-.538.419-.844.488-1.65.754-3.37.789-5.096.005-.249.003-.507-.099-.732-.175-.385-.591-.57-.975-.715-1.576-.595-3.217-1.057-4.892-1.105-1.109-.032-2.215.118-3.316.268-1.625.221-3.695.15-5.223.774a.4.4 0 0 0-.168.106.5.5 0 0 0-.089.25c-.177 1.119-.086 2.257-.304 3.356-.215 1.081-.518 2.143-.791 3.21" style="fill:#42afb2"/><path d="m550.903 157.023 4.764 2.678c1.168.656 2.37 1.343 3.174 2.414M549.041 163.743c.529.944 1.456 1.587 2.368 2.17 1.093.699 2.21 1.361 3.326 2.023.973.577 1.979 1.166 3.099 1.326M572.66 162.469a4.7 4.7 0 0 0 1.219-1.812M571.997 168.38a4.4 4.4 0 0 0 1.548-1.584" style="fill:none;stroke:#d3efef;stroke-width:.3043px;stroke-linecap:round;stroke-miterlimit:10"/><g style="opacity:.1"><path d="M560.407 163.131c1.746-.684 3.634-.976 5.513-.995 1.878-.002 3.77.27 5.523.937-1.86-.196-3.684-.346-5.519-.328-1.836 0-3.659.169-5.517.386" style="fill:#252a30"/></g><g style="opacity:.1"><path d="M559.587 165.371c2.007-.094 3.988-.109 5.973-.18 1.985-.054 3.964-.163 5.973-.194-1.946.508-3.95.73-5.954.802-2.004.053-4.018-.044-5.992-.428" style="fill:#252a30"/></g><g style="opacity:.1"><path d="M560.746 167.531c1.477-.038 2.914-.026 4.356-.095 1.443-.052 2.873-.182 4.348-.265-1.374.554-2.849.803-4.323.872-1.475.052-2.966-.075-4.381-.512" style="fill:#252a30"/></g><g style="opacity:.1"><path d="M563.482 169.319c.963-.073 1.864-.103 2.771-.21.908-.091 1.795-.255 2.751-.389-.778.583-1.729.882-2.686.993-.958.096-1.951.007-2.836-.394" style="fill:#252a30"/></g><path d="M136.625 330.127q.437 5.29.518 10.595c.044 2.885.308 6.182-1.453 8.65-1.001 1.404-2.407 2.474-3.89 3.355-.72.428-1.471.821-2.095 1.38s-1.12 1.32-1.153 2.157c-.012.309.05.641.267.862.113.114.258.19.404.257 1.95.898 4.243.602 6.296-.029 2.052-.631 4.014-1.578 6.126-1.968.836-.154 1.716-.228 2.449-.66 1.504-.885.97-2.701.58-4.06-1.896-6.609-1.932-13.636-2.454-20.451Z" style="fill:#f9b377"/><path d="M144.673 350.666c.39 1.359.924 3.175-.58 4.06-.733.431-1.612.505-2.449.66-2.111.389-4.074 1.337-6.126 1.968s-4.345.926-6.296.029a1.3 1.3 0 0 1-.404-.257c-.217-.22-.279-.553-.267-.862.033-.837.529-1.598 1.153-2.157s1.375-.952 2.095-1.38c.385.49 1.007.79 1.612.939 1.883.462 3.888.183 5.719-.454a33.4 33.4 0 0 0 5.543-2.546" style="fill:#236c8c"/><path d="M161.535 330.127q.437 5.29.518 10.595c.044 2.885.308 6.182-1.453 8.65-1.001 1.404-2.407 2.474-3.89 3.355-.72.428-1.471.821-2.095 1.38s-1.12 1.32-1.153 2.157c-.012.309.05.641.267.862.113.114.258.19.404.257 1.95.898 4.243.602 6.296-.029 2.052-.631 4.014-1.578 6.126-1.968.836-.154 1.716-.228 2.449-.66 1.504-.885.97-2.701.58-4.06-1.896-6.609-1.932-13.636-2.454-20.451Z" style="fill:#f9b377"/><path d="M169.584 350.666c.39 1.359.924 3.175-.58 4.06-.733.431-1.612.505-2.449.66-2.111.389-4.074 1.337-6.126 1.968s-4.345.926-6.296.029a1.3 1.3 0 0 1-.404-.257c-.217-.22-.279-.553-.267-.862.033-.837.529-1.598 1.153-2.157s1.375-.952 2.095-1.38c.385.49 1.007.79 1.612.939 1.883.462 3.888.183 5.719-.454a33.4 33.4 0 0 0 5.543-2.546" style="fill:#236c8c"/><path d="M135.958 236.021a328.9 328.9 0 0 0 .158 96.094l6.879.541c2.1-24.083 4.782-48.201 10.55-71.678 3.184 23.77 6.953 48.046 7.25 72.027 3.593.418 3.093 1.026 6.68.566 1.85-20.333 5.821-41.609 7.672-61.942.65-7.144 1.3-14.345.529-21.477-.786-7.271-3.038-14.316-5.847-21.069a251 251 0 0 1-29.519-1.531Z" style="fill:#252a30"/><path d="M133.812 224.244c-.803 2.688-1.952 5.575-.941 8.192.732 1.894 2.506 3.233 4.417 3.917s3.972.801 6 .895c6.945.321 13.9.444 20.852.367 2.85-.031 5.896-.158 8.211-1.821 2.296-1.649 3.416-4.544 3.646-7.361s-.305-5.632-.69-8.432c-1.107-8.053-.977-16.224-.596-24.344.166-3.546.377-7.14-.354-10.614-.73-3.474-2.538-6.882-5.569-8.731-2.504-1.527-5.562-1.844-8.494-1.765-8.063.218-16.981 3.299-22.872 8.98-2.634 2.54-2.174 7.607-2.227 11.098-.071 4.706.256 9.406.311 14.111.063 5.21-.194 10.484-1.694 15.508" style="fill:#f7dd9c"/><path d="M130.428 181.252c-.791 2.088-1.456 4.193-1.325 6.671.039.73.18 1.544.774 1.971.624.448 1.488.283 2.211.023 1.682-.605 3.296-1.735 3.909-3.414.313-.858.342-1.79.367-2.703.081-2.914 1.78-8.304-1.894-9.757-.258-.102-.537-.176-.811-.137-.862.121-1.19 1.166-1.39 2.013-.449 1.9-1.188 3.611-1.841 5.333" style="fill:#f9b377"/><path d="M133.745 143.483c-2.264 5.421-2.244 11.754.056 17.16.656 1.543 1.489 3.014 1.996 4.612.743 2.345.749 4.851.749 7.312 1.387-2.731 4.162-4.711 7.196-5.134 1.049-.146 2.154-.127 3.105-.594.812-.399 1.422-1.112 1.969-1.832 5.993-7.888 7.024-19.241 2.549-28.08-5.247-10.363-14.689-.459-17.62 6.556" style="fill:#382c18"/><path d="M133.745 143.483c-2.264 5.421-2.244 11.754.056 17.16.656 1.543 1.489 3.014 1.996 4.612.743 2.345.749 4.851.749 7.312 1.387-2.731 4.162-4.711 7.196-5.134 1.049-.146 2.154-.127 3.105-.594.812-.399 1.422-1.112 1.969-1.832 5.993-7.888 7.024-19.241 2.549-28.08-5.247-10.363-14.689-.459-17.62 6.556" style="opacity:.45;fill:#111110"/><path d="M142 151.061c-.652 4.006-1.137 8.638 1.536 11.642 2.027 2.278 5.283 2.869 8.292 2.992 1.866.077 3.798.011 5.495-.783 1.643-.769 2.931-2.161 4-3.652 3.802-5.304 5.182-12.725 2.29-18.598-.613-1.245-1.421-2.421-2.524-3.241-1.13-.84-2.505-1.261-3.871-1.56-3.058-.67-6.326-.785-9.244.365-6.227 2.452-5.086 7.373-5.974 12.835M142.674 188.319l11.33 22.115c.725 1.414 1.457 2.841 2.473 4.062 1.158 1.392 3.045 2.89 4.983 2.584 1.142-.18 2.08-1.027 2.717-1.992.646-.978 1.058-2.144.974-3.312-.168-2.318-2.731-3.725-4.258-5.188a53.9 53.9 0 0 1-13.597-21.212c-.995.124-1.747.59-2.545 1.198l-1.122.854c-.317.242-.672.608-.955.891" style="fill:#f9b377"/><path d="M126.661 188.694a40.2 40.2 0 0 1-2.695 9.405c-1.047 2.466-2.354 4.875-2.749 7.525s.368 5.697 2.641 7.115c.864.538 1.875.8 2.887.912 2.739.302 5.688-.557 7.505-2.629 1.776-2.025 2.26-4.853 2.53-7.533.282-2.8.41-5.616.381-8.43-.022-2.146-.159-4.381-1.211-6.251-.915-1.626-3.379-4.15-5.276-4.581-2.822-.643-3.671 2.303-4.013 4.467" style="fill:#f7dd9c"/><path d="M145.488 201.488c1.857 3.229 2.562 6.973 3.827 10.477s3.355 7.029 6.795 8.459c2.071.861 4.411.857 6.619.468 1.08-.19 2.159-.475 3.111-1.019 2.398-1.37 3.61-4.126 4.44-6.76a49.5 49.5 0 0 0 1.75-7.584c-4.517-.205-8.812-2.024-12.751-4.244s-7.634-4.864-11.648-6.946c-.986-.511-2.033-.998-3.144-.995-5.627.015-.054 6.309 1.001 8.144" style="opacity:.1;fill:#252a30"/><path d="M150.711 151.158s2.018-2.291 4.414.619c0 0-2.123-1.548-4.414-.619M145.811 150.713s-1.954-2.4-3.908.326c0 0 2.137-1.12 3.908-.326" style="fill:#252a30"/><path d="M150.621 155.312c-.141-.538-.17-1.134.183-1.733.16-.298.452-.544.825-.691.39-.137.8-.085 1.121.02.628.24 1.13.694 1.38 1.265.123.283.205.577.23.872-.009.302-.03.594-.168.853l-.066-.003c.032-1.021-.639-2.031-1.594-2.361a1.12 1.12 0 0 0-1.325.369c-.324.391-.431.916-.52 1.419ZM145.247 154.445c-.062-.41-.14-.847-.437-1.138a.72.72 0 0 0-.542-.223c-.198-.04-.411-.002-.607.044a1.19 1.19 0 0 0-.883.764c-.146.387-.179.814-.253 1.228l-.051-.008c-.105-.445-.173-.858-.069-1.361.08-.521.628-.994 1.129-1.121.271-.048.491-.074.792-.012.266.023.613.149.769.407.354.474.319.988.203 1.413Z" style="fill:#494037"/><path d="M145.026 158.212c-.039.025-.079.053-.097.096-.019.048-.004.102.012.15.104.3.292.583.567.741.276.158.647.169.9-.024.25-.19.337-.524.383-.834.067-.452.076-.936-.139-1.338a.2.2 0 0 0-.055-.069c.041.026-1.395 1.164-1.571 1.278" style="opacity:.45;fill:#421c24"/><path d="M145.473 157.692c.846.213 1.63.615 2.434.955a17.5 17.5 0 0 0 5.887 1.356 22 22 0 0 1-1.059 4.706c-.04.117-.088.242-.193.307a.54.54 0 0 1-.265.057 27.7 27.7 0 0 1-8.626-1.01c-.323-.091-.652-.191-.921-.393-.289-.216-.486-.532-.655-.851-.557-1.051-1.461-3.366-.939-4.566.511-1.172 3.138-.863 4.337-.561" style="fill:#42afb2"/><path d="M153.139 160.575a37.6 37.6 0 0 0 7.997-2.073" style="fill:none;stroke:#d3efef;stroke-width:.3405px;stroke-linecap:round;stroke-miterlimit:10"/><path d="M152.762 164.123a37.6 37.6 0 0 0 7.997-2.073" style="fill:none;stroke:#d3efef;stroke-width:.3405px;stroke-linecap:round;stroke-miterlimit:10"/><g style="opacity:.1"><path d="M142.148 159.016c1.32-.218 2.666-.106 3.964.172 1.294.297 2.56.766 3.663 1.525-1.309-.26-2.548-.589-3.811-.86-1.258-.291-2.52-.519-3.816-.837" style="fill:#252a30"/></g><g style="opacity:.1"><path d="M142.652 161.398c1.256.178 2.444.423 3.652.608 1.205.204 2.41.344 3.658.572-1.234.311-2.52.292-3.766.1-1.244-.212-2.47-.598-3.544-1.28" style="fill:#252a30"/></g><path d="M144.044 162.471c-1.127-.515-2.44-1.141-3.53-.554-1.408.758-1.233 2.811-.789 4.347-2.011.442-3.62 2.054-4.491 3.92s-1.095 3.967-1.137 6.025c-.087 4.314.895 9.162 4.486 11.555 2.925 1.949 6.871 1.696 10.115.346 3.245-1.351 5.983-3.65 8.803-5.747s5.896-4.069 9.373-4.583c1.585-.234 3.229-.161 4.752-.66s2.959-1.812 2.894-3.413c-.112-2.749-4.141-3.767-4.815-6.434-.133-.526-.122-1.085-.306-1.595-.306-.849-1.097-1.42-1.888-1.854-4.12-2.259-6.665-1.167-10.728-.173-4.211 1.031-8.793.622-12.739-1.18" style="fill:#bc3b3b"/><path d="m147.14 176.947-.051-.074c-.116-.157-.274-.305-.468-.324-.211-.021-.412.121-.525.301-.179.287-.207.684-.29 1.009-.073.283-.441 1.021-.359 1.291a14.9 14.9 0 0 0-3.114-5.574c-.446-.502-1.171-1.005-1.724-.625-.451.31-.415.975-.33 1.515l.361 2.285c-.291-.529-.634-1.118-1.321-1.037a.8.8 0 0 0-.43.161c-.164.135-.235.352-.275.561a2.95 2.95 0 0 0 .309 1.964c-.462-.157-1.319-.832-1.668-.086-.263.562.12 1.582.426 2.052-.31-.219-.625-.441-.985-.561-.132-.044-.276-.073-.41-.035-.174.051-.297.208-.37.374-.177.399-.125.87.041 1.273.166.404.436.754.704 1.099 1.09 1.407 2.164 2.765 3.423 4.03 1.161 1.167 2.479 2.306 4.094 2.624.529.104 1.094.112 1.588-.105.859-.378 1.299-1.327 1.586-2.221.531-1.659.721-3.413.639-5.15a18 18 0 0 0-.323-2.643c-.133-.656-.155-1.529-.528-2.104" style="fill:#f9b377"/><path d="M147.51 183.623c2.393-.2 4.287 1.889 5.763 3.783l8.636 11.081c1.676-4.028.606-7.91.882-11.98.245-3.621 3.365-7.25 6.406-8.918 1.274-.699 2.725-1.184 4.167-1.003 2.204.277 3.985 2.109 4.742 4.198.757 2.088.65 4.391.305 6.586-.922 5.863-3.424 11.29-5.366 16.854-1.561 4.472-2.417 11.176-7.008 13.727-2.435 1.353-5.564.984-7.987-.39s-4.236-3.619-5.707-5.985c-1.619-2.604-2.829-5.201-3.925-8-1.136-2.902-3.734-4.563-5.862-6.681-1.277-1.272-2.387-2.847-2.548-4.642-.212-2.36 1.339-3.024 2.647-4.48 1.484-1.653 2.267-3.933 4.855-4.15" style="fill:#f7dd9c"/><path d="M155.511 128.424c-2.885-.127-5.801.096-8.473 1.155-3.179 1.26-5.971 3.885-6.694 7.227-1.569 7.248 6.02 8.573 10.813 10.957 2.108 1.048 3.396 2.259 4.791 4.1 2.559 3.379 3.581 6.975 3.594 11.165.005 1.361.005 2.748-.417 4.042-.435 1.333-1.29 2.48-2.065 3.649-1.2 1.81-2.263 3.82-2.342 5.99s1.081 4.513 3.142 5.197c1.695.563 3.561-.083 5.097-.997 1.535-.913 2.92-2.103 4.575-2.774a8.26 8.26 0 0 1 5.538-.219c1.115.353 2.15.943 3.284 1.231s2.467.21 3.297-.614c1.253-1.245.719-3.318.815-5.082.08-1.472.66-2.865 1.009-4.298a13.94 13.94 0 0 0-.449-8.029c-.739-2.02-1.993-3.984-2.098-6.183s.627-4.389.866-6.559c.613-5.573-2.465-11.123-6.931-14.512s-10.126-4.868-15.712-5.339a41 41 0 0 0-1.64-.107" style="fill:#382c18"/><path d="M242.938 178.08c-1.536 2.329-2.274 5.366-3.139 7.89a78 78 0 0 1-4.267 10.066 24.3 24.3 0 0 1-3.377-6.364c-.816-2.338-1.36-4.806-2.188-7.159-1.202-3.408-2.993-6.917-6.216-8.551-2.227-1.129-4.84-1.197-7.326-.971-.184.017-.383.042-.514.171-.172.169-.162.445-.137.685.204 1.951.607 3.876 1.055 5.786a122 122 0 0 0 6.123 18.972c1.311 3.154 2.805 6.327 5.231 8.732s5.978 3.929 9.297 3.12c3.088-.753 5.421-3.352 6.869-6.181s2.197-5.957 3.363-8.913a33.7 33.7 0 0 1 3.105-6.021c.628-.965 1.308-1.903 1.794-2.947 1.445-3.104.77-6.98-1.374-9.597-1.959-2.391-4.957-2.32-7.094-.203-.453.448-.85.948-1.205 1.485" style="fill:#07393d"/><path d="M221.083 331.682c-.059.854-.177 1.817-.863 2.329-.43.321-.994.387-1.528.441-2.343.239-5.17.268-6.494-1.68-.692-1.018-.758-2.322-.801-3.552l-2.644-75.422c-5.555 19.026-4.733 39.062-5.243 58.661-.194 7.445-.576 14.88-.77 22.326-.027 1.046-.095 2.194-.812 2.956-.648.687-1.656.872-2.594.976-3.588.398-8.099.888-7.894-3.963.189-4.458.633-8.96.122-13.362-.55-4.74-.199-9.775-.275-14.548a2418 2418 0 0 1-.1-70.101c.01-.783.044-1.634.544-2.237.519-.627 1.392-.807 2.195-.94a108.3 108.3 0 0 1 30.404-.668c.106.013-.573 33.027-.61 35.707a1137 1137 0 0 1-2.637 63.077" style="fill:#494037"/><path d="M224.557 175.969c1.67 1.916 1.836 4.677 1.919 7.218l.927 28.379c.158 4.835.261 9.675.471 14.507.148 3.404 1.098 7.492-1.036 10.519-.867 1.229-2.146 2.114-3.495 2.781-3.382 1.67-7.234 2.083-11.001 2.277-5.385.278-10.791.163-16.16-.343-3.4-.321-7.36-1.207-8.724-4.338-.53-1.216-.558-2.584-.578-3.91-.117-7.81-.298-15.581-.785-23.378-.505-8.104-2.7-16.462-2.7-24.536-.278-2.125-.574-4.277-.296-6.402.278-2.124 1.21-4.257 2.947-5.511 2.022-1.459 4.707-1.489 7.2-1.462 6.177.068 12.566-.33 18.717.241 3.748.349 10.007.991 12.594 3.958" style="fill:#07393d"/><path d="M216.906 159.799c-2.437 2.509-6.265 2.935-9.761 3.031-3.284.091-6.792-.045-9.491-1.918-1.755-1.218-2.982-3.059-3.943-4.967a27.66 27.66 0 0 1-2.685-16.003c.464-3.446 1.617-6.852 3.72-9.622s5.215-4.853 8.661-5.319c3.571-.483 7.254.809 10.048 3.085 4.796 3.907 5.388 7.796 5.437 13.436.049 5.637 2.495 13.663-1.986 18.277" style="fill:#937460"/><path d="M220.84 129.456c1.059-.851 1.782-2.122 1.398-3.518-.367-1.331-1.699-2.331-3.079-2.312-.404-1.821-.859-3.738-2.145-5.088s-3.699-1.812-4.973-.45c-.861-2.332-4.273-3.21-6.152-1.583-1.665-2.477-5.99-2.352-7.509.216-1.514-.844-3.381-1.23-4.999-.608-1.619.622-2.816 2.442-2.363 4.116-1.555-.448-3.359.165-4.32 1.468s-1.013 3.207-.125 4.561c-2.183.774-2.966 4.012-1.377 5.697-1.309 1.354-.914 3.93.741 4.83-2.251.056-.512 3.87.427 3.434-.749.348-.972 1.408-.578 2.134s1.238 1.12 2.061 1.179c-.531.53-.47 1.461-.025 2.066s1.173.935 1.898 1.127c.198.053.411.105.545.26.097.113.135.264.17.408l.888 3.648c.183.75.169 2.117 1.287 2.013q.313-1.396.547-2.808c.037-.221.071-.449.017-.667-.069-.273-.268-.49-.446-.707-1.091-1.329-2.921-6.152-.284-6.924.518-.152 1.083-.023 1.568.215 1.319.647 2.17 2.143 2.05 3.608.422-2.276 1.459-4.353 1.419-6.711-.015-.91-.148-1.826-.009-2.726.247-1.607 1.419-3.038 2.945-3.597 1.95-.715 4.094-.043 6.15.257 1.69.246 3.417.23 5.103-.042 1.262-.204 2.584-.851 3.883-.567.38.083 2.148 1.082 2.49 2.014.723-.356 1.24-.687 1.801-1.267s.969-1.334 1.012-2.139c.024-.451-.091-.945-.446-1.225q.221-.144.43-.312" style="fill:#252a30"/><path d="M206.597 140.623s-2.912-3.161-5.075.915ZM217.578 141.039l-4.326-.543s1.415-3.617 4.326.543" style="fill:#252a30"/><path d="M203.307 147.333c.041-.647.036-1.306.234-1.942.17-.628.65-1.245 1.34-1.378.664-.146 1.419.15 1.746.757.321.612.235 1.298.268 1.934l-.081.004c-.29-.637-.456-1.341-.745-1.624a1.09 1.09 0 0 0-1.019-.275c-.355.062-.622.287-.898.776-.257.479-.452 1.12-.765 1.75ZM213.671 146.17c.024-.545.068-1.139.417-1.61.349-.47.989-.668 1.553-.531.587.157.948.663 1.206 1.152.241.52.27 1.093.288 1.643l-.074.003c-.265-.546-.481-1.057-.742-1.394-.134-.148-.291-.337-.458-.467-.16-.135-.261-.192-.402-.216a1.1 1.1 0 0 0-.904.167c-.288.215-.542.714-.809 1.256Z" style="fill:#494037"/><path d="M214.232 150.469c.183.441-.03 1.006-.458 1.216a1.4 1.4 0 0 1-.529.124c-.712.045-1.497-.278-1.776-.935-.107-.252-.133-.531-.135-.804-.003-.296.024-.603.17-.86.479-.843.908-.093 1.384.21.469.301 1.112.491 1.344 1.049" style="opacity:.45;fill:#421c24"/><path d="M197.513 160.253c-.439-.163-.936-.336-1.36-.135-.597.282-.665 1.111-.514 1.753.315 1.345 1.184 2.499 1.59 3.819.287.934.333 1.94.133 2.896-.214 1.021-.704 2.027-.545 3.057.155 1.004.925 1.832 1.826 2.3s1.928.63 2.937.745c2.912.332 5.85.334 8.781.334 1.003 0 2.025-.002 2.983-.3s1.861-.943 2.217-1.882c.811-2.136-1.451-4.269-1.441-6.553.006-1.308 1.212-3.49-.138-4.468-1.139-.826-3.668.091-4.962.162a28.7 28.7 0 0 1-11.507-1.728" style="fill:#07393d"/><path d="M221.888 332.64c.389.197.736.485.887.887.151.4.085.844.022 1.266a48 48 0 0 0-.513 6.554c-.017 1.731-.299 4.158.333 5.798.85 2.204 3.717 2.584 6.041 3.01 1.796.33 3.623.937 4.906 2.236.83.841 1.102 1.491 1.169 2.707l.094 1.699c.015.267.029.539-.036.798-.168.667-.82 1.098-1.468 1.33-.881.316-1.829.384-2.764.433-1.651.087-3.312.124-4.95-.093-1.913-.253-3.773-.847-5.695-1.028-2.26-.212-4.554.154-6.8-.175-.573-.084-1.149-.216-1.651-.505s-.925-.753-1.058-1.317c-.07-.3-.057-.614-.043-.922.077-1.664.019-3.26.245-4.917.55-4.04.482-7.95.426-12.025-.003-.187-.008-.384-.101-.546-.082-.143-.223-.242-.326-.371-.222-.278-.246-.661-.252-1.017q-.024-1.349.097-2.691c.043-.479.117-.994.449-1.343.346-.364.884-.456 1.383-.507q1.142-.117 2.289-.092c.751.016 1.519.083 2.199.402s1.261.934 1.355 1.679c.157-.693.734-1.248 1.407-1.475s1.423-.153 2.085.105q.138.054.27.12" style="fill:#f7dd9c"/><path d="M210.933 337.831c-.082-.143-.223-.242-.326-.371-.222-.278-.246-.661-.252-1.017q-.024-1.349.097-2.691c.043-.479.117-.994.449-1.343.346-.364.884-.456 1.383-.507q1.142-.117 2.289-.092c.751.016 1.519.083 2.199.402s1.261.934 1.355 1.679c.135 1.073.12 2.269-.588 3.086-.585.676-1.527.903-2.412 1.027-.893.125-1.795.184-2.696.176-.503-.004-1.248.086-1.498-.349M210.363 355.318c-.014.308-.028.622.043.922.132.564.556 1.028 1.058 1.317s1.078.421 1.651.505c2.246.329 4.54-.037 6.8.175 1.921.18 3.782.775 5.695 1.028 1.639.216 3.3.18 4.95.093.935-.049 1.882-.117 2.764-.433.648-.232 1.3-.663 1.468-1.33.065-.259.051-.531.036-.798-.913.426-1.964.431-2.969.505a41 41 0 0 1-11.669-.812c-.874-.188-1.743-.406-2.628-.524-2.219-.297-5.014-.169-7.199-.648" style="opacity:.1;fill:#252a30"/><path d="M222.961 339.985a7.4 7.4 0 0 1-3.106.126" style="fill:none;stroke:#07393d;stroke-width:1.2694px;stroke-linecap:round;stroke-miterlimit:10"/><path d="M222.942 342.993c-.944.15-1.908.178-2.859.081M223.097 345.603a9 9 0 0 1-2.535.128" style="fill:none;stroke:#07393d;stroke-width:1.2694px;stroke-linecap:round;stroke-miterlimit:10"/><path d="M223.677 347.802c-.42.393-1.028.499-1.6.559q-.704.074-1.412.092" style="fill:none;stroke:#07393d;stroke-width:1.2694px;stroke-linecap:round;stroke-miterlimit:10"/><path d="M202.123 336.963c.389.196.736.485.887.887.151.4.085.844.022 1.266a48 48 0 0 0-.513 6.554c-.017 1.731-.299 4.158.333 5.798.85 2.204 3.717 2.584 6.041 3.01 1.796.33 3.623.936 4.906 2.236.83.841 1.102 1.491 1.169 2.707l.094 1.699c.015.267.029.538-.036.798-.168.667-.82 1.098-1.468 1.33-.881.316-1.829.384-2.764.433-1.65.087-3.312.124-4.95-.093-1.913-.253-3.773-.847-5.695-1.027-2.26-.212-4.554.154-6.8-.175-.573-.084-1.149-.216-1.651-.505s-.925-.753-1.058-1.317c-.071-.301-.057-.614-.043-.922.077-1.664.019-3.26.245-4.917.55-4.04.483-7.95.426-12.025-.003-.187-.008-.384-.101-.546-.082-.143-.223-.242-.326-.372-.222-.278-.246-.661-.252-1.017q-.024-1.349.097-2.691c.044-.479.117-.994.449-1.343.346-.364.884-.456 1.383-.507q1.141-.117 2.289-.092c.751.016 1.519.083 2.199.402s1.261.935 1.355 1.679c.157-.693.735-1.248 1.408-1.475s1.423-.152 2.085.105q.137.054.269.12" style="fill:#f7dd9c"/><path d="M191.168 342.154c-.082-.143-.223-.242-.326-.372-.222-.278-.246-.661-.252-1.017q-.024-1.349.097-2.691c.044-.479.117-.994.449-1.343.346-.364.884-.456 1.383-.507q1.142-.117 2.289-.092c.751.016 1.519.083 2.199.402s1.261.935 1.355 1.679c.136 1.073.12 2.269-.588 3.086-.585.676-1.527.903-2.412 1.027a18 18 0 0 1-2.696.176c-.503-.003-1.248.087-1.498-.348" style="opacity:.1;fill:#252a30"/><path d="M190.598 359.641c-.014.308-.028.621.043.922.132.564.556 1.028 1.058 1.317s1.078.422 1.651.505c2.246.329 4.54-.037 6.8.175 1.922.18 3.782.775 5.695 1.027 1.639.217 3.3.18 4.95.093.935-.049 1.882-.117 2.764-.433.648-.232 1.3-.663 1.468-1.33.065-.259.051-.531.036-.798-.913.426-1.964.431-2.969.505a41 41 0 0 1-11.669-.812c-.874-.188-1.742-.406-2.628-.524-2.218-.296-5.014-.168-7.199-.647" style="opacity:.1;fill:#252a30"/><path d="M203.196 344.308a7.4 7.4 0 0 1-3.106.126" style="fill:none;stroke:#07393d;stroke-width:1.2694px;stroke-linecap:round;stroke-miterlimit:10"/><path d="M203.178 347.316c-.944.15-1.908.178-2.859.081M203.332 349.926a9 9 0 0 1-2.535.128" style="fill:none;stroke:#07393d;stroke-width:1.2694px;stroke-linecap:round;stroke-miterlimit:10"/><path d="M203.912 352.125c-.42.393-1.028.499-1.6.559q-.704.074-1.412.092" style="fill:none;stroke:#07393d;stroke-width:1.2694px;stroke-linecap:round;stroke-miterlimit:10"/><path d="M248.009 162.174c.053-.38.123-.79.402-1.055.559-.53 1.555-.054 1.851.657s.147 1.517.104 2.286a7.96 7.96 0 0 0 1.076 4.444c3.062-4.219 8.521-9.098 13.983-9.362.237-.011.492-.009.686.128.309.218.32.697.127 1.022-.193.324-.531.53-.856.723l-8.113 4.82c.889.729 1.114 2.147.494 3.116 1.047.959 1.063 2.674.425 3.943-.606 1.204-1.64 2.017-2.641 2.874-.936.801-1.73 1.828-2.769 2.53-.897.606-2.013.969-3.072.745-.492-.104-.975-.349-1.257-.766-.961-1.419-1.014-4.871-1.125-6.654-.193-3.099.262-6.387.685-9.451M180.419 249.927c.411.823.627 1.731.838 2.628.157.667.282 1.464-.195 1.956-.354.365-.919.417-1.426.386-.068-.004-.142-.008-.196.033-.094.07-.068.213-.034.325.331 1.059 1.755 4.045-.585 3.939-.58-.039-1.088-.39-1.535-.762-.438.777-1.533 1.097-2.321.677-.092.504-.718.757-1.216.636s-.888-.497-1.252-.858c-.732.45-1.749.035-2.237-.672s-.578-1.608-.626-2.465c-.091-1.61-.085-3.26.423-4.791s1.593-2.943 3.11-3.492c.698-.253 1.453-.314 2.196-.29 1.883.062 4.074.9 4.989 2.62q.035.064.067.13" style="fill:#937460"/><path d="M181.506 178.773c-6.314 11.543-8.803 24.772-10.283 37.846-1.026 9.063-1.61 18.239-.524 27.296.163 1.36.403 2.803 1.324 3.817 1.857 2.045 5.523 1.068 7.124-1.182s1.723-5.197 1.786-7.958l.237-10.371c.128-5.588.259-11.205 1.289-16.699 1.697-9.052 5.735-17.483 7.345-26.553.466-2.625 2.098-9.993-.304-11.983-3.14-2.601-6.934 3.848-7.994 5.787" style="fill:#07393d"/><path d="M247.324 171.624c-.193-3.098.262-6.386.685-9.45.053-.38.123-.79.402-1.055.559-.53 1.555-.054 1.851.657s.147 1.517.104 2.286a7.96 7.96 0 0 0 1.076 4.444c.21.358.463.576.676.933.337.566.665 1.15.809 1.793s.083 1.36-.305 1.892c-.411.564-1.142.84-1.839.807s-1.358-.34-1.919-.756-1.072-1.033-1.54-1.551" style="fill:#937460"/><path d="M207.068 175.079a98 98 0 0 1-6.272-.588c1.152 1.456 3.199 1.777 5.048 1.946 1.669.153 3.367.267 5.01-.064 1.326-.267 2.892-.888 3.717-2.011-.605-.382-2.566.575-3.38.678-1.365.173-2.753.123-4.123.039M237.63 207.212c1.179.046 2.978.035 4.091.731-1.192 1.193-2.608 2.116-4.242 2.515-2.274.554-4.648-.003-6.704-1.171.147-.273.35-.528.582-.729 1.655-1.439 4.081-1.431 6.273-1.346" style="opacity:.1;fill:#252a30"/><path d="M171.796 211.975c.647.65.706 2.58.704 3.192a40.5 40.5 0 0 1-.541 6.508c-.142.86-.413 1.846-1.217 2.184a1 1 0 0 1-.222.06c.188-2.438.426-4.873.701-7.3q.264-2.321.575-4.644" style="opacity:.1;fill:#252a30"/><path d="M219.023 150.97c.398.106.841.247 1.025.615.133.264.094.579.047.871a23.9 23.9 0 0 1-1.836 6.065c-.371.816-.831 1.656-1.616 2.089-.497.274-1.074.356-1.638.421-4.513.523-9.11.308-13.554-.633-.192-.041-.393-.087-.542-.215-.185-.158-.255-.409-.313-.646a22.3 22.3 0 0 1-.316-8.933 440 440 0 0 1 10.256-1.032c1.448-.129 2.589-.269 3.959.162 1.491.468 3.018.834 4.528 1.236" style="fill:#42afb2"/><g style="opacity:.1"><path d="M218.598 152.404a16.4 16.4 0 0 0-3.834-.709 23 23 0 0 0-3.882.064c-1.298.083-2.59.282-3.892.445-1.302.162-2.611.332-3.932.375 1.283-.307 2.562-.597 3.852-.862a40 40 0 0 1 3.919-.597c1.324-.084 2.665-.107 3.988.086 1.317.189 2.622.556 3.781 1.198" style="fill:#252a30"/></g><g style="opacity:.1"><path d="M217.614 155.08c-2.335.499-4.732.653-7.117.605-2.384-.067-4.771-.337-7.079-.95 2.383.11 4.734.259 7.095.308 2.36.067 4.716.033 7.101.037" style="fill:#252a30"/></g><g style="opacity:.1"><path d="M216.043 158.41c-2.032.636-4.201.812-6.331.665-2.129-.165-4.249-.657-6.165-1.585 2.077.445 4.13.799 6.212.945 2.081.161 4.164.111 6.284-.025" style="fill:#252a30"/></g><path d="M201.341 151.171a35.6 35.6 0 0 1-5.632-9.23" style="fill:none;stroke:#d3efef;stroke-width:.3213px;stroke-linecap:round;stroke-miterlimit:10"/><path d="M201.389 160.057a26 26 0 0 1-9.294-10.039" style="fill:none;stroke:#d3efef;stroke-width:.3213px;stroke-linecap:round;stroke-miterlimit:10"/><path d="M193.99 146.973c-.101.091-.239.176-.365.124-.082-.034-.132-.117-.173-.196-.342-.651-1.141-2.775.333-2.729 1.369.043.858 2.213.205 2.801" style="opacity:.45;fill:#421c24"/><path d="m118.012 368.815 4.926-5.187v-261.56h-4.926ZM266.366 368.815l-4.926-5.187v-261.56h4.926ZM622.064 368.815l-4.926-5.187v-261.56h4.926Z" style="fill:#595959"/></g></svg>